<svg width="148" height="148" viewBox="0 0 148 148" fill="none" xmlns="http://www.w3.org/2000/svg">
<g filter="url(#filter0_d)">
<circle cx="73.8793" cy="63.8793" r="53.8793" fill="white"/>
</g>
<path d="M90.2973 73.359C90.6827 72.9735 90.6827 72.3458 90.2973 71.9603L83.5902 65.2533L88.1827 60.6608C88.37 60.4735 88.4691 60.2202 88.4691 59.9669V53.6233C88.4691 53.0837 88.0286 52.6321 87.4779 52.6321C86.9272 52.6321 86.4867 53.0727 86.4867 53.6233V59.5594L82.2246 63.8326C81.8832 63.5132 81.5087 63.2379 81.1122 63.0066C81.729 62.3568 82.1145 61.4757 82.1145 60.5066C82.1145 58.7334 80.936 57.6321 79.9999 57.2026V51.5198C79.9999 49.8127 78.6123 48.4141 76.8942 48.4141C76.3545 48.4141 75.903 48.8546 75.903 49.4053C75.903 49.9559 76.3435 50.3964 76.8942 50.3964C77.5109 50.3964 78.0175 50.903 78.0175 51.5198V52.6431H76.8942C76.3545 52.6431 75.903 53.0837 75.903 53.6343C75.903 54.185 76.3435 54.6255 76.8942 54.6255H78.0396V56.8832H71.5528V54.6255H72.6761C73.2268 54.6255 73.6673 54.185 73.6673 53.6343C73.6673 53.0947 73.2268 52.6431 72.6761 52.6431H71.5528V51.5198C71.5528 50.903 72.0594 50.3964 72.6761 50.3964C73.2268 50.3964 73.6673 49.9559 73.6673 49.4053C73.6673 48.8546 73.2268 48.4141 72.6761 48.4141C70.9691 48.4141 69.5704 49.8017 69.5704 51.5198V57.2026C68.6343 57.6321 67.4559 58.7334 67.4559 60.5066C67.4559 61.4757 67.8413 62.3568 68.4581 63.0066C68.0616 63.2379 67.6871 63.5132 67.3457 63.8326L63.0836 59.5705V53.6343C63.0836 53.0947 62.6431 52.6431 62.0924 52.6431C61.5418 52.6431 61.1012 53.0837 61.1012 53.6343V59.9779C61.1012 60.2423 61.2004 60.4956 61.3876 60.6718L65.9801 65.2643L59.273 71.9713C58.8876 72.3568 58.8876 72.9845 59.273 73.37C59.6585 73.7555 60.2863 73.7555 60.6717 73.37L65.3303 68.7114V72.2687L61.4096 76.2004C61.2224 76.3876 61.1233 76.6409 61.1233 76.8942V81.1233C61.1233 81.674 61.5638 82.1145 62.1145 82.1145C62.6651 82.1145 63.1056 81.674 63.1056 81.1233V77.3017L65.6056 74.8017C66.5748 78.9867 70.3303 82.1035 74.8017 82.1035C79.273 82.1035 83.0286 78.9757 83.9977 74.8017L86.4977 77.3017V81.1233C86.4977 81.674 86.9382 82.1145 87.4889 82.1145C88.0285 82.1145 88.4801 81.674 88.4801 81.1233V76.8942C88.4801 76.6299 88.381 76.3766 88.1938 76.2004L84.251 72.2577V68.7004L88.9096 73.359C89.2841 73.7445 89.9118 73.7445 90.2973 73.359ZM82.2686 68.4361V69.5594H67.3237V68.4361C67.3237 66.0572 69.251 64.1409 71.6189 64.1409H77.9625C78.4691 64.1409 80.1982 64.2401 81.4206 65.881C81.4537 65.9141 82.2686 66.9053 82.2686 68.4361ZM71.0902 62.1586C70.1761 62.1586 69.4382 61.4207 69.4382 60.5066C69.4382 59.5925 70.1761 58.8546 71.0902 58.8546H78.4911C79.4052 58.8546 80.1431 59.5925 80.1431 60.5066C80.1431 61.4207 79.4052 62.1586 78.4911 62.1586H71.0902ZM67.3237 72.6652V71.5418H73.8105V80.0771C70.1541 79.5925 67.3237 76.4537 67.3237 72.6652ZM75.7819 80.0771V71.5418H82.2686V72.6652C82.2686 76.4537 79.4382 79.5925 75.7819 80.0771Z" fill="#F9BA21"/>
<path d="M87.4779 82.1695C86.9052 82.1695 86.4317 81.7069 86.4317 81.1232V77.3236L84.0198 74.9117C83.5242 76.9272 82.3678 78.7554 80.7378 80.0659C79.0528 81.4206 76.9493 82.1584 74.7907 82.1584C72.6321 82.1584 70.5176 81.4095 68.8436 80.0659C67.2136 78.7554 66.0462 76.9272 65.5616 74.9117L63.1497 77.3236V81.1232C63.1497 81.6959 62.6872 82.1695 62.1035 82.1695C61.5198 82.1695 61.0572 81.7069 61.0572 81.1232V76.8941C61.0572 76.6188 61.1674 76.3545 61.3656 76.1562L65.2863 72.2355V68.8435L60.7268 73.4029C60.5286 73.6012 60.2643 73.7113 59.9889 73.7113C59.7136 73.7113 59.4493 73.6012 59.2511 73.4029C58.8436 72.9955 58.8436 72.3347 59.2511 71.9272L65.914 65.2642L61.3656 60.7157C61.1674 60.5175 61.0572 60.2532 61.0572 59.9778V53.6342C61.0572 53.0615 61.5198 52.588 62.1035 52.588C62.6872 52.588 63.1497 53.0505 63.1497 53.6342V59.5483L67.3568 63.7554C67.6762 63.469 68.0176 63.2157 68.381 62.9955C67.7533 62.3126 67.4118 61.4316 67.4118 60.5065C67.4118 58.7774 68.5022 57.654 69.5264 57.1695V51.5197C69.5264 49.7796 70.9471 48.3589 72.6872 48.3589C73.2599 48.3589 73.7334 48.8214 73.7334 49.4051C73.7334 49.9888 73.2709 50.4514 72.6872 50.4514C72.0925 50.4514 71.6189 50.936 71.6189 51.5197V52.588H72.6872C73.2599 52.588 73.7334 53.0505 73.7334 53.6342C73.7334 54.2179 73.2709 54.6805 72.6872 54.6805H71.6189V56.828H77.9955V54.6805H76.9273C76.3546 54.6805 75.881 54.2179 75.881 53.6342C75.881 53.0505 76.3436 52.588 76.9273 52.588H77.9955V51.5197C77.9955 50.925 77.511 50.4514 76.9273 50.4514C76.3546 50.4514 75.881 49.9888 75.881 49.4051C75.881 48.8214 76.3436 48.3589 76.9273 48.3589C78.6674 48.3589 80.0881 49.7796 80.0881 51.5197V57.1695C81.1123 57.654 82.2026 58.7774 82.2026 60.5065C82.2026 61.4316 81.8612 62.3126 81.2334 62.9955C81.5969 63.2157 81.9383 63.469 82.2577 63.7554L86.4647 59.5483V53.6342C86.4647 53.0615 86.9273 52.588 87.511 52.588C88.0947 52.588 88.5572 53.0505 88.5572 53.6342V59.9778C88.5572 60.2532 88.4471 60.5175 88.2489 60.7157L83.7004 65.2642L90.3634 71.9272C90.7709 72.3347 90.7709 72.9955 90.3634 73.4029C90.1651 73.6012 89.9008 73.7113 89.6255 73.7113C89.3502 73.7113 89.0859 73.6012 88.8876 73.4029L84.3281 68.8435V72.2355L88.2489 76.1562C88.4471 76.3545 88.5572 76.6188 88.5572 76.8941V81.1232C88.5242 81.6959 88.0616 82.1695 87.4779 82.1695ZM83.9647 74.6915L86.5528 77.2796V81.1232C86.5528 81.6408 86.9713 82.0593 87.4889 82.0593C88.0066 82.0593 88.4251 81.6408 88.4251 81.1232V76.8941C88.4251 76.6408 88.3259 76.4095 88.1497 76.2333L84.196 72.2796V68.5681L88.9427 73.3258C89.1189 73.5021 89.3502 73.6012 89.6035 73.6012C89.8568 73.6012 90.0881 73.5021 90.2643 73.3258C90.6277 72.9624 90.6277 72.3677 90.2643 72.0043L83.5242 65.2642L88.1497 60.6386C88.3259 60.4624 88.4251 60.2201 88.4251 59.9778V53.6342C88.4251 53.1166 88.0066 52.6981 87.4889 52.6981C86.9713 52.6981 86.5528 53.1166 86.5528 53.6342V59.5924L82.2356 63.9095L82.1916 63.8765C81.8502 63.5681 81.4867 63.2928 81.0903 63.0615L81.0352 63.0285L81.0792 62.9734C81.718 62.3016 82.0704 61.4316 82.0704 60.5065C82.0704 58.8104 80.9911 57.7201 79.9889 57.2576L79.9559 57.2466V51.5197C79.9559 49.8347 78.5903 48.469 76.9052 48.469C76.3876 48.469 75.9691 48.8875 75.9691 49.4051C75.9691 49.9228 76.3876 50.3413 76.9052 50.3413C77.555 50.3413 78.0837 50.8699 78.0837 51.5197V52.6981H76.9052C76.3876 52.6981 75.9691 53.1166 75.9691 53.6342C75.9691 54.1518 76.3876 54.5703 76.9052 54.5703H78.0837V56.9382H71.4867V54.5703H72.6651C73.1828 54.5703 73.6013 54.1518 73.6013 53.6342C73.6013 53.1166 73.1828 52.6981 72.6651 52.6981H71.4867V51.5197C71.4867 50.8699 72.0154 50.3413 72.6651 50.3413C73.1828 50.3413 73.6013 49.9228 73.6013 49.4051C73.6013 48.8875 73.1828 48.469 72.6651 48.469C70.9801 48.469 69.6145 49.8347 69.6145 51.5197V57.2466L69.5814 57.2576C68.5792 57.7201 67.5 58.8214 67.5 60.5065C67.5 61.4316 67.8524 62.3016 68.4911 62.9734L68.5352 63.0285L68.4801 63.0615C68.0837 63.2928 67.7202 63.5681 67.3788 63.8765L67.3348 63.9095L63.0176 59.5924V53.6342C63.0176 53.1166 62.5991 52.6981 62.0814 52.6981C61.5638 52.6981 61.1453 53.1166 61.1453 53.6342V59.9778C61.1453 60.2201 61.2444 60.4624 61.4207 60.6386L66.0462 65.2642L59.3392 72.0043C58.9757 72.3677 58.9757 72.9624 59.3392 73.3258C59.5154 73.5021 59.7466 73.6012 60 73.6012C60.2533 73.6012 60.4845 73.5021 60.6607 73.3258L65.4185 68.5681V72.2796L61.4647 76.2333C61.2885 76.4095 61.1894 76.6518 61.1894 76.8941V81.1232C61.1894 81.6408 61.6079 82.0593 62.1255 82.0593C62.6431 82.0593 63.0616 81.6408 63.0616 81.1232V77.2796L65.6497 74.6915L65.6718 74.7906C66.6629 79.0637 70.4295 82.0593 74.8237 82.0593C79.218 82.0593 82.9735 79.0747 83.9757 74.7906L83.9647 74.6915ZM75.7268 80.132V71.4756H82.3237V72.6651C82.3237 76.4206 79.5154 79.6364 75.7929 80.121L75.7268 80.132ZM75.837 71.5968V80.0109C79.4713 79.4932 82.2136 76.3545 82.2136 72.6651V71.5968H75.837ZM73.8656 80.132L73.7995 80.121C70.077 79.6254 67.2687 76.4206 67.2687 72.6651V71.4866H73.8656V80.132ZM67.3788 71.5968V72.6651C67.3788 76.3435 70.1101 79.4932 73.7555 80.0109V71.5968H67.3788ZM82.3237 69.6144H67.2687V68.436C67.2687 66.0351 69.218 64.0858 71.6189 64.0858H77.9625C78.6233 64.0858 80.2753 64.262 81.4647 65.8479C81.5528 65.958 82.3127 66.9492 82.3127 68.436V69.6144H82.3237ZM67.3788 69.5043H82.2136V68.436C82.2136 66.9822 81.4647 66.0241 81.3876 65.914C80.2312 64.3611 78.6123 64.1959 77.9735 64.1959H71.6299C69.2951 64.1959 67.3898 66.1012 67.3898 68.436V69.5043H67.3788ZM78.4911 62.2135H71.0903C70.1431 62.2135 69.3832 61.4426 69.3832 60.5065C69.3832 59.5703 70.1541 58.7994 71.0903 58.7994H78.4911C79.4383 58.7994 80.1982 59.5703 80.1982 60.5065C80.2092 61.4536 79.4383 62.2135 78.4911 62.2135ZM71.0903 58.9095C70.2092 58.9095 69.4933 59.6254 69.4933 60.5065C69.4933 61.3875 70.2092 62.1034 71.0903 62.1034H78.4911C79.3722 62.1034 80.0881 61.3875 80.0881 60.5065C80.0881 59.6254 79.3722 58.9095 78.4911 58.9095H71.0903Z" fill="#F9BA21"/>
<path d="M66.0242 37.2907L65.9802 37.2576C65.793 37.1144 65.5727 37.0374 65.3414 37.0374C65.2974 37.0374 65.2423 37.0374 65.1982 37.0484C64.9229 37.0814 64.6696 37.2356 64.5044 37.4559C64.3392 37.6761 64.2621 37.9515 64.3062 38.2378C64.3502 38.5241 64.4934 38.7664 64.7137 38.9316L64.7577 38.9647C64.9449 39.1078 65.1652 39.1739 65.3965 39.1739C65.7269 39.1739 66.0352 39.0197 66.2335 38.7554C66.5749 38.3039 66.4758 37.6431 66.0242 37.2907Z" fill="#383B45"/>
<path d="M92.046 41.9344L54.3802 85.9492L56.2798 87.5747L93.9455 43.5599L92.046 41.9344Z" fill="#383B45"/>
<path d="M75 35C73.8546 35 72.7313 35.0661 71.6189 35.1872C71.0242 35.2533 70.5837 35.7489 70.5837 36.3436V36.3767C70.5837 37.0705 71.1894 37.6101 71.8943 37.533C72.9185 37.4119 73.9537 37.3568 75.011 37.3568C90.2753 37.3568 102.643 49.7247 102.643 64.989C102.643 80.2533 90.2753 92.6322 75.011 92.6322C59.7467 92.6322 47.3678 80.2533 47.3678 64.989C47.3789 55.1762 52.489 46.5639 60.1982 41.663C60.5396 41.4427 60.7489 41.0683 60.7489 40.6608C60.7489 39.7247 59.7137 39.163 58.9207 39.6586C50.5617 44.989 45 54.3392 45 64.989C45.011 81.5529 58.4361 94.989 75 95C91.5639 95 105 81.5639 105 65C105 48.4361 91.5639 35 75 35Z" fill="#383B45"/>
<defs>
<filter id="filter0_d" x="0" y="0" width="147.759" height="147.759" filterUnits="userSpaceOnUse" color-interpolation-filters="sRGB">
<feFlood flood-opacity="0" result="BackgroundImageFix"/>
<feColorMatrix in="SourceAlpha" type="matrix" values="0 0 0 0 0 0 0 0 0 0 0 0 0 0 0 0 0 0 127 0"/>
<feOffset dy="10"/>
<feGaussianBlur stdDeviation="10"/>
<feColorMatrix type="matrix" values="0 0 0 0 0.976471 0 0 0 0 0.72549 0 0 0 0 0.113725 0 0 0 0.4 0"/>
<feBlend mode="normal" in2="BackgroundImageFix" result="effect1_dropShadow"/>
<feBlend mode="normal" in="SourceGraphic" in2="effect1_dropShadow" result="shape"/>
</filter>
</defs>
</svg>
