<svg width="148" height="148" viewBox="0 0 148 148" fill="none" xmlns="http://www.w3.org/2000/svg">
<g filter="url(#filter0_d)">
<circle cx="73.8793" cy="63.8793" r="53.8793" fill="white"/>
</g>
<path d="M80.6749 91.3923L80.6302 91.3588C80.4403 91.2137 80.217 91.1355 79.9825 91.1355C79.9378 91.1355 79.882 91.1355 79.8373 91.1467C79.5581 91.1802 79.3013 91.3365 79.1338 91.5599C78.9663 91.7832 78.8881 92.0624 78.9328 92.3527C78.9663 92.6319 79.1226 92.8887 79.346 93.0562L79.3906 93.0897C79.5805 93.2349 79.8038 93.3019 80.0383 93.3019C80.3733 93.3019 80.686 93.1456 80.887 92.8776C81.2332 92.4197 81.1439 91.7497 80.6749 91.3923Z" fill="#383B45"/>
<path d="M87.8999 54.1729H87.7213L85.2533 48.2767V48.2432C85.3762 48.2432 85.499 48.2432 85.6218 48.232C86.102 48.2097 86.4817 47.7965 86.4594 47.3163C86.437 46.8361 86.035 46.4564 85.5437 46.4788C85.4432 46.4788 85.3427 46.4788 85.2533 46.4899V46.1549C85.2533 45.6747 84.8625 45.2727 84.3711 45.2727C83.891 45.2727 83.4889 45.6636 83.4889 46.1549V46.3336C79.9266 45.6301 79.9266 43.6423 77.3247 43.6423H77.1684C76.8892 42.8495 76.2527 42.213 75.4598 41.9449V41.3866C75.4598 40.9064 75.069 40.5044 74.5776 40.5044C74.0863 40.5044 73.6954 40.8952 73.6954 41.3866V41.9449C72.8914 42.213 72.2549 42.8495 71.9869 43.6423C71.9087 43.6535 70.5463 43.5083 69.3179 44.558C68.5362 45.2169 67.3414 45.9874 65.7333 46.3224V46.1549C65.7333 45.6747 65.3425 45.2727 64.8511 45.2727C64.3709 45.2727 63.9689 45.6636 63.9689 46.1549V46.4899C63.4999 46.5011 63.109 46.892 63.109 47.361C63.109 47.83 63.4887 48.2208 63.9689 48.232V48.2655L61.501 54.1617C61.434 54.1729 60.9091 54.0835 60.496 54.5191C60.0716 54.9546 60.1498 55.4794 60.2614 56.1829C60.4178 57.1098 61.0096 57.9473 61.9588 58.4052C62.3944 58.6174 62.7294 59.1199 63.5669 59.1199H66.1242C66.7272 59.1199 67.1627 58.796 67.2409 58.729C67.4865 58.528 67.5312 58.5057 67.7434 58.394C68.9829 57.8022 69.4519 56.7078 69.5078 55.3566C69.5189 54.6642 68.9829 54.1729 68.3687 54.1729H68.2124L65.7445 48.2767V48.098C68.0226 47.7071 69.6306 46.6016 70.4681 45.8869C71.1382 45.3174 71.9422 45.3956 71.998 45.3956C72.266 46.2108 72.9137 46.8585 73.7178 47.1265V56.2388C71.9645 56.3616 70.8255 58.1483 71.4732 59.7899C70.3788 60.1026 69.5748 61.1076 69.5748 62.3025C69.5748 63.743 70.7473 64.9044 72.1767 64.9044H77.0902C78.5308 64.9044 79.6921 63.7319 79.6921 62.3025C79.6921 61.0853 78.8546 60.0579 77.7267 59.7787C78.3521 58.1372 77.213 56.3616 75.471 56.2499V47.1376C76.2862 46.8585 76.9227 46.2219 77.1907 45.4067C77.2577 45.4179 78.0282 45.3286 78.7094 45.8981C79.5581 46.6128 81.1885 47.7295 83.5001 48.1203V48.2878L81.0322 54.184C80.9652 54.1952 80.4403 54.1059 80.0271 54.5414C79.6698 54.9211 79.7145 55.3901 79.7145 55.3789C79.7145 56.8976 80.4292 57.9138 81.49 58.4275C81.9367 58.6397 82.2717 59.1422 83.0981 59.1422H85.6553C86.4482 59.1422 86.7274 58.7067 87.2857 58.4164C88.5364 57.8245 88.9943 56.7301 89.0501 55.3789C89.0725 54.7201 88.5588 54.1729 87.8999 54.1729ZM63.5892 57.3778L63.6116 57.4002C63.6004 57.389 63.5892 57.3778 63.5892 57.3778ZM66.1577 57.3778C66.1465 57.3778 66.1465 57.3778 66.1577 57.3778C62.3944 57.3667 64.2369 57.523 62.7294 56.8195C62.3609 56.652 62.104 56.3169 62.0258 55.9261H67.721C67.5535 56.7636 66.8947 56.7413 66.1577 57.3778ZM66.314 54.1729H63.4217L64.8623 50.7223L66.314 54.1729ZM77.9389 62.3137C77.9389 62.7827 77.5592 63.1624 77.0902 63.1624H72.1767C71.7077 63.1624 71.328 62.7827 71.328 62.3137C71.328 61.8446 71.7077 61.465 72.1767 61.465C73.9969 61.465 75.4487 61.465 77.0902 61.465C77.5592 61.4538 77.9389 61.8335 77.9389 62.3137ZM76.1522 58.8519C76.1522 59.3209 75.7725 59.7006 75.3035 59.7006H73.8964C73.4274 59.7006 73.0477 59.3209 73.0477 58.8519C73.0477 58.3829 73.4274 58.0032 73.8964 58.0032H75.3035C75.7613 57.992 76.1522 58.3829 76.1522 58.8519ZM74.5888 45.5296C74.0416 45.5296 73.6061 45.0829 73.6061 44.5469C73.6061 43.9997 74.0528 43.5642 74.5888 43.5642C75.1248 43.5642 75.5715 44.0109 75.5715 44.5469C75.5827 45.0829 75.136 45.5296 74.5888 45.5296ZM84.3823 50.7223L85.8229 54.1729H82.9306L84.3823 50.7223ZM83.0981 57.3778C83.1316 57.4113 83.1204 57.4002 83.1204 57.4002C83.1204 57.4002 83.1093 57.389 83.0981 57.3778ZM85.6665 57.3778C85.6665 57.3778 85.6553 57.3778 85.6665 57.3778C82.3499 57.3667 83.4666 57.523 82.4951 56.9535C82.0707 56.719 81.6575 56.5403 81.5347 55.9261H87.2299C87.0624 56.7636 86.37 56.7636 85.6665 57.3778Z" fill="#F9BA21"/>
<path d="M77.0905 64.9713H72.177C70.7141 64.9713 69.5193 63.7765 69.5193 62.3136C69.5193 61.1522 70.2898 60.1137 71.3953 59.7675C71.105 58.9858 71.1943 58.1371 71.6522 57.4336C72.0989 56.7189 72.8359 56.2722 73.6734 56.2052V47.1822C72.8805 46.903 72.244 46.2665 71.9649 45.4625C71.2502 45.4513 70.7811 45.7193 70.5243 45.9427C69.7649 46.5904 68.1345 47.7406 65.823 48.1538V48.2766L68.2686 54.1281H68.4137C68.7376 54.1281 69.0502 54.2621 69.2736 54.4855C69.4969 54.72 69.6198 55.0327 69.6198 55.3677C69.5528 56.8976 68.9721 57.9138 67.8219 58.461C67.6097 58.5726 67.565 58.595 67.3305 58.7848C67.2523 58.8518 66.8057 59.1868 66.1803 59.1868H63.6231C63.02 59.1868 62.6739 58.93 62.3612 58.7066C62.2383 58.6173 62.1155 58.528 61.9927 58.461C61.0658 58.0143 60.4293 57.1879 60.2618 56.194C60.1501 55.5017 60.0719 54.9433 60.5074 54.4855C60.876 54.0946 61.3226 54.117 61.4901 54.117C61.5013 54.117 61.5013 54.117 61.5125 54.117L63.9469 48.2989C63.4667 48.2543 63.1094 47.8634 63.1094 47.3721C63.1094 46.8807 63.4779 46.4787 63.9692 46.4452V46.1549C63.9692 45.6412 64.3824 45.2168 64.9073 45.2168C65.4209 45.2168 65.8453 45.63 65.8453 46.1549V46.2442C67.4534 45.898 68.6371 45.1052 69.3406 44.5133C69.8543 44.0778 70.7253 43.5641 71.9872 43.5864C71.9984 43.5864 71.9984 43.5864 72.0095 43.5864C72.2887 42.8047 72.9252 42.1794 73.7069 41.9002V41.3865C73.7069 40.8728 74.1201 40.4485 74.6449 40.4485C75.1698 40.4485 75.583 40.8617 75.583 41.3865V41.9002C76.3647 42.1794 77.0012 42.8047 77.2804 43.5864H77.392C78.7098 43.5864 79.3798 44.0889 80.1503 44.6696C80.9097 45.2503 81.7807 45.898 83.5004 46.2554V46.1437C83.5004 45.63 83.9136 45.2057 84.4385 45.2057C84.9633 45.2057 85.3765 45.6188 85.3765 46.1437V46.4229C85.4547 46.4229 85.5328 46.4229 85.611 46.4117C86.1247 46.3894 86.5602 46.7914 86.5825 47.3051C86.6049 47.8187 86.2029 48.2543 85.6892 48.2766C85.5887 48.2766 85.4882 48.2878 85.3877 48.2878L87.8221 54.0946H87.9673C88.2911 54.0946 88.6038 54.2286 88.8271 54.4631C89.0505 54.6977 89.1733 55.0103 89.1621 55.3453C89.1063 56.8752 88.5144 57.8803 87.3754 58.4386C87.2079 58.528 87.0739 58.6285 86.9287 58.7178C86.6049 58.9523 86.2922 59.1645 85.7227 59.1645H83.1654C82.5736 59.1645 82.2274 58.9076 81.9147 58.6843C81.7807 58.5838 81.6579 58.4945 81.535 58.4386C80.3625 57.8691 79.726 56.7747 79.726 55.3342C79.7148 55.2225 79.726 54.7982 80.061 54.4631C80.4295 54.0723 80.8762 54.0946 81.0437 54.0946C81.0548 54.0946 81.0548 54.0946 81.066 54.0946L83.5116 48.2431V48.1426C81.1553 47.7406 79.5138 46.5792 78.7321 45.9203C78.3412 45.5853 77.8611 45.429 77.3027 45.4402H77.2915C77.0124 46.233 76.3758 46.8695 75.583 47.1599V56.1829C76.4093 56.2499 77.1464 56.6966 77.5931 57.4001C78.0397 58.1036 78.1402 58.9523 77.8611 59.7228C79.0113 60.0467 79.8041 61.0852 79.8041 62.2913C79.7483 63.7765 78.5534 64.9713 77.0905 64.9713ZM72.0319 45.3397L72.043 45.3843C72.311 46.1772 72.9364 46.8137 73.7292 47.0817L73.7627 47.0929V56.2945H73.7069C72.8917 56.3504 72.1659 56.7859 71.7303 57.4783C71.2948 58.1706 71.2055 59.0081 71.507 59.7675L71.5293 59.8233L71.4735 59.8457C70.3791 60.1583 69.6198 61.1634 69.6198 62.3024C69.6198 63.7095 70.7588 64.8485 72.1659 64.8485H77.0794C78.4864 64.8485 79.6255 63.7095 79.6255 62.3024C79.6255 61.1299 78.8326 60.1137 77.7047 59.8345L77.6489 59.8233L77.6712 59.7675C77.9616 59.0081 77.8834 58.1706 77.4367 57.4894C76.99 56.7971 76.2753 56.3727 75.4601 56.3169H75.4043V47.1152L75.4378 47.1041C76.2307 46.836 76.8672 46.1995 77.124 45.4067L77.1352 45.362L77.1799 45.3732C77.191 45.3732 77.2022 45.3732 77.2245 45.3732C77.8164 45.362 78.3189 45.5295 78.7209 45.8868C79.4915 46.5457 81.1442 47.7071 83.4893 48.0979L83.5339 48.1091V48.3436L81.0548 54.2621H81.0213C81.0102 54.2621 80.9878 54.2621 80.9543 54.2621C80.798 54.2621 80.3848 54.251 80.0498 54.5971C79.7148 54.9433 79.7483 55.3788 79.7483 55.39L79.7036 55.4012H79.7483C79.7483 56.7859 80.3736 57.8579 81.5015 58.4051C81.6467 58.4721 81.7695 58.5615 81.9035 58.662C82.205 58.8853 82.5289 59.1198 83.0872 59.1198H85.6445C86.1805 59.1198 86.482 58.9076 86.7835 58.6843C86.9287 58.5838 87.0739 58.4833 87.2414 58.3939C88.3469 57.8691 88.9165 56.8864 88.9723 55.4012C88.9835 55.0997 88.8718 54.8205 88.6708 54.6083C88.4586 54.3961 88.1906 54.2733 87.8891 54.2733H87.6769L85.1867 48.3213V48.2319H85.2425C85.3653 48.2319 85.4882 48.2319 85.611 48.2208C86.0689 48.1984 86.415 47.8187 86.3927 47.3609C86.3704 46.9142 85.9907 46.5569 85.5328 46.5792C85.4323 46.5792 85.3318 46.5792 85.2425 46.5904H85.1867V46.1995C85.1867 45.7417 84.8181 45.3732 84.3603 45.3732C83.9024 45.3732 83.5339 45.7417 83.5339 46.1995V46.4452L83.4669 46.434C81.669 46.0767 80.7868 45.4067 79.994 44.8148C79.2346 44.2453 78.5869 43.7539 77.3027 43.7539H77.1464L77.1352 43.7204C76.8672 42.9387 76.2418 42.3134 75.4601 42.0565L75.4266 42.0454V41.4424C75.4266 40.9845 75.0581 40.616 74.6003 40.616C74.1424 40.616 73.7739 40.9845 73.7739 41.4424V42.0454L73.7404 42.0565C72.9587 42.3246 72.3334 42.9499 72.0654 43.7204L72.0542 43.7539H72.0207C72.0095 43.7539 71.9872 43.7539 71.9537 43.7539C70.7253 43.7428 69.8766 44.2341 69.3853 44.6585C68.6594 45.2727 67.4422 46.0879 65.7783 46.434L65.7113 46.4452V46.2107C65.7113 45.7528 65.3428 45.3843 64.8849 45.3843C64.4271 45.3843 64.0586 45.7528 64.0586 46.2107V46.6015H64.0027C63.5561 46.6127 63.1987 46.97 63.1987 47.4167C63.1987 47.8634 63.5449 48.2208 64.0027 48.2319H64.0586V48.3324L61.5795 54.251H61.546C61.5348 54.251 61.5125 54.251 61.479 54.251C61.3226 54.251 60.9095 54.2398 60.5744 54.586C60.1724 55.0103 60.2506 55.5017 60.3511 56.194C60.5074 57.1544 61.1216 57.9473 62.015 58.3828C62.149 58.4498 62.2718 58.5391 62.4058 58.6396C62.6962 58.8518 63.0312 59.0975 63.6007 59.0975H66.158C66.7498 59.0975 67.163 58.7848 67.2412 58.7178C67.4869 58.5168 67.5427 58.4833 67.7549 58.3716C68.8604 57.8468 69.4188 56.8641 69.4858 55.3788C69.4969 55.0662 69.3853 54.787 69.1731 54.5748C68.9721 54.3626 68.6929 54.251 68.3914 54.251H68.1792L65.689 48.2989V48.0756L65.7336 48.0644C68.0452 47.6624 69.6644 46.5122 70.4238 45.8757C70.703 45.6412 71.1943 45.362 71.9425 45.362C71.9648 45.362 71.976 45.362 71.976 45.362L72.0319 45.3397ZM77.0905 63.2181H72.177C71.6745 63.2181 71.2725 62.8161 71.2725 62.3136C71.2725 61.8111 71.6745 61.4091 72.177 61.4091H77.0905C77.5931 61.4091 77.9951 61.8111 77.9951 62.3136C77.9951 62.8161 77.5931 63.2181 77.0905 63.2181ZM72.177 61.5096C71.7415 61.5096 71.3842 61.8669 71.3842 62.3024C71.3842 62.7379 71.7415 63.0953 72.177 63.0953H77.0905C77.526 63.0953 77.8834 62.7379 77.8834 62.3024C77.8834 61.8669 77.526 61.5096 77.0905 61.5096H72.177ZM75.2926 59.7563H73.8856C73.3831 59.7563 72.9811 59.3543 72.9811 58.8518C72.9811 58.3493 73.3831 57.9473 73.8856 57.9473H75.2926C75.7952 57.9473 76.1972 58.3493 76.1972 58.8518C76.2083 59.3543 75.7952 59.7563 75.2926 59.7563ZM73.8968 58.0478C73.4612 58.0478 73.1039 58.4051 73.1039 58.8406C73.1039 59.2761 73.4612 59.6335 73.8968 59.6335H75.3038C75.7393 59.6335 76.0967 59.2761 76.0967 58.8406C76.0967 58.4051 75.7393 58.0478 75.3038 58.0478H73.8968ZM83.1431 57.4894L83.0537 57.4112L83.0426 57.4001L83.0537 57.3889C82.9867 57.3666 82.9421 57.3219 82.8639 57.2661C82.7857 57.1991 82.6741 57.1097 82.4731 56.9981L82.3949 56.9534C81.9929 56.7301 81.602 56.5291 81.4792 55.926L81.468 55.859H87.2972L87.2861 55.926C87.1744 56.5067 86.817 56.7077 86.3927 56.9422C86.1805 57.0651 85.946 57.1991 85.7003 57.4001L85.6892 57.4224L85.6333 57.4112C84.9075 57.4112 84.405 57.4112 84.0253 57.4224C83.5451 57.4336 83.3106 57.4336 83.1654 57.4112L83.1431 57.4894ZM81.602 55.9819C81.7249 56.4732 82.0599 56.6519 82.4396 56.8641L82.5177 56.9087C82.7299 57.0316 82.8416 57.1209 82.9309 57.1879C83.1207 57.3442 83.1207 57.3442 84.0253 57.3331C84.405 57.3331 84.9075 57.3219 85.6445 57.3219C85.8902 57.1209 86.1247 56.9869 86.3369 56.8641C86.7277 56.6407 87.0404 56.462 87.1521 55.9819H81.602ZM66.1468 57.4559L66.1245 57.4336C65.3874 57.4336 64.8738 57.4336 64.4941 57.4447C63.9581 57.4447 63.7236 57.4559 63.5896 57.4224L63.5784 57.4336L63.5672 57.4447L63.5225 57.4001C63.4667 57.3777 63.4332 57.3442 63.3774 57.2996C63.288 57.2214 63.1429 57.0874 62.6962 56.8752C62.3165 56.6966 62.0373 56.3504 61.9592 55.9372L61.948 55.8702H67.7772L67.766 55.9372C67.6544 56.5067 67.3194 56.6966 66.9062 56.9422C66.694 57.0651 66.4483 57.2102 66.1915 57.4224L66.1468 57.4559ZM62.0932 55.9819C62.1825 56.328 62.4282 56.6184 62.752 56.7747C63.221 56.9981 63.3774 57.1321 63.4667 57.2214C63.5896 57.3442 63.5896 57.3442 64.4941 57.3331C64.8738 57.3331 65.3986 57.3219 66.1356 57.3219C66.3925 57.1097 66.6382 56.9646 66.8503 56.8417C67.2412 56.6184 67.5315 56.4509 67.6432 55.9819H62.0932ZM85.9125 54.2286H82.8527L84.3826 50.577L85.9125 54.2286ZM83.0202 54.117H85.745L84.3826 50.8674L83.0202 54.117ZM66.4037 54.2286H63.3439L64.8738 50.5882L66.4037 54.2286ZM63.5114 54.117H66.2361L64.8738 50.8674L63.5114 54.117ZM74.5891 45.5853C74.0196 45.5853 73.5506 45.1163 73.5506 44.5468C73.5506 43.9773 74.0196 43.5083 74.5891 43.5083C75.1586 43.5083 75.6276 43.9773 75.6276 44.5468C75.6276 45.1163 75.1698 45.5853 74.5891 45.5853ZM74.5891 43.6088C74.0754 43.6088 73.6622 44.0219 73.6622 44.5356C73.6622 45.0493 74.0754 45.4625 74.5891 45.4625C75.1028 45.4625 75.516 45.0493 75.516 44.5356C75.5271 44.0219 75.1028 43.6088 74.5891 43.6088Z" fill="#F9BA21"/>
<path d="M82.8524 68.6453H66.3251C65.845 68.6453 65.4429 69.0361 65.4429 69.5275C65.4429 70.0076 65.8338 70.4097 66.3251 70.4097H82.8524C83.3326 70.4097 83.7346 70.0188 83.7346 69.5275C83.7346 69.0361 83.3438 68.6453 82.8524 68.6453Z" fill="#383B45"/>
<path d="M82.8524 70.5212H66.3252C65.778 70.5212 65.3313 70.0745 65.3313 69.5273C65.3313 68.9801 65.778 68.5334 66.3252 68.5334H82.8524C83.3996 68.5334 83.8463 68.9801 83.8463 69.5273C83.8463 70.0745 83.3996 70.5212 82.8524 70.5212ZM66.3363 68.768C65.9231 68.768 65.577 69.103 65.577 69.5273C65.577 69.9517 65.912 70.2867 66.3363 70.2867H82.8636C83.2768 70.2867 83.6229 69.9517 83.6229 69.5273C83.6229 69.103 83.2879 68.768 82.8636 68.768H66.3363Z" fill="#383B45"/>
<path d="M82.8524 72.3303H66.3251C65.845 72.3303 65.4429 72.7212 65.4429 73.2125C65.4429 73.6927 65.8338 74.0947 66.3251 74.0947H82.8524C83.3326 74.0947 83.7346 73.7039 83.7346 73.2125C83.7346 72.7212 83.3438 72.3303 82.8524 72.3303Z" fill="#383B45"/>
<path d="M82.8524 74.2065H66.3252C65.778 74.2065 65.3313 73.7598 65.3313 73.2126C65.3313 72.6654 65.778 72.2188 66.3252 72.2188H82.8524C83.3996 72.2188 83.8463 72.6654 83.8463 73.2126C83.8463 73.7598 83.3996 74.2065 82.8524 74.2065ZM66.3363 72.4533C65.9231 72.4533 65.577 72.7883 65.577 73.2126C65.577 73.637 65.912 73.972 66.3363 73.972H82.8636C83.2768 73.972 83.6229 73.637 83.6229 73.2126C83.6229 72.7883 83.2879 72.4533 82.8636 72.4533H66.3363Z" fill="#383B45"/>
<path d="M82.8524 76.0156H66.3251C65.845 76.0156 65.4429 76.4065 65.4429 76.8978C65.4429 77.3892 65.8338 77.78 66.3251 77.78H82.8524C83.3326 77.78 83.7346 77.3892 83.7346 76.8978C83.7346 76.4065 83.3438 76.0156 82.8524 76.0156Z" fill="#383B45"/>
<path d="M82.8524 77.8915H66.3252C65.778 77.8915 65.3313 77.4449 65.3313 76.8977C65.3313 76.3505 65.778 75.9038 66.3252 75.9038H82.8524C83.3996 75.9038 83.8463 76.3505 83.8463 76.8977C83.8463 77.4449 83.3996 77.8915 82.8524 77.8915ZM66.3363 76.1383C65.9231 76.1383 65.577 76.4733 65.577 76.8977C65.577 77.322 65.912 77.657 66.3363 77.657H82.8636C83.2768 77.657 83.6229 77.322 83.6229 76.8977C83.6229 76.4733 83.2879 76.1383 82.8636 76.1383H66.3363Z" fill="#383B45"/>
<path d="M97.9949 75.7249C98.4751 75.7249 98.8771 75.3341 98.8771 74.8427V36.0483C98.8771 34.4291 97.5594 33.1226 95.9514 33.1226C94.053 33.1226 55.0576 33.1226 53.1369 33.1226C50.3451 33.1226 48.1228 35.423 48.1228 38.0807C48.1228 41.0623 48.1228 85.1499 48.1228 88.0198C48.1228 90.6888 50.4233 92.9892 53.1257 92.9892H74.3766C74.8568 92.9892 75.2588 92.5983 75.2588 92.107C75.2588 91.6268 74.868 91.2248 74.3766 91.2248C74.3654 91.2248 53.148 91.2025 53.1257 91.2025C50.5684 91.2025 48.871 88.2767 50.5349 86.0991C51.0933 85.3621 51.9643 84.8707 52.9582 84.8149C53.1034 84.8037 56.42 84.8149 56.4311 84.8149V88.4554C56.4311 89.4269 57.5032 90.0076 58.3184 89.4939L60.3173 88.2208L62.2827 89.4716C63.1202 89.9964 64.2034 89.4046 64.2034 88.4219V84.8149H92.6906V91.2248H85.1193C84.6391 91.2248 84.2371 91.6156 84.2371 92.107C84.2371 92.5983 84.628 92.9892 85.1193 92.9892C86.37 92.9892 94.3768 92.9892 95.7392 92.9892C97.4589 92.9892 98.866 91.5933 98.866 89.8624C98.866 88.5335 98.866 79.879 98.866 78.9298C98.866 78.4497 98.4751 78.0476 97.9838 78.0476C97.5036 78.0476 97.1016 78.4385 97.1016 78.9298V81.6993C97.1016 82.3135 96.6996 82.8272 96.1412 83.0058C95.8062 83.1063 55.0688 83.0728 54.2759 83.0728V44.0774C54.2759 43.5973 53.8851 43.1952 53.3937 43.1952C52.9024 43.1952 52.5115 43.5861 52.5115 44.0774V83.1063C51.5065 83.2292 50.5796 83.6535 49.8537 84.2789C49.9766 37.031 49.5299 37.7904 50.3451 36.4392C50.8253 35.6575 51.6181 35.088 52.5338 34.9205V39.9791C52.5338 40.4593 52.9247 40.8613 53.416 40.8613C53.9074 40.8613 54.2982 40.4705 54.2982 39.9791V34.8758H95.9514C96.5991 34.8758 97.1239 35.4006 97.1239 36.0483V74.8427C97.1127 75.3341 97.5036 75.7249 97.9949 75.7249ZM94.4438 84.8261C95.3595 84.7591 96.13 84.9936 97.1127 84.5134V89.8736C97.1127 90.6329 96.4986 91.2471 95.7392 91.2471H94.4327L94.4438 84.8261ZM58.1844 84.8261H62.4502V87.5062C61.2888 86.8361 61.0096 86.4229 60.3173 86.4229C59.6249 86.4229 59.3457 86.825 58.1844 87.5062V84.8261Z" fill="#383B45"/>
<path d="M74.3766 93.1123H53.1257C50.3451 93.1123 48 90.7895 48 88.0201V38.081C48 35.3227 50.3451 33 53.1257 33H95.9402C96.7554 33 97.5148 33.3127 98.0955 33.8934C98.6762 34.4741 98.9888 35.2334 98.9888 36.0486V74.843C98.9888 75.3902 98.5422 75.8368 97.995 75.8368C97.4478 75.8368 97.0011 75.3902 97.0011 74.843V36.0486C97.0011 35.4679 96.5321 34.9877 95.9402 34.9877H54.4099V39.9794C54.4099 40.5266 53.9632 40.9733 53.416 40.9733C52.8688 40.9733 52.4222 40.5266 52.4222 39.9794V35.0659C51.607 35.2557 50.9034 35.7694 50.4568 36.4953C49.9431 37.3328 49.9431 37.3328 49.9877 49.9293C50.0101 56.9087 50.0436 67.4504 50.0101 84.0335C50.7136 83.4863 51.5511 83.1289 52.4333 83.0061V44.0777C52.4333 43.5305 52.88 43.0839 53.4272 43.0839C53.9744 43.0839 54.4211 43.5305 54.4211 44.0777V82.9503C65.175 82.9614 95.4377 82.9726 96.1412 82.8944C96.6661 82.7269 97.0123 82.2467 97.0123 81.7107V78.9413C97.0123 78.3941 97.4589 77.9474 98.0061 77.9474C98.5533 77.9474 99 78.3941 99 78.9413V89.8738C99 91.6606 97.5483 93.1123 95.7616 93.1123H85.1417C84.5945 93.1123 84.1478 92.6656 84.1478 92.1184C84.1478 91.5712 84.5945 91.1246 85.1417 91.1246H92.5901V84.9492H64.3263V88.4333C64.3263 88.9358 64.0582 89.3825 63.6227 89.6282C63.176 89.8738 62.6624 89.8515 62.2268 89.5835L60.3284 88.3775L58.3965 89.6058C57.9722 89.8738 57.4585 89.885 57.023 89.6505C56.5875 89.4048 56.3195 88.9693 56.3195 88.4668V84.9492C54.8119 84.9492 53.0698 84.9492 52.9693 84.9492C52.0536 84.9938 51.2049 85.4517 50.6354 86.1887C49.9207 87.1267 49.7979 88.3105 50.3116 89.3378C50.8476 90.421 51.9308 91.1022 53.1257 91.1022C53.1369 91.1022 61.7913 91.1134 69.4631 91.1134C75.5492 91.1134 74.3654 91.1246 74.3766 91.1246C74.9238 91.1246 75.3705 91.5712 75.3705 92.1184C75.3705 92.6656 74.9238 93.1123 74.3766 93.1123ZM53.1257 33.2345C50.4791 33.2345 48.2345 35.4568 48.2345 38.081V88.0201C48.2345 90.6555 50.4679 92.8778 53.1257 92.8778H74.3766C74.7898 92.8778 75.136 92.5428 75.136 92.1184C75.136 91.6941 74.801 91.3591 74.3766 91.3591C74.3766 91.3591 75.5492 91.3591 69.4631 91.3479C61.8025 91.3367 53.148 91.3367 53.1257 91.3367C51.8303 91.3367 50.6689 90.6109 50.0994 89.4495C49.5411 88.3328 49.6751 87.0597 50.4456 86.0435C51.0486 85.2507 51.9643 84.7705 52.9582 84.7147C53.0922 84.7035 55.8728 84.7147 56.42 84.7147H56.554V88.4668C56.554 88.88 56.7661 89.2373 57.1347 89.4383C57.492 89.6393 57.9164 89.6282 58.2625 89.4048L60.3284 88.0983L62.3609 89.3937C62.7182 89.617 63.1425 89.6282 63.5111 89.4272C63.8796 89.2262 64.0917 88.8576 64.0917 88.4333V84.7035H92.8134V91.3591H85.1305C84.7173 91.3591 84.3711 91.6941 84.3711 92.1184C84.3711 92.5428 84.7062 92.8778 85.1305 92.8778H95.7504C97.4031 92.8778 98.7543 91.5266 98.7543 89.8738V78.9413C98.7543 78.5281 98.4193 78.1819 97.995 78.1819C97.5706 78.1819 97.2356 78.5169 97.2356 78.9413V81.7107C97.2356 82.3584 96.8113 82.9279 96.1971 83.1289C95.8397 83.2406 55.9956 83.1959 54.2982 83.1959H54.1754V44.0777C54.1754 43.6645 53.8404 43.3184 53.416 43.3184C52.9917 43.3184 52.6567 43.6534 52.6567 44.0777V83.2071L52.5562 83.2183C51.5958 83.3299 50.7024 83.732 49.9654 84.3685L49.7644 84.536V84.2792C49.7979 67.5621 49.7644 56.9533 49.7532 49.9293C49.6974 37.277 49.6974 37.277 50.2446 36.3836C50.7471 35.5573 51.5735 34.9877 52.5115 34.8091L52.6567 34.7867V39.9906C52.6567 40.4038 52.9917 40.7499 53.416 40.7499C53.8404 40.7499 54.1754 40.4149 54.1754 39.9906V34.7532H95.9402C96.6549 34.7532 97.2356 35.3339 97.2356 36.0486V74.843C97.2356 75.2562 97.5706 75.6023 97.995 75.6023C98.4193 75.6023 98.7543 75.2673 98.7543 74.843V36.0486C98.7543 35.3004 98.464 34.5969 97.928 34.0609C97.3919 33.5249 96.6884 33.2345 95.9402 33.2345H53.1257ZM95.7392 91.3591H94.321V84.7147L94.4327 84.7035C94.7007 84.6812 94.9687 84.6923 95.2144 84.7035C95.8174 84.7147 96.3869 84.737 97.0569 84.402L97.2244 84.3126V89.8627C97.2356 90.689 96.5656 91.3591 95.7392 91.3591ZM94.5555 91.1246H95.7392C96.4316 91.1246 96.9899 90.5662 96.9899 89.8738V84.6923C96.3422 84.9715 95.7616 84.9492 95.2032 84.938C94.991 84.9268 94.7788 84.9268 94.5555 84.938V91.1246ZM62.5619 87.7186L62.3832 87.6181C62.0147 87.4059 61.7243 87.2049 61.4898 87.0597C61.0096 86.7359 60.7416 86.5572 60.3061 86.5572C59.8706 86.5572 59.6026 86.7359 59.1224 87.0597C58.8879 87.2161 58.6087 87.4059 58.2402 87.6181L58.0615 87.7186V84.7035H62.5619V87.7186ZM60.3173 86.3116C60.8198 86.3116 61.1325 86.5126 61.635 86.8476C61.8248 86.9704 62.0482 87.1268 62.3273 87.2943V84.938H58.3072V87.2943C58.5864 87.1268 58.8097 86.9704 58.9996 86.8476C59.5021 86.5126 59.8148 86.3116 60.3173 86.3116Z" fill="#383B45"/>
<defs>
<filter id="filter0_d" x="0" y="0" width="147.759" height="147.759" filterUnits="userSpaceOnUse" color-interpolation-filters="sRGB">
<feFlood flood-opacity="0" result="BackgroundImageFix"/>
<feColorMatrix in="SourceAlpha" type="matrix" values="0 0 0 0 0 0 0 0 0 0 0 0 0 0 0 0 0 0 127 0"/>
<feOffset dy="10"/>
<feGaussianBlur stdDeviation="10"/>
<feColorMatrix type="matrix" values="0 0 0 0 0.976471 0 0 0 0 0.72549 0 0 0 0 0.113725 0 0 0 0.4 0"/>
<feBlend mode="normal" in2="BackgroundImageFix" result="effect1_dropShadow"/>
<feBlend mode="normal" in="SourceGraphic" in2="effect1_dropShadow" result="shape"/>
</filter>
</defs>
</svg>
