<svg width="148" height="148" viewBox="0 0 148 148" fill="none" xmlns="http://www.w3.org/2000/svg">
<g filter="url(#filter0_d)">
<circle cx="73.8793" cy="63.8793" r="53.8793" fill="white"/>
</g>
<path d="M77.2599 57.3612C79.1652 58.2203 80.3876 60.1145 80.3987 62.196C80.3987 62.196 80.3987 62.2841 80.3987 62.3172C80.3987 62.3502 80.3987 62.4824 80.3987 62.5705C80.3546 63.2203 80.8392 63.7819 81.489 63.837C81.5 63.837 81.5 63.837 81.5 63.837L96.4669 64.9053H96.555C97.1718 64.9053 97.6894 64.4317 97.7335 63.804V63.6167C97.7335 63.1432 97.8106 62.6806 97.8106 62.185C97.7995 53.2533 92.5903 45.1476 84.4625 41.4471C83.8678 41.1828 83.163 41.4471 82.8987 42.0308L76.6762 55.7753C76.4009 56.3811 76.6652 57.0859 77.2599 57.3612ZM84.5396 44.1234C91.2577 47.6476 95.4758 54.6079 95.4868 62.196C95.4868 62.2952 95.4868 62.3833 95.4868 62.4714L82.7445 61.5573C82.5352 59.2004 81.2577 57.0639 79.2863 55.7753L84.5396 44.1234Z" fill="#F9BA21"/>
<path d="M78.8678 68.7929C78.4713 68.2753 77.7335 68.1762 77.2158 68.5727C75.3216 70.0264 72.6894 70.0264 70.7951 68.5727C70.2775 68.1762 69.5286 68.2753 69.1321 68.7929L59.9802 80.7973C59.5837 81.315 59.6828 82.0639 60.2004 82.4493C68.3282 88.6828 79.6277 88.6828 87.7665 82.4493C88.2841 82.0528 88.3832 81.315 87.9978 80.7973L78.8678 68.7929ZM74 84.7621C69.9361 84.7511 65.9603 83.5176 62.6123 81.2158L70.3546 71.0396C72.6233 72.2841 75.3766 72.2841 77.6564 71.0396L85.3987 81.2158C82.0396 83.5176 78.0749 84.7511 74 84.7621Z" fill="#F9BA21"/>
<path d="M67.348 63.4294C67.5573 63.1871 67.6564 62.8787 67.6344 62.5703C67.6344 62.4932 67.6344 62.4051 67.6344 62.306C67.6344 62.2179 67.6344 62.2179 67.6344 62.1849C67.6344 60.1034 68.8679 58.2091 70.7621 57.3501C71.3569 57.0858 71.6212 56.3919 71.3458 55.7862L65.1234 42.0417C64.848 41.447 64.1542 41.1827 63.5595 41.458C55.4097 45.1364 50.1674 53.2532 50.1454 62.1959C50.1454 62.6805 50.1454 63.154 50.2115 63.6276V63.8148C50.2555 64.4316 50.7731 64.9162 51.4009 64.9162H51.5331L66.5881 63.8479C66.8855 63.8038 67.1608 63.6606 67.348 63.4294ZM52.5132 62.4712C52.5132 62.3831 52.5132 62.284 52.5132 62.1959C52.5242 54.6078 56.7423 47.6584 63.4604 44.1232L68.7247 55.7752C66.7423 57.0637 65.4648 59.2003 65.2555 61.5571L52.5132 62.4712Z" fill="#F9BA21"/>
<path d="M69.0661 62.9891C69.0661 65.7094 71.2687 67.923 74 67.923C76.7313 67.923 78.9339 65.7204 78.9339 62.9891C78.9339 60.2688 76.7313 58.0552 74 58.0552C71.2797 58.0662 69.0771 60.2688 69.0661 62.9891ZM74 60.423C75.4207 60.423 76.5661 61.5684 76.5661 62.9891C76.5661 64.4098 75.4207 65.5552 74 65.5552C72.5793 65.5552 71.4339 64.4098 71.4339 62.9891C71.4339 61.5684 72.5903 60.423 74 60.423Z" fill="#F9BA21"/>
<path d="M65.0243 35.2909L64.9802 35.2579C64.793 35.1147 64.5727 35.0376 64.3414 35.0376C64.2974 35.0376 64.2423 35.0376 64.1983 35.0486C63.9229 35.0817 63.6696 35.2358 63.5044 35.4561C63.3392 35.6764 63.2621 35.9517 63.3062 36.238C63.3502 36.5244 63.4934 36.7667 63.7137 36.9319L63.7577 36.9649C63.945 37.1081 64.1652 37.1742 64.3965 37.1742C64.7269 37.1742 65.0353 37.02 65.2335 36.7557C65.5749 36.3041 65.4758 35.6433 65.0243 35.2909Z" fill="#383B45"/>
<path d="M91.046 39.9344L53.3802 83.9492L55.2797 85.5747L92.9455 41.5599L91.046 39.9344Z" fill="#383B45"/>
<path d="M74 33C72.8546 33 71.7313 33.0661 70.6189 33.1872C70.0242 33.2533 69.5837 33.7489 69.5837 34.3436V34.3767C69.5837 35.0705 70.1894 35.6101 70.8943 35.533C71.9185 35.4119 72.9537 35.3568 74.011 35.3568C89.2753 35.3568 101.643 47.7247 101.643 62.989C101.643 78.2533 89.2753 90.6322 74.011 90.6322C58.7467 90.6322 46.3678 78.2533 46.3678 62.989C46.3789 53.1762 51.489 44.5639 59.1982 39.663C59.5396 39.4427 59.7489 39.0683 59.7489 38.6608C59.7489 37.7247 58.7137 37.163 57.9207 37.6586C49.5617 42.989 44 52.3392 44 62.989C44.011 79.5529 57.4361 92.989 74 93C90.5639 93 104 79.5639 104 63C104 46.4361 90.5639 33 74 33Z" fill="#383B45"/>
<defs>
<filter id="filter0_d" x="0" y="0" width="147.759" height="147.759" filterUnits="userSpaceOnUse" color-interpolation-filters="sRGB">
<feFlood flood-opacity="0" result="BackgroundImageFix"/>
<feColorMatrix in="SourceAlpha" type="matrix" values="0 0 0 0 0 0 0 0 0 0 0 0 0 0 0 0 0 0 127 0"/>
<feOffset dy="10"/>
<feGaussianBlur stdDeviation="10"/>
<feColorMatrix type="matrix" values="0 0 0 0 0.976471 0 0 0 0 0.72549 0 0 0 0 0.113725 0 0 0 0.4 0"/>
<feBlend mode="normal" in2="BackgroundImageFix" result="effect1_dropShadow"/>
<feBlend mode="normal" in="SourceGraphic" in2="effect1_dropShadow" result="shape"/>
</filter>
</defs>
</svg>
