<svg width="148" height="148" viewBox="0 0 148 148" fill="none" xmlns="http://www.w3.org/2000/svg">
<g filter="url(#filter0_d)">
<circle cx="73.8793" cy="63.8793" r="53.8793" fill="white"/>
</g>
<path d="M74.5638 61.1865C83.9849 61.1865 91.657 53.5144 91.657 44.0933C91.657 34.6721 83.9849 27 74.5638 27C71.8237 27 69.2119 27.6296 66.7867 28.8656C66.5535 28.9822 66.3786 29.192 66.297 29.4369C66.2153 29.6818 66.2387 29.9499 66.3553 30.1831C66.6001 30.6612 67.1948 30.8594 67.6845 30.6145C69.8299 29.5185 72.1385 28.9588 74.5638 28.9588C82.9005 28.9588 89.6865 35.7448 89.6865 44.0816C89.6865 52.4184 82.9005 59.2044 74.5638 59.2044C66.227 59.2044 59.441 52.4184 59.441 44.0816C59.441 41.7963 59.9424 39.5926 60.9218 37.5405C61.0384 37.3073 61.0501 37.0391 60.9684 36.7942C60.8868 36.5494 60.7003 36.3512 60.4671 36.2346C60.3272 36.1646 60.1872 36.1413 60.0473 36.1413C59.6859 36.1413 59.3244 36.3512 59.1612 36.701C58.0535 39.0213 57.4822 41.5048 57.4822 44.0933C57.4705 53.5144 65.1426 61.1865 74.5638 61.1865Z" fill="#F9BA21"/>
<path d="M64.7112 50.0047L68.3841 53.6776C68.8621 54.1556 69.5034 54.4238 70.1913 54.4238C70.8793 54.4238 71.5206 54.1556 71.9986 53.6776L82.8889 42.7873C83.4369 42.2393 83.705 41.4931 83.6234 40.7235L83.3902 38.4265C83.297 37.4471 82.6557 36.6309 81.7345 36.2811C80.8134 35.943 79.799 36.1412 79.0878 36.8175L70.9259 44.5596C70.6927 44.7811 70.3196 44.7695 70.0981 44.5363C69.62 44.0349 68.9437 43.7434 68.2442 43.7434H68.2325C67.5329 43.7551 66.8566 44.0466 66.3786 44.5713L64.6413 46.4718C63.7085 47.4745 63.7435 49.037 64.7112 50.0047ZM66.0871 47.801L67.8127 45.9238C67.9293 45.8072 68.0809 45.7372 68.2442 45.7372C68.4074 45.7372 68.559 45.8072 68.6756 45.9238C69.6433 46.9382 71.264 46.9848 72.2784 46.0171L80.4403 38.275C80.6035 38.1117 80.8367 38.0651 81.0466 38.1467C81.2681 38.2283 81.4081 38.4032 81.4314 38.6364L81.6646 40.9334C81.6879 41.1083 81.6179 41.2832 81.5013 41.4114L70.6111 52.3017C70.4945 52.4183 70.3546 52.4766 70.1913 52.4766C70.0398 52.4766 69.8882 52.4183 69.7716 52.3017L66.0987 48.6289C65.8772 48.3957 65.8772 48.0342 66.0871 47.801Z" fill="#F9BA21"/>
<path d="M62.7057 33.8794L62.7407 33.9143C62.9156 34.0426 63.1138 34.1126 63.3354 34.1126C63.6502 34.1126 63.93 33.9726 64.1166 33.7278C64.2798 33.5179 64.3381 33.2614 64.3031 33.0049C64.2682 32.7484 64.1282 32.5152 63.9184 32.3519L63.8834 32.317C63.6735 32.1537 63.417 32.0838 63.1605 32.1304C62.904 32.1654 62.6708 32.3053 62.5075 32.5152C62.3443 32.725 62.286 32.9816 62.321 33.2381C62.356 33.4829 62.4959 33.7161 62.7057 33.8794Z" fill="#F9BA21"/>
<path d="M100.449 83.5851C99.6557 82.3491 98.4197 81.5096 96.9856 81.2181L96.5658 81.1365L96.7524 80.7518C97.0322 80.1804 97.1838 79.5625 97.1838 78.9212V76.2394C97.1838 76.2278 97.1838 76.2044 97.1838 76.1928V76.1695C97.1838 76.1461 97.1838 76.1345 97.1838 76.1228C97.1838 76.1112 97.1838 76.0878 97.1838 76.0762V76.0295C97.1838 76.0179 97.1838 76.0062 97.1838 76.0062C97.0788 73.8258 95.2249 72.0535 93.0562 72.0535H92.788C92.31 72.0535 91.8552 72.1352 91.4005 72.2867L90.8175 72.4966L90.9691 71.902C91.0507 71.5755 91.0974 71.2374 91.0974 70.8992L91.109 68.2175V68.1475C91.109 68.1359 91.109 68.1242 91.109 68.1125C91.109 68.1009 91.109 68.0776 91.109 68.0542V67.9959C91.0157 65.8156 89.1618 64.0433 86.9931 64.0316H86.7133C84.4979 64.0316 82.679 65.7689 82.5857 67.9726V67.9959C82.5857 68.0426 82.5857 68.1009 82.5857 68.1475C82.5857 68.1592 82.5857 68.1708 82.5857 68.1825L82.574 70.8642C82.574 71.5055 82.714 72.1118 82.9821 72.6832L83.1687 73.0796L82.7373 73.1612C81.513 73.3828 80.4053 74.0357 79.6008 74.9918L79.4842 75.1317L79.2976 75.1084C79.2743 75.1084 79.2627 75.0968 79.2393 75.0968L79.1927 75.0851L78.703 75.0151L78.9595 74.5837C79.4142 73.8142 79.6591 72.9397 79.6591 72.0535V68.7072C79.6591 68.6839 79.6591 68.6722 79.6591 68.6489V68.6256C79.6591 68.6022 79.6591 68.5906 79.6591 68.5789C79.6591 68.5439 79.6591 68.5206 79.6591 68.509V68.439C79.5425 65.8622 77.3388 63.7634 74.762 63.7634H74.4005C71.6955 63.7634 69.4918 65.9671 69.4918 68.6722C69.4918 68.6839 69.4918 68.6955 69.4918 68.7072V72.0535C69.4918 72.9397 69.7366 73.8142 70.1797 74.5721L70.4362 75.0035L69.9348 75.0618C69.8998 75.0618 69.8532 75.0734 69.8182 75.0734L69.585 75.1084L69.4684 74.9685C68.6639 74.0124 67.5446 73.3711 66.3319 73.1496L65.9005 73.0679L66.0871 72.6715C66.3553 72.1118 66.4952 71.5055 66.4952 70.8759L66.5068 68.1942C66.5068 68.1708 66.5068 68.1475 66.5068 68.1242V68.1009V68.0776C66.5068 68.0659 66.5068 68.0542 66.5068 68.0309V67.961C66.4136 65.7806 64.5597 64.0083 62.3909 63.9966H62.1111C61.0151 63.9966 59.9774 64.428 59.1961 65.1976C58.3916 66.0138 57.9602 67.0515 57.9602 68.1592V68.1825L57.9486 70.8759C57.9486 71.214 57.9835 71.5522 58.0651 71.8786L58.2051 72.4616L57.6337 72.2751C57.214 72.1352 56.7709 72.0652 56.3278 72.0652H56.0597C53.7743 72.0652 51.9204 73.9191 51.9204 76.2044V76.2278V78.9212C51.9204 79.5625 52.0604 80.1688 52.3402 80.7401L52.5267 81.1249L52.0953 81.2065C50.6262 81.4863 49.3669 82.3258 48.5624 83.5851C47.548 85.1825 47 87.0364 47 88.9369V92.4582C47 93.0062 47.4431 93.4376 47.9794 93.4376C50.5329 93.4376 53.2613 93.4493 55.8964 93.4493H56.1413C58.8464 93.4609 61.633 93.4609 64.3265 93.4609C67.7778 93.4609 70.716 93.4726 73.8292 93.4843H74.2373C77.4204 93.4959 80.7201 93.5076 84.6612 93.5076C84.7661 93.5076 84.871 93.4843 84.976 93.4493L85.0226 93.4376H85.0809C87.3662 93.4376 89.7448 93.4493 92.0418 93.4493C95.12 93.4609 97.93 93.4609 101.02 93.4609C101.556 93.4609 101.999 93.0179 101.999 92.4815V88.9369C102.023 87.0364 101.486 85.1825 100.449 83.5851ZM90.631 75.8313C90.8175 74.7819 91.727 74.024 92.7997 74.024H93.0096C93.6858 74.024 94.3155 74.3272 94.7352 74.8636L95.1083 75.3416L94.5137 75.3999C93.7791 75.4699 93.0679 75.7497 92.3683 76.0179L92.275 76.0529C92.1351 76.1112 91.9835 76.1578 91.8436 76.2161C91.7736 76.2394 91.657 76.2627 91.4821 76.2627C91.3306 76.2627 91.144 76.2511 90.9225 76.2161L90.5843 76.1695L90.631 75.8313ZM95.2133 77.3588V78.9212C95.2133 80.0988 94.2921 81.0666 93.1028 81.1132H93.0912H92.6948C91.5171 81.0666 90.5843 80.0988 90.5843 78.9212V78.1749L90.9458 78.2099C91.1323 78.2332 91.3072 78.2332 91.4588 78.2332C91.8552 78.2332 92.205 78.1749 92.4965 78.07C92.6714 78 92.858 77.9417 93.0212 77.8718L93.0445 77.8601C93.7441 77.592 94.3504 77.3588 94.8402 77.3588C94.8402 77.3588 94.8402 77.3588 94.8518 77.3588H95.2133ZM84.5446 67.7977C84.6262 67.3546 84.836 66.9582 85.1509 66.6434C85.5706 66.2353 86.1186 66.0021 86.7016 66.0021H86.9231C87.5994 66.0021 88.229 66.3169 88.6488 66.8533L89.0219 67.3313L88.4273 67.3896C87.7044 67.4596 86.9814 67.7394 86.2819 67.9959C86.107 68.0659 85.9321 68.1242 85.7572 68.1942L85.7339 68.2058C85.6872 68.2175 85.5823 68.2408 85.3957 68.2408C85.2558 68.2408 85.0692 68.2291 84.8244 68.1942L84.4863 68.1475L84.5446 67.7977ZM89.1152 69.3368V70.8992C89.1152 71.4822 88.882 72.0419 88.4622 72.45C88.0775 72.8348 87.5528 73.0679 87.0048 73.0913H86.9931H86.5967C85.419 73.033 84.4979 72.0652 84.4979 70.8876V70.1413L84.8594 70.1763C85.0576 70.1996 85.2325 70.2113 85.3841 70.2113C85.7805 70.2113 86.1186 70.153 86.4218 70.0481C86.6083 69.9781 86.7949 69.9081 86.9814 69.8382C87.6927 69.57 88.299 69.3368 88.7887 69.3368H89.1152ZM71.4623 68.5206C71.4623 68.4856 71.4623 68.4623 71.4623 68.439C71.4623 68.4273 71.4623 68.4157 71.4623 68.404C71.6255 66.8883 72.8964 65.7456 74.4238 65.7456H74.6804C75.823 65.7456 76.8724 66.4102 77.3621 67.4479L77.5953 67.926L77.059 67.9143C76.0096 67.9027 74.9719 68.2991 73.9691 68.6839C73.7592 68.7655 73.5377 68.8471 73.3045 68.9287C73.1879 68.9754 73.013 68.9987 72.7915 68.9987C72.5 68.9987 72.1385 68.9637 71.7188 68.8821L71.4389 68.8354L71.4623 68.5206ZM77.6653 69.9781V72.0535C77.6653 73.6626 76.406 74.9685 74.8086 75.0268H74.797H74.3189C72.7099 74.9685 71.4623 73.6626 71.4623 72.0535V70.8409L71.8354 70.8876C72.1968 70.9342 72.5116 70.9575 72.7915 70.9575C73.2579 70.9575 73.666 70.8992 74.0041 70.771C74.2023 70.701 74.4005 70.6194 74.5987 70.5494L74.692 70.5145C75.7647 70.1064 76.6858 69.7449 77.4204 69.9198L77.6653 69.9781ZM59.9657 67.7977C60.0473 67.3546 60.2572 66.9582 60.572 66.6434C60.9918 66.2353 61.5398 66.0021 62.1228 66.0021H62.3443C62.4026 66.0021 62.4609 66.0021 62.5309 66.0138H62.5542C63.0672 66.0604 63.5219 66.2819 63.8834 66.6551C63.9417 66.7134 64 66.7717 64.0583 66.8533L64.4314 67.3313L63.8251 67.3896C63.0905 67.4596 62.3793 67.7394 61.6797 67.9959C61.5048 68.0659 61.3299 68.1242 61.155 68.1942H61.1433C61.1084 68.2058 61.0034 68.2291 60.7935 68.2291C60.6536 68.2291 60.4671 68.2175 60.2222 68.1825L59.8841 68.1359L59.9657 67.7977ZM64.5363 69.3368V70.8992C64.5363 71.4822 64.3031 72.0419 63.8834 72.45C63.4986 72.8348 62.9856 73.0563 62.4492 73.0796H62.4376H62.0528H62.0411C61.4815 73.0563 60.9568 72.8348 60.5603 72.4383C60.1406 72.0186 59.9191 71.4706 59.9191 70.8759V70.1297L60.2805 70.1647C60.4787 70.188 60.6536 70.1996 60.8052 70.1996C61.2016 70.1996 61.5398 70.1413 61.8429 70.0364C62.0178 69.9664 62.2044 69.9081 62.3676 69.8382L62.3909 69.8265C63.0905 69.5583 63.6968 69.3252 64.1865 69.3252H64.1982L64.5363 69.3368ZM53.9376 75.8197C54.1241 74.7703 55.0453 74.0124 56.1063 74.0124H56.3162C56.9924 74.0124 57.6221 74.3155 58.0535 74.8636L58.4266 75.3416L57.832 75.3999C57.0974 75.4699 56.3861 75.7497 55.6866 76.0179C55.5117 76.0878 55.3368 76.1578 55.1619 76.2161H55.1502C55.1152 76.2278 55.0103 76.2511 54.8004 76.2511C54.6605 76.2511 54.4739 76.2394 54.2291 76.2044L53.8909 76.1578L53.9376 75.8197ZM58.5082 77.3471V78.9095C58.5082 80.0871 57.5871 81.0549 56.3978 81.1015H56.3861H55.9897C54.8121 81.0549 53.8793 80.0871 53.8793 78.9095V78.1633L54.2407 78.1983C54.4273 78.2216 54.5905 78.2216 54.7538 78.2216C55.1502 78.2216 55.5 78.1633 55.8031 78.0583C55.9897 77.9884 56.1763 77.9184 56.3512 77.8485C57.0624 77.5803 57.6687 77.3354 58.1584 77.3471H58.5082ZM63.3587 91.5021H63.0322C60.7702 91.5021 58.4499 91.4904 56.1996 91.4904H55.9897C54.0192 91.4788 51.5706 91.4788 49.297 91.4788H48.9705V88.9486C48.9705 87.4212 49.4019 85.9404 50.2298 84.6578C50.8594 83.6784 51.9438 83.0837 53.1097 83.0837H55.9431C55.9897 83.0837 56.048 83.0837 56.0946 83.0837H56.3045C56.3395 83.0837 56.3861 83.0837 56.4211 83.0837H56.4561H59.2078C60.3738 83.0837 61.4581 83.6667 62.0878 84.6578C62.9156 85.9404 63.347 87.4212 63.347 88.9486V91.5021H63.3587ZM63.5336 82.4657L63.4287 83.0837L62.9739 82.6406C62.2277 81.9061 61.2949 81.4164 60.2689 81.2181L59.8491 81.1365L60.0357 80.7518C60.3155 80.1804 60.4671 79.5625 60.4671 78.9212V76.2394C60.4671 76.2278 60.4671 76.2044 60.4671 76.1928V76.1695C60.4671 76.1578 60.4671 76.1461 60.4671 76.1345C60.4671 76.1228 60.4671 76.0995 60.4671 76.0762V76.0179C60.4554 75.8313 60.4321 75.6448 60.3971 75.4582L60.3272 75.0734H61.9828H62.0411C62.0645 75.0734 62.0878 75.0734 62.0994 75.0734H62.321C62.3909 75.0734 62.4492 75.0734 62.5192 75.0734H62.5309L65.3175 75.0618C65.9588 75.0618 66.5885 75.2367 67.1248 75.5631L67.5679 75.8313L67.1365 76.1228C66.3902 76.6242 65.7606 77.2538 65.2709 78.0117C64.4081 79.3642 63.8134 80.8684 63.5336 82.4657ZM83.6934 91.5487H83.3669C80.0439 91.5487 77.1756 91.5371 74.3889 91.5254H74.0158C71.2407 91.5138 68.6289 91.5138 65.644 91.5021H65.3175V84.5179C65.3175 82.5707 65.8772 80.6818 66.9266 79.0494C67.4979 78.1633 68.3724 77.4987 69.3752 77.1839L69.3985 77.1722C69.4451 77.1605 69.4801 77.1489 69.5151 77.1372L69.5501 77.1256C69.9232 77.0206 70.3196 76.974 70.7044 76.974H73.5843V81.7428C73.5843 82.2908 74.0274 82.7223 74.5638 82.7223C75.1001 82.7223 75.5432 82.2792 75.5432 81.7428V76.974H78.2949C79.834 76.974 81.2448 77.7435 82.0843 79.0378C83.1337 80.6701 83.6934 82.559 83.6934 84.5062V91.5487ZM85.489 82.4657C85.2092 80.8684 84.6262 79.3642 83.74 78C83.2503 77.2422 82.6323 76.6125 81.8745 76.1112L81.443 75.8313L81.8861 75.5631C82.4225 75.225 83.0521 75.0501 83.6934 75.0501L86.5267 75.0618C86.585 75.0618 86.6433 75.0618 86.69 75.0618H86.9115C86.9581 75.0618 87.0048 75.0618 87.0514 75.0618H87.0631H88.7771L88.7071 75.4465C88.6605 75.7031 88.6371 75.9479 88.6371 76.1928V76.2161V78.9095C88.6371 79.5508 88.7771 80.1571 89.0569 80.7284L89.2435 81.1132L88.812 81.1948C87.7627 81.393 86.8066 81.8944 86.037 82.6406L85.5939 83.0837L85.489 82.4657ZM100.064 91.5021H99.7373C97.2304 91.5021 94.8751 91.4904 92.6015 91.4904H92.0768C90.013 91.4788 87.9959 91.4788 86.002 91.4788H85.6756V88.9486C85.6756 87.4212 86.107 85.9404 86.9348 84.6578C87.5644 83.6784 88.6488 83.0837 89.8148 83.0837H92.6948C92.7297 83.0837 92.7647 83.0837 92.7997 83.0837H93.0096C93.0445 83.0837 93.0795 83.0837 93.1145 83.0837H93.1611H95.9129C97.0788 83.0837 98.1632 83.6667 98.7928 84.6578C99.6207 85.9404 100.052 87.4212 100.052 88.9486V91.5021H100.064Z" fill="#383B45"/>
<path d="M75.0768 86.1852L75.0418 86.1618C74.8669 86.0336 74.657 85.9636 74.4472 85.9636C74.4005 85.9636 74.3539 85.9636 74.3072 85.9753C74.0507 86.0103 73.8175 86.1502 73.6543 86.3601C73.4911 86.5699 73.4328 86.8264 73.4677 87.083C73.5027 87.3395 73.6426 87.5727 73.8525 87.7359L73.8992 87.7709C74.074 87.8991 74.2723 87.9691 74.4938 87.9691C74.8086 87.9691 75.0885 87.8292 75.275 87.5843C75.5898 87.1296 75.5082 86.5116 75.0768 86.1852Z" fill="#383B45"/>
<defs>
<filter id="filter0_d" x="0" y="0" width="147.759" height="147.759" filterUnits="userSpaceOnUse" color-interpolation-filters="sRGB">
<feFlood flood-opacity="0" result="BackgroundImageFix"/>
<feColorMatrix in="SourceAlpha" type="matrix" values="0 0 0 0 0 0 0 0 0 0 0 0 0 0 0 0 0 0 127 0"/>
<feOffset dy="10"/>
<feGaussianBlur stdDeviation="10"/>
<feColorMatrix type="matrix" values="0 0 0 0 0.976471 0 0 0 0 0.72549 0 0 0 0 0.113725 0 0 0 0.4 0"/>
<feBlend mode="normal" in2="BackgroundImageFix" result="effect1_dropShadow"/>
<feBlend mode="normal" in="SourceGraphic" in2="effect1_dropShadow" result="shape"/>
</filter>
</defs>
</svg>
