<svg width="18" height="18" viewBox="0 0 18 18" fill="none" xmlns="http://www.w3.org/2000/svg">
<path d="M13.4322 17.9784C12.2465 17.9268 11.3014 17.6172 10.4422 17.1011C6.48973 14.7272 3.29342 11.5621 0.956336 7.60567C-0.41842 5.26622 -0.160653 3.288 1.42032 1.80864C2.70915 0.621715 3.4309 0.707724 4.32449 2.22149C4.61662 2.72034 5.63051 4.32011 5.78517 4.62975C6.23196 5.55865 6.21478 6.50475 5.33837 7.50246C4.89157 8.01851 5.06342 8.56897 5.47585 9.06783C6.47254 10.2892 7.60672 11.3901 8.79244 12.4394C9.51419 13.0759 10.1672 13.1447 10.8889 12.5426C11.6107 11.9405 12.3153 11.8029 13.037 12.0954C13.2776 12.1986 15.4944 13.5575 16.3536 14.0392C17.1269 14.4692 17.2472 15.0713 16.8176 15.811C16.0099 17.1699 14.8414 17.9096 13.4322 17.9784Z" fill="#F9B91D"/>
</svg>
