<svg width="16" height="14" viewBox="0 0 16 14" fill="none" xmlns="http://www.w3.org/2000/svg">
<path d="M15.7314 6.73293L13.3066 4.30805V1.50691C13.3066 1.00042 12.8961 0.589955 12.3889 0.589955C11.8828 0.589955 11.4724 1.00042 11.4724 1.50691V2.47392L9.66688 0.66834C8.77422 -0.22384 7.22217 -0.222257 6.33154 0.669955L0.268439 6.73293C-0.0894796 7.09156 -0.0894796 7.67184 0.268439 8.02992C0.626519 8.38845 1.20793 8.38845 1.56588 8.02992L7.62841 1.96679C7.8259 1.77032 8.174 1.77032 8.37047 1.96621L14.434 8.02992C14.6138 8.2092 14.8482 8.29838 15.0826 8.29838C15.3174 8.29838 15.5522 8.20911 15.7315 8.02992C16.0895 7.67187 16.0895 7.09159 15.7314 6.73293Z" fill="#F9B91D"/>
<path d="M8.31836 2.70723C8.14221 2.53118 7.85699 2.53118 7.68136 2.70723L2.34824 8.03877C2.26404 8.12294 2.21631 8.23785 2.21631 8.35777V12.2464C2.21631 13.1589 2.95617 13.8987 3.86864 13.8987H6.50907V9.80957H9.49007V13.8987H12.1305C13.043 13.8987 13.7828 13.1589 13.7828 12.2464V8.35777C13.7828 8.23785 13.7355 8.12294 13.6509 8.03877L8.31836 2.70723Z" fill="#F9B91D"/>
</svg>
