<svg width="15" height="16" viewBox="0 0 15 16" fill="none" xmlns="http://www.w3.org/2000/svg">
<path d="M10.3459 8.97266C13.5571 9.85416 15.3516 12.2153 14.9423 15.0487C9.96814 15.0487 5.02542 15.0487 0.0512091 15.0487C-0.326579 12.2153 1.40495 9.88564 4.61615 8.97266C5.15135 10.3264 6.00137 11.3653 7.60697 11.3023C9.05515 11.2394 9.87369 10.3579 10.3459 8.97266Z" fill="#F9B91D"/>
<path d="M3.73462 3.77829C3.73462 1.70046 5.40318 0.0318976 7.48102 0.000415245C9.59033 -0.0310671 11.3219 1.73194 11.2904 3.80978C11.2589 5.85613 9.55885 7.55617 7.5125 7.52469C5.43466 7.52469 3.73462 5.82465 3.73462 3.77829Z" fill="#F9B91D"/>
</svg>
