<svg width="14" height="11" viewBox="0 0 14 11" fill="none" xmlns="http://www.w3.org/2000/svg">
<path d="M12.7497 10.9998C13.0644 10.9998 13.337 10.8959 13.5689 10.6907L9.60248 6.72421C9.50732 6.79236 9.41508 6.85862 9.32795 6.92163C9.03112 7.14032 8.79021 7.31097 8.60523 7.43326C8.42026 7.55582 8.17417 7.68075 7.86698 7.80829C7.55958 7.93599 7.2732 7.99964 7.00754 7.99964H6.99976H6.99198C6.72629 7.99964 6.43991 7.93602 6.13254 7.80829C5.82517 7.68075 5.57907 7.55582 5.39429 7.43326C5.20933 7.31097 4.96855 7.14035 4.67157 6.92163C4.58881 6.86096 4.49703 6.79439 4.3978 6.72314L0.430664 10.6907C0.662446 10.8959 0.935302 10.9998 1.24997 10.9998H12.7497Z" fill="#F9B91D"/>
<path d="M0.789136 4.22664C0.492336 4.02876 0.229138 3.80214 0 3.54688V9.58162L3.49594 6.08567C2.79656 5.5974 1.89543 4.97844 0.789136 4.22664Z" fill="#F9B91D"/>
<path d="M13.2186 4.22664C12.1545 4.94687 11.2501 5.5669 10.5052 6.08707L13.9998 9.58177V3.54688C13.7757 3.79701 13.5154 4.02348 13.2186 4.22664Z" fill="#F9B91D"/>
<path d="M12.7501 0H1.25039C0.849203 0 0.540762 0.135475 0.324688 0.406146C0.108436 0.676943 0.000488281 1.01561 0.000488281 1.42175C0.000488281 1.74981 0.143741 2.10528 0.43012 2.48824C0.716498 2.87106 1.02123 3.17174 1.34416 3.39046C1.52119 3.51554 2.05506 3.88669 2.94576 4.50377C3.42658 4.83697 3.84473 5.12739 4.20405 5.37801C4.51033 5.59141 4.77447 5.77622 4.99255 5.92959C5.01759 5.94715 5.05696 5.97532 5.10922 6.01268C5.16552 6.05312 5.23677 6.10444 5.32466 6.1679C5.49391 6.29032 5.63452 6.38926 5.74651 6.46486C5.85835 6.54047 5.99385 6.62494 6.15281 6.71873C6.31165 6.81239 6.46146 6.88282 6.60206 6.92967C6.7427 6.97648 6.87289 6.99997 6.99265 6.99997H7.00043H7.00821C7.12795 6.99997 7.25817 6.97648 7.39883 6.92967C7.53941 6.88282 7.68909 6.81254 7.84805 6.71873C8.00686 6.62494 8.14219 6.5403 8.25438 6.46486C8.36637 6.38926 8.50698 6.29034 8.67626 6.1679C8.76397 6.10444 8.83522 6.05309 8.89152 6.01281C8.9438 5.97529 8.98315 5.94731 9.00834 5.92959C9.17823 5.81137 9.44298 5.62733 9.79892 5.38017C10.4466 4.93015 11.4005 4.2678 12.6645 3.39046C13.0447 3.12493 13.3623 2.80449 13.6176 2.4296C13.8724 2.05472 14.0001 1.66149 14.0001 1.25003C14.0001 0.90626 13.8763 0.612103 13.6291 0.367105C13.3816 0.122411 13.0886 0 12.7501 0Z" fill="#F9B91D"/>
</svg>
