<svg width="374" height="66" viewBox="0 0 374 66" fill="none" xmlns="http://www.w3.org/2000/svg">
<path d="M86.0703 47.6797C86.0703 48.7943 85.8828 49.7682 85.5078 50.6016C85.1328 51.4297 84.6016 52.0625 83.9141 52.5C83.2266 52.9375 82.4245 53.1562 81.5078 53.1562C80.612 53.1562 79.8177 52.9375 79.125 52.5C78.4323 52.0573 77.8932 51.4297 77.5078 50.6172C77.1276 49.7995 76.9323 48.8542 76.9219 47.7812V46.9609C76.9219 45.8672 77.112 44.901 77.4922 44.0625C77.8724 43.224 78.4089 42.5833 79.1016 42.1406C79.7995 41.6927 80.5964 41.4688 81.4922 41.4688C82.4036 41.4688 83.2057 41.6901 83.8984 42.1328C84.5964 42.5703 85.1328 43.2083 85.5078 44.0469C85.8828 44.8802 86.0703 45.8516 86.0703 46.9609V47.6797ZM84.5781 46.9453C84.5781 45.5964 84.3073 44.5625 83.7656 43.8438C83.224 43.1198 82.4661 42.7578 81.4922 42.7578C80.5443 42.7578 79.7969 43.1198 79.25 43.8438C78.7083 44.5625 78.4297 45.5625 78.4141 46.8438V47.6797C78.4141 48.987 78.6875 50.0156 79.2344 50.7656C79.7865 51.5104 80.5443 51.8828 81.5078 51.8828C82.4766 51.8828 83.2266 51.5312 83.7578 50.8281C84.2891 50.1198 84.5625 49.1068 84.5781 47.7891V46.9453ZM90.7266 49.3984H89.6719V53H88.2188V44.5469H89.6719V48.125H90.6172L93.4609 44.5469H95.2109L91.8672 48.6094L95.4922 53H93.6562L90.7266 49.3984ZM101.953 53C101.87 52.8333 101.802 52.5365 101.75 52.1094C101.078 52.8073 100.276 53.1562 99.3438 53.1562C98.5104 53.1562 97.8255 52.9219 97.2891 52.4531C96.7578 51.9792 96.4922 51.3802 96.4922 50.6562C96.4922 49.776 96.8255 49.0938 97.4922 48.6094C98.1641 48.1198 99.1068 47.875 100.32 47.875H101.727V47.2109C101.727 46.7057 101.576 46.3047 101.273 46.0078C100.971 45.7057 100.526 45.5547 99.9375 45.5547C99.4219 45.5547 98.9896 45.6849 98.6406 45.9453C98.2917 46.2057 98.1172 46.5208 98.1172 46.8906H96.6641C96.6641 46.4688 96.8125 46.0625 97.1094 45.6719C97.4115 45.276 97.8177 44.9635 98.3281 44.7344C98.8438 44.5052 99.4089 44.3906 100.023 44.3906C100.997 44.3906 101.76 44.6354 102.312 45.125C102.865 45.6094 103.151 46.2786 103.172 47.1328V51.0234C103.172 51.7995 103.271 52.4167 103.469 52.875V53H101.953ZM99.5547 51.8984C100.008 51.8984 100.438 51.7812 100.844 51.5469C101.25 51.3125 101.544 51.0078 101.727 50.6328V48.8984H100.594C98.8229 48.8984 97.9375 49.4167 97.9375 50.4531C97.9375 50.9062 98.0885 51.2604 98.3906 51.5156C98.6927 51.7708 99.0807 51.8984 99.5547 51.8984ZM110.086 46.8594C110.086 46.4635 109.935 46.151 109.633 45.9219C109.331 45.6875 108.917 45.5703 108.391 45.5703C107.88 45.5703 107.453 45.7031 107.109 45.9688C106.771 46.2344 106.602 46.5469 106.602 46.9062H105.164C105.164 46.1719 105.471 45.5703 106.086 45.1016C106.701 44.6328 107.469 44.3984 108.391 44.3984C109.38 44.3984 110.151 44.612 110.703 45.0391C111.255 45.4609 111.531 46.0651 111.531 46.8516C111.531 47.2318 111.417 47.5807 111.188 47.8984C110.958 48.2161 110.633 48.4688 110.211 48.6562C111.195 48.9896 111.688 49.6458 111.688 50.625C111.688 51.401 111.388 52.0156 110.789 52.4688C110.19 52.9219 109.391 53.1484 108.391 53.1484C107.417 53.1484 106.612 52.9115 105.977 52.4375C105.346 51.9583 105.031 51.3125 105.031 50.5H106.469C106.469 50.9115 106.651 51.2656 107.016 51.5625C107.385 51.8542 107.844 52 108.391 52C108.943 52 109.388 51.8724 109.727 51.6172C110.065 51.362 110.234 51.0312 110.234 50.625C110.234 50.151 110.091 49.8125 109.805 49.6094C109.523 49.401 109.083 49.2969 108.484 49.2969H107.039V48.0781H108.609C109.594 48.0521 110.086 47.6458 110.086 46.8594ZM118.781 53C118.698 52.8333 118.63 52.5365 118.578 52.1094C117.906 52.8073 117.104 53.1562 116.172 53.1562C115.339 53.1562 114.654 52.9219 114.117 52.4531C113.586 51.9792 113.32 51.3802 113.32 50.6562C113.32 49.776 113.654 49.0938 114.32 48.6094C114.992 48.1198 115.935 47.875 117.148 47.875H118.555V47.2109C118.555 46.7057 118.404 46.3047 118.102 46.0078C117.799 45.7057 117.354 45.5547 116.766 45.5547C116.25 45.5547 115.818 45.6849 115.469 45.9453C115.12 46.2057 114.945 46.5208 114.945 46.8906H113.492C113.492 46.4688 113.641 46.0625 113.938 45.6719C114.24 45.276 114.646 44.9635 115.156 44.7344C115.672 44.5052 116.237 44.3906 116.852 44.3906C117.826 44.3906 118.589 44.6354 119.141 45.125C119.693 45.6094 119.979 46.2786 120 47.1328V51.0234C120 51.7995 120.099 52.4167 120.297 52.875V53H118.781ZM116.383 51.8984C116.836 51.8984 117.266 51.7812 117.672 51.5469C118.078 51.3125 118.372 51.0078 118.555 50.6328V48.8984H117.422C115.651 48.8984 114.766 49.4167 114.766 50.4531C114.766 50.9062 114.917 51.2604 115.219 51.5156C115.521 51.7708 115.909 51.8984 116.383 51.8984ZM129.172 53H127.727V49.3906H123.844V53H122.391V44.5469H123.844V48.2109H127.727V44.5469H129.172V53ZM136.969 44.5469H138.414V53H136.969V46.8359L133.07 53H131.625V44.5469H133.07V50.7188L136.969 44.5469ZM144.242 53.1562C143.096 53.1562 142.164 52.7812 141.445 52.0312C140.727 51.276 140.367 50.2682 140.367 49.0078V48.7422C140.367 47.9036 140.526 47.1562 140.844 46.5C141.167 45.8385 141.615 45.3229 142.188 44.9531C142.766 44.5781 143.391 44.3906 144.062 44.3906C145.161 44.3906 146.016 44.7526 146.625 45.4766C147.234 46.2005 147.539 47.237 147.539 48.5859V49.1875H141.812C141.833 50.0208 142.076 50.6953 142.539 51.2109C143.008 51.7214 143.602 51.9766 144.32 51.9766C144.831 51.9766 145.263 51.8724 145.617 51.6641C145.971 51.4557 146.281 51.1797 146.547 50.8359L147.43 51.5234C146.721 52.612 145.659 53.1562 144.242 53.1562ZM144.062 45.5781C143.479 45.5781 142.99 45.7917 142.594 46.2188C142.198 46.6406 141.953 47.2344 141.859 48H146.094V47.8906C146.052 47.1562 145.854 46.5885 145.5 46.1875C145.146 45.7812 144.667 45.5781 144.062 45.5781ZM155.953 50.8828L157.922 44.5469H159.469L156.07 54.3047C155.544 55.7109 154.708 56.4141 153.562 56.4141L153.289 56.3906L152.75 56.2891V55.1172L153.141 55.1484C153.63 55.1484 154.01 55.0495 154.281 54.8516C154.557 54.6536 154.784 54.2917 154.961 53.7656L155.281 52.9062L152.266 44.5469H153.844L155.953 50.8828ZM164.047 51.9766C164.562 51.9766 165.013 51.8203 165.398 51.5078C165.784 51.1953 165.997 50.8047 166.039 50.3359H167.406C167.38 50.8203 167.214 51.2812 166.906 51.7188C166.599 52.1562 166.188 52.5052 165.672 52.7656C165.161 53.026 164.62 53.1562 164.047 53.1562C162.896 53.1562 161.979 52.7734 161.297 52.0078C160.62 51.237 160.281 50.1849 160.281 48.8516V48.6094C160.281 47.7865 160.432 47.0547 160.734 46.4141C161.036 45.7734 161.469 45.276 162.031 44.9219C162.599 44.5677 163.268 44.3906 164.039 44.3906C164.987 44.3906 165.773 44.6745 166.398 45.2422C167.029 45.8099 167.365 46.5469 167.406 47.4531H166.039C165.997 46.9062 165.789 46.4583 165.414 46.1094C165.044 45.7552 164.586 45.5781 164.039 45.5781C163.305 45.5781 162.734 45.8438 162.328 46.375C161.927 46.901 161.727 47.6641 161.727 48.6641V48.9375C161.727 49.9115 161.927 50.6615 162.328 51.1875C162.729 51.7135 163.302 51.9766 164.047 51.9766ZM175.961 44.5469V53H174.508V45.7422H171.633L171.461 48.9062C171.367 50.3594 171.122 51.3984 170.727 52.0234C170.336 52.6484 169.714 52.974 168.859 53H168.281V51.7266L168.695 51.6953C169.164 51.6432 169.5 51.3724 169.703 50.8828C169.906 50.3932 170.036 49.487 170.094 48.1641L170.25 44.5469H175.961ZM181.047 50.8828L183.016 44.5469H184.562L181.164 54.3047C180.638 55.7109 179.802 56.4141 178.656 56.4141L178.383 56.3906L177.844 56.2891V55.1172L178.234 55.1484C178.724 55.1484 179.104 55.0495 179.375 54.8516C179.651 54.6536 179.878 54.2917 180.055 53.7656L180.375 52.9062L177.359 44.5469H178.938L181.047 50.8828ZM191.32 45.7422H187.422V53H185.969V44.5469H191.32V45.7422ZM203.461 53H202.016V45.7422H198.125V53H196.672V44.5469H203.461V53ZM205.398 48.6953C205.398 47.8672 205.56 47.1224 205.883 46.4609C206.211 45.7995 206.664 45.2891 207.242 44.9297C207.826 44.5703 208.49 44.3906 209.234 44.3906C210.385 44.3906 211.315 44.7891 212.023 45.5859C212.737 46.3828 213.094 47.4427 213.094 48.7656V48.8672C213.094 49.6901 212.935 50.4297 212.617 51.0859C212.305 51.737 211.854 52.2448 211.266 52.6094C210.682 52.974 210.01 53.1562 209.25 53.1562C208.104 53.1562 207.174 52.7578 206.461 51.9609C205.753 51.1641 205.398 50.1094 205.398 48.7969V48.6953ZM206.852 48.8672C206.852 49.8047 207.068 50.5573 207.5 51.125C207.938 51.6927 208.521 51.9766 209.25 51.9766C209.984 51.9766 210.568 51.6901 211 51.1172C211.432 50.5391 211.648 49.7318 211.648 48.6953C211.648 47.7682 211.427 47.0182 210.984 46.4453C210.547 45.8672 209.964 45.5781 209.234 45.5781C208.521 45.5781 207.945 45.862 207.508 46.4297C207.07 46.9974 206.852 47.8099 206.852 48.8672ZM225.789 53H224.344V45.7422H220.453V53H219V44.5469H225.789V53ZM231.617 53.1562C230.471 53.1562 229.539 52.7812 228.82 52.0312C228.102 51.276 227.742 50.2682 227.742 49.0078V48.7422C227.742 47.9036 227.901 47.1562 228.219 46.5C228.542 45.8385 228.99 45.3229 229.562 44.9531C230.141 44.5781 230.766 44.3906 231.438 44.3906C232.536 44.3906 233.391 44.7526 234 45.4766C234.609 46.2005 234.914 47.237 234.914 48.5859V49.1875H229.188C229.208 50.0208 229.451 50.6953 229.914 51.2109C230.383 51.7214 230.977 51.9766 231.695 51.9766C232.206 51.9766 232.638 51.8724 232.992 51.6641C233.346 51.4557 233.656 51.1797 233.922 50.8359L234.805 51.5234C234.096 52.612 233.034 53.1562 231.617 53.1562ZM231.438 45.5781C230.854 45.5781 230.365 45.7917 229.969 46.2188C229.573 46.6406 229.328 47.2344 229.234 48H233.469V47.8906C233.427 47.1562 233.229 46.5885 232.875 46.1875C232.521 45.7812 232.042 45.5781 231.438 45.5781ZM239.984 51.9766C240.5 51.9766 240.951 51.8203 241.336 51.5078C241.721 51.1953 241.935 50.8047 241.977 50.3359H243.344C243.318 50.8203 243.151 51.2812 242.844 51.7188C242.536 52.1562 242.125 52.5052 241.609 52.7656C241.099 53.026 240.557 53.1562 239.984 53.1562C238.833 53.1562 237.917 52.7734 237.234 52.0078C236.557 51.237 236.219 50.1849 236.219 48.8516V48.6094C236.219 47.7865 236.37 47.0547 236.672 46.4141C236.974 45.7734 237.406 45.276 237.969 44.9219C238.536 44.5677 239.206 44.3906 239.977 44.3906C240.924 44.3906 241.711 44.6745 242.336 45.2422C242.966 45.8099 243.302 46.5469 243.344 47.4531H241.977C241.935 46.9062 241.727 46.4583 241.352 46.1094C240.982 45.7552 240.523 45.5781 239.977 45.5781C239.242 45.5781 238.672 45.8438 238.266 46.375C237.865 46.901 237.664 47.6641 237.664 48.6641V48.9375C237.664 49.9115 237.865 50.6615 238.266 51.1875C238.667 51.7135 239.24 51.9766 239.984 51.9766ZM251.25 45.7188H248.414V53H246.969V45.7188H244.188V44.5469H251.25V45.7188ZM255.664 48.7578H251.852V47.5781H255.664V48.7578ZM259.711 49.3984H258.656V53H257.203V44.5469H258.656V48.125H259.602L262.445 44.5469H264.195L260.852 48.6094L264.477 53H262.641L259.711 49.3984ZM265.164 48.6953C265.164 47.8672 265.326 47.1224 265.648 46.4609C265.977 45.7995 266.43 45.2891 267.008 44.9297C267.591 44.5703 268.255 44.3906 269 44.3906C270.151 44.3906 271.081 44.7891 271.789 45.5859C272.503 46.3828 272.859 47.4427 272.859 48.7656V48.8672C272.859 49.6901 272.701 50.4297 272.383 51.0859C272.07 51.737 271.62 52.2448 271.031 52.6094C270.448 52.974 269.776 53.1562 269.016 53.1562C267.87 53.1562 266.94 52.7578 266.227 51.9609C265.518 51.1641 265.164 50.1094 265.164 48.7969V48.6953ZM266.617 48.8672C266.617 49.8047 266.833 50.5573 267.266 51.125C267.703 51.6927 268.286 51.9766 269.016 51.9766C269.75 51.9766 270.333 51.6901 270.766 51.1172C271.198 50.5391 271.414 49.7318 271.414 48.6953C271.414 47.7682 271.193 47.0182 270.75 46.4453C270.312 45.8672 269.729 45.5781 269 45.5781C268.286 45.5781 267.711 45.862 267.273 46.4297C266.836 46.9974 266.617 47.8099 266.617 48.8672ZM281.578 53H280.133V49.3906H276.25V53H274.797V44.5469H276.25V48.2109H280.133V44.5469H281.578V53ZM290.188 45.7188H287.352V53H285.906V45.7188H283.125V44.5469H290.188V45.7188ZM298.734 48.8672C298.734 50.1536 298.44 51.1901 297.852 51.9766C297.263 52.763 296.466 53.1562 295.461 53.1562C294.435 53.1562 293.628 52.8307 293.039 52.1797V56.25H291.594V44.5469H292.914L292.984 45.4844C293.573 44.7552 294.391 44.3906 295.438 44.3906C296.453 44.3906 297.255 44.7734 297.844 45.5391C298.438 46.3047 298.734 47.3698 298.734 48.7344V48.8672ZM297.289 48.7031C297.289 47.75 297.086 46.9974 296.68 46.4453C296.273 45.8932 295.716 45.6172 295.008 45.6172C294.133 45.6172 293.477 46.0052 293.039 46.7812V50.8203C293.471 51.5911 294.133 51.9766 295.023 51.9766C295.716 51.9766 296.266 51.7031 296.672 51.1562C297.083 50.6042 297.289 49.7865 297.289 48.7031ZM300.195 48.6953C300.195 47.8672 300.357 47.1224 300.68 46.4609C301.008 45.7995 301.461 45.2891 302.039 44.9297C302.622 44.5703 303.286 44.3906 304.031 44.3906C305.182 44.3906 306.112 44.7891 306.82 45.5859C307.534 46.3828 307.891 47.4427 307.891 48.7656V48.8672C307.891 49.6901 307.732 50.4297 307.414 51.0859C307.102 51.737 306.651 52.2448 306.062 52.6094C305.479 52.974 304.807 53.1562 304.047 53.1562C302.901 53.1562 301.971 52.7578 301.258 51.9609C300.549 51.1641 300.195 50.1094 300.195 48.7969V48.6953ZM301.648 48.8672C301.648 49.8047 301.865 50.5573 302.297 51.125C302.734 51.6927 303.318 51.9766 304.047 51.9766C304.781 51.9766 305.365 51.6901 305.797 51.1172C306.229 50.5391 306.445 49.7318 306.445 48.6953C306.445 47.7682 306.224 47.0182 305.781 46.4453C305.344 45.8672 304.76 45.5781 304.031 45.5781C303.318 45.5781 302.742 45.862 302.305 46.4297C301.867 46.9974 301.648 47.8099 301.648 48.8672ZM316.508 44.5469V53H315.055V45.7422H312.18L312.008 48.9062C311.914 50.3594 311.669 51.3984 311.273 52.0234C310.883 52.6484 310.26 52.974 309.406 53H308.828V51.7266L309.242 51.6953C309.711 51.6432 310.047 51.3724 310.25 50.8828C310.453 50.3932 310.583 49.487 310.641 48.1641L310.797 44.5469H316.508ZM320.406 48.1328H322.438C322.547 47.0078 322.945 46.1042 323.633 45.4219C324.326 44.7344 325.198 44.3906 326.25 44.3906C327.354 44.3906 328.258 44.763 328.961 45.5078C329.664 46.2526 330.044 47.2214 330.102 48.4141L330.109 48.8672C330.109 49.6901 329.948 50.4323 329.625 51.0938C329.302 51.7552 328.849 52.2656 328.266 52.625C327.682 52.9792 327.016 53.1562 326.266 53.1562C325.177 53.1562 324.286 52.8021 323.594 52.0938C322.901 51.3802 322.513 50.4557 322.43 49.3203H320.406V53H318.961V44.5469H320.406V48.1328ZM323.859 48.8672C323.859 49.8047 324.076 50.5573 324.508 51.125C324.945 51.6927 325.531 51.9766 326.266 51.9766C327 51.9766 327.581 51.6875 328.008 51.1094C328.44 50.5312 328.656 49.7266 328.656 48.6953C328.656 47.7734 328.438 47.0234 328 46.4453C327.562 45.8672 326.979 45.5781 326.25 45.5781C325.531 45.5781 324.953 45.862 324.516 46.4297C324.078 46.9974 323.859 47.8099 323.859 48.8672Z" fill="#383B45"/>
<path d="M91.5988 21.6806V22.0788C91.5988 23.4063 91.4661 24.601 91.2006 25.6629C90.9351 26.7249 90.5369 27.6541 89.8732 28.4505C89.2094 29.247 88.413 29.778 87.4838 30.3089C86.5546 30.7072 85.3599 30.9726 84.0324 30.9726C82.8378 30.9726 81.7758 30.8399 80.8466 30.4417C80.0501 30.0434 79.2537 29.6452 78.7227 28.9815C78.1917 28.3178 77.6608 27.6541 77.3953 26.8576C77.1298 26.0611 76.8643 25.1319 76.7316 24.3355C76.5988 23.4063 76.4661 22.4771 76.4661 21.5479C76.4661 20.6187 76.3333 19.6895 76.3333 18.7603C76.3333 17.3001 76.4661 15.8399 76.5988 14.247C76.7316 12.7868 76.997 11.3266 77.528 10.1319C78.059 8.93724 78.8555 7.8753 79.9174 7.07884C80.7139 6.14963 82.174 5.7514 84.0324 5.7514C85.3599 5.7514 86.4218 5.88415 87.351 6.28238C88.2802 6.68061 89.0767 7.21158 89.6077 7.8753C90.1386 8.53901 90.6696 9.46822 90.9351 10.3974C91.2006 11.3266 91.3333 12.5213 91.3333 13.716H87.4838C87.4838 10.3974 86.2891 8.67176 84.0324 8.67176C83.1032 8.67176 82.4395 8.93724 81.9086 9.46822C81.3776 9.99919 80.9793 10.6629 80.7139 11.5921C80.4484 12.5213 80.3156 13.5833 80.1829 14.778C80.0501 15.8399 80.0501 17.1673 80.0501 18.4948C80.0501 19.9549 80.0501 21.4151 80.1829 22.4771C80.3156 23.539 80.4484 24.601 80.7139 25.3974C80.9793 26.1939 81.3776 26.8576 81.9086 27.2558C82.4395 27.6541 83.1032 27.9195 83.8997 27.9195C85.0944 27.9195 86.0236 27.3886 86.6873 26.3266C87.351 25.2647 87.6165 23.6718 87.6165 21.5479H91.5988V21.6806Z" fill="#383B45"/>
<path d="M107.926 6.14963V9.46821H102.218V30.3089H98.3687V9.46821H92.528V6.14963H107.926Z" fill="#383B45"/>
<path d="M123.192 6.14963V9.33547H114.032V16.1054H122.661V19.2912H114.032V26.9903H123.59V30.1762H110.316V6.14963H123.192Z" fill="#383B45"/>
<path d="M137.395 30.3089V9.46819H132.484L132.086 21.1496C132.086 22.477 131.953 23.8045 131.82 24.9992C131.687 26.1939 131.422 27.1231 131.024 28.0523C130.625 28.8487 130.094 29.5124 129.298 30.0434C128.634 30.5744 127.572 30.7071 126.51 30.7071C126.112 30.7071 125.847 30.7071 125.448 30.5744C125.05 30.5744 124.785 30.4416 124.519 30.4416V27.2558C124.652 27.2558 124.917 27.3885 125.05 27.3885C125.316 27.3885 125.448 27.3885 125.581 27.3885C126.112 27.3885 126.51 27.2558 126.909 27.1231C127.307 26.9903 127.572 26.5921 127.705 26.0611C127.971 25.5301 128.103 24.7337 128.236 23.6717C128.369 22.6098 128.369 21.2823 128.501 19.6894L128.9 6.28235H141.378V30.4416H137.395V30.3089Z" fill="#383B45"/>
<path d="M160.094 21.6806V22.0788C160.094 23.4063 159.962 24.601 159.696 25.6629C159.431 26.7249 159.032 27.6541 158.369 28.4505C157.705 29.247 156.909 29.778 155.979 30.3089C155.05 30.7072 153.855 30.9726 152.528 30.9726C151.333 30.9726 150.271 30.8399 149.342 30.4417C148.546 30.0434 147.749 29.6452 147.218 28.9815C146.687 28.3178 146.156 27.6541 145.891 26.8576C145.625 26.0611 145.36 25.1319 145.227 24.3355C145.094 23.4063 144.962 22.4771 144.962 21.5479C144.962 20.6187 144.829 19.6895 144.829 18.7603C144.829 17.3001 144.962 15.8399 145.094 14.247C145.227 12.7868 145.493 11.3266 146.024 10.1319C146.555 8.93725 147.351 7.87531 148.413 7.07885C149.475 6.28238 150.935 5.88416 152.794 5.88416C154.121 5.88416 155.183 6.0169 156.112 6.41513C157.041 6.81336 157.838 7.34433 158.369 8.00805C158.9 8.67177 159.431 9.60097 159.696 10.5302C159.962 11.4594 160.094 12.6541 160.094 13.8488H156.245C156.245 10.5302 155.05 8.80451 152.794 8.80451C151.864 8.80451 151.201 9.06999 150.67 9.60097C150.139 10.1319 149.74 10.7957 149.475 11.7249C149.209 12.6541 149.077 13.716 148.944 14.9107C148.811 16.1054 148.811 17.4328 148.811 18.7603C148.811 20.2204 148.811 21.6806 148.944 22.7426C149.077 23.8045 149.209 24.8665 149.475 25.6629C149.74 26.4594 150.139 27.1231 150.67 27.5213C151.201 27.9196 151.864 28.185 152.661 28.185C153.855 28.185 154.785 27.6541 155.448 26.5921C156.112 25.5302 156.378 23.9373 156.378 21.8134H160.094V21.6806Z" fill="#383B45"/>
<path d="M180.67 30.3089V21.0169C180.67 20.7514 180.67 20.4859 180.67 20.0877C180.67 19.6894 180.67 19.2912 180.67 18.893C180.67 18.4948 180.67 18.0965 180.67 17.6983C180.67 17.3001 180.67 17.0346 180.802 16.7691H180.67C180.67 16.9018 180.537 17.0346 180.537 17.4328C180.404 17.6983 180.271 18.0965 180.139 18.4948C180.006 18.893 179.873 19.1585 179.74 19.5567C179.608 19.8222 179.475 20.0877 179.475 20.2204L174.962 30.5744H170.847V12.1231H174.298V21.4151C174.298 21.6806 174.298 21.9461 174.298 22.3443C174.298 22.7425 174.298 23.1408 174.298 23.539C174.298 23.9372 174.298 24.3355 174.165 24.7337C174.165 25.1319 174.165 25.3974 174.032 25.6629H174.165C174.298 25.5302 174.298 25.1319 174.431 24.7337C174.563 24.3355 174.696 23.9372 174.962 23.4063C175.094 23.008 175.36 22.6098 175.493 22.2116C175.625 21.8133 175.758 21.5479 175.891 21.4151L180.006 12.1231H184.121V30.3089H180.67Z" fill="#383B45"/>
<path d="M199.917 6.14963V15.8399C199.917 16.2381 199.917 16.6364 199.917 16.7691C199.917 17.0346 199.917 17.3001 199.785 17.6983C200.183 17.0346 200.581 16.3709 200.847 15.7072C201.245 15.0434 201.643 14.3797 202.041 13.716L207.218 6.28237H211.466L204.563 16.5036L212.263 30.4417H207.882L202.041 19.6895L199.917 22.7425V30.5744H196.201V6.14963H199.917Z" fill="#383B45"/>
<path d="M226.333 21.2824C226.333 22.7426 226.201 24.07 226.068 25.2647C225.802 26.4594 225.537 27.3886 225.006 28.3178C224.475 29.1143 223.811 29.778 222.882 30.1762C221.953 30.5744 220.758 30.8399 219.431 30.8399C217.174 30.8399 215.448 30.0435 214.519 28.5833C213.457 27.1231 212.926 24.7337 212.926 21.2824C212.926 19.955 213.059 18.7603 213.192 17.5656C213.324 16.3709 213.723 15.4417 214.254 14.5125C214.785 13.5833 215.448 12.9196 216.378 12.3886C217.307 11.8576 218.501 11.5921 219.829 11.5921C221.289 11.5921 222.484 11.8576 223.28 12.3886C224.209 12.9196 224.873 13.5833 225.271 14.5125C225.67 15.4417 226.068 16.3709 226.201 17.5656C226.333 18.7603 226.333 19.955 226.333 21.2824ZM222.749 21.1497C222.749 19.8222 222.749 18.7603 222.617 17.9638C222.484 17.1674 222.351 16.3709 222.086 15.8399C221.82 15.3089 221.555 14.9107 221.156 14.6452C220.758 14.3797 220.227 14.247 219.696 14.247C219.165 14.247 218.634 14.3797 218.236 14.6452C217.838 14.9107 217.572 15.3089 217.307 15.8399C217.041 16.3709 216.909 17.1674 216.776 17.9638C216.643 18.893 216.643 19.955 216.643 21.1497C216.643 22.0789 216.643 23.0081 216.776 23.8045C216.909 24.601 217.041 25.3974 217.174 25.9284C217.44 26.5921 217.705 26.9904 218.103 27.3886C218.501 27.7868 219.032 27.9196 219.696 27.9196C220.891 27.9196 221.687 27.3886 222.086 26.3266C222.484 25.5302 222.749 23.6718 222.749 21.1497Z" fill="#383B45"/>
<path d="M27.1187 32.0339C26.9492 30.5085 26.1017 29.322 25.2543 29.4915C24.4068 29.661 23.8983 30.8475 24.0678 32.3729C24.2373 33.8983 25.0848 35.0847 25.9322 34.9152C26.7797 34.9152 27.2882 33.5593 27.1187 32.0339Z" fill="#F9B91D"/>
<path d="M20.339 31.5254C19.1526 31.3559 18.1356 31.0169 17.6271 30.5085C17.4577 30.339 17.2882 30.339 17.1187 30.5085C16.7797 30.678 16.6102 31.0169 16.9492 31.3559C17.4577 31.8644 17.7966 32.5424 18.3051 33.3898C18.6441 34.0678 18.9831 34.5763 19.3221 35.2542C19.3221 35.2542 19.3221 35.4237 19.4916 35.4237C19.661 35.0847 19.8305 34.7458 20 34.5763C20.1695 34.4068 20.339 34.2373 20.678 34.2373C21.356 34.2373 21.8644 34.2373 22.2034 34.2373C22.7119 34.2373 23.0509 34.4068 23.0509 34.5763C23.2204 34.5763 23.2204 34.7458 23.3899 34.7458C22.8814 33.7288 22.5424 32.7119 22.2034 31.5254C21.5255 31.5254 21.017 31.5254 20.339 31.5254Z" fill="#F9B91D"/>
<path d="M32.3729 33.3898C33.0509 32.8814 32.7119 31.5254 31.6949 30.339C30.678 29.1525 29.322 28.6441 28.6441 29.322C27.9661 29.8305 28.3051 31.1864 29.322 32.3729C30.5085 33.5593 31.8644 33.8983 32.3729 33.3898Z" fill="#F9B91D"/>
<path d="M31.5254 23.3898C32.3729 23.7288 33.3898 24.0678 34.2373 24.5763C34.2373 24.4068 34.0678 24.2373 34.2373 23.7288C34.2373 23.3898 34.2373 22.8813 34.4068 22.2034C34.4068 21.8644 34.5763 21.6949 34.9153 21.5254C35.2542 21.3559 35.4237 21.1864 35.7627 21.1864C35.7627 21.1864 35.7627 21.0169 35.5932 21.0169C35.0848 20.678 34.5763 20.1695 33.8983 19.8305C33.2203 19.322 32.7119 18.8135 32.2034 18.3051C31.8644 17.9661 31.5254 18.1356 31.3559 18.4746C31.1864 18.6441 31.1864 18.8135 31.3559 18.983C31.6949 19.661 31.8644 20.678 31.8644 21.8644C31.8644 22.3729 31.6949 22.8813 31.5254 23.3898Z" fill="#F9B91D"/>
<path d="M31.6949 37.7966C30.339 37.1186 28.8135 37.1186 28.4746 37.7966C28.1356 38.4746 28.983 39.661 30.339 40.339C31.6949 41.0169 33.2203 41.0169 33.5593 40.339C33.8983 39.661 33.0508 38.4746 31.6949 37.7966Z" fill="#F9B91D"/>
<path d="M30 0C13.3898 0 0 13.3898 0 30C0 46.6102 13.3898 60 30 60C46.6102 60 60 46.6102 60 30C60 13.3898 46.6102 0 30 0ZM50.339 36.6102C50.1695 37.1186 50.1695 37.1186 49.1525 39.4915C48.6441 40.678 48.1356 41.3559 47.9661 42.3729C47.9661 43.0508 48.1356 43.5593 48.3051 43.8983C48.3051 43.8983 48.1356 44.2373 47.7966 44.4068C47.4576 44.4068 47.2881 44.2373 47.2881 44.2373C46.9492 43.3898 46.9492 42.7119 46.9492 42.2034C47.1186 40.1695 48.1356 39.322 48.8136 37.1186C49.1525 36.1017 49.1525 35.4237 49.1525 34.9153C48.4746 35.0847 47.2881 35.4237 46.6102 35.7627C46.6102 34.7458 46.4407 33.0508 45.0847 31.1864C43.8983 29.322 41.5254 27.6271 40.339 28.3051C39.8305 28.4746 39.661 29.1525 39.661 29.661C42.2034 33.8983 42.7119 39.8305 39.661 42.2034C36.7797 44.4068 31.6949 43.0508 27.9661 40.5085C27.4576 40.678 26.1017 40.339 25.5932 41.0169C24.7458 42.0339 26.1017 44.5763 27.6271 46.1017C29.322 47.6271 31.0169 48.1356 32.0339 48.3051C31.6949 48.983 31.1864 50 30.8475 50.678C31.1864 50.8475 32.0339 51.0169 33.0508 50.8475C35.4237 50.5085 36.4407 49.4915 38.4746 49.8305C38.9831 49.8305 39.661 50 40.339 50.5085C40.339 50.5085 40.5085 50.8475 40.339 51.0169C40.1695 51.3559 39.8305 51.5254 39.8305 51.5254C39.4915 51.3559 38.9831 51.0169 38.3051 51.0169C37.2881 50.8475 36.6102 51.3559 35.2542 51.6949C32.7119 52.2034 32.8814 52.3729 32.2034 52.3729C29.661 52.7119 26.6102 51.3559 26.4407 49.8305C26.4407 49.661 26.4407 49.322 26.7797 48.983C27.2881 49.661 27.7966 50 28.4746 49.661C28.6441 49.4915 28.8136 49.1525 28.8136 48.8136C27.9661 48.4746 26.4407 47.6271 25.2542 45.9322C24.0678 44.4068 23.5593 43.0508 23.3898 42.2034C23.3898 42.0339 23.0508 40.678 23.3898 40C23.7288 39.322 24.7458 38.8136 25.7627 38.8136C24.9153 37.9661 24.2373 36.9492 23.5593 35.9322V36.1017C23.3898 36.1017 23.3898 35.9322 23.2203 35.9322C21.6949 35.2542 20.678 35.5932 20.1695 36.2712L22.3729 37.6271C22.5424 37.7966 22.7119 38.1356 22.5424 38.4746C22.2034 39.1525 21.1864 38.6441 19.4915 37.6271C19.322 38.4746 19.661 39.661 20.678 40.339C20.8475 40.5085 20.8475 40.678 20.678 40.678C20.678 40.678 20.339 41.5254 20.339 42.3729C20.339 42.7119 20.339 43.3898 20.339 43.8983C20.339 44.0678 20.5085 44.2373 20.678 44.4068L22.3729 44.9153C22.7119 45.0847 22.8814 45.4237 22.7119 45.7627C22.7119 45.9322 22.5424 45.9322 22.3729 46.1017C22.2034 46.2712 21.8644 46.1017 21.1864 45.9322C20.5085 45.7627 20 45.5932 19.661 45.4237C19.4915 45.4237 19.322 45.2542 19.322 45.0847C19.1525 44.5763 18.983 43.7288 18.983 42.5424C18.983 41.8644 19.1525 41.1864 19.322 40.8475C19.322 40.678 19.322 40.5085 19.1525 40.339C18.6441 40 17.9661 39.1525 17.9661 38.3051C17.9661 37.7966 18.1356 37.2881 18.4746 36.6102C18.4746 36.6102 18.3051 36.6102 18.3051 36.4407C18.1356 36.4407 18.1356 36.2712 18.1356 36.1017C16.4407 32.3729 15.4237 31.3559 14.7458 31.1864C14.5763 31.1864 14.0678 31.0169 14.0678 30.678C13.8983 30.339 14.2373 30 14.4068 29.8305C14.4068 29.8305 14.5763 29.661 14.7458 29.661L17.2881 28.983C17.4576 28.983 17.6271 28.9831 17.7966 29.1525C18.3051 29.4915 19.1525 30.1695 20.5085 30.1695C21.1864 30.1695 21.6949 30.1695 22.0339 30.1695C21.8644 29.1525 21.8644 28.3051 22.0339 27.4576C18.6441 27.1186 16.2712 26.1017 14.5763 23.7288C13.8983 22.7119 13.2203 21.5254 12.7119 20.339C12.5424 19.8305 12.3729 19.1525 12.0339 18.6441C10.5085 16.9492 9.83051 19.661 9.49152 20.678C9.15254 21.6949 7.45763 21.5254 7.62712 20.5085C8.13559 18.6441 9.83051 14.2373 12.7119 16.4407C13.7288 17.2881 14.0678 18.983 14.5763 20.1695C16.1017 23.3898 18.1356 25.2542 21.8644 25.5932C22.0339 25.5932 22.0339 25.5932 22.0339 25.5932C22.3729 24.7458 22.8814 24.2373 23.3898 23.7288C23.8983 23.3898 24.2373 23.0508 24.9153 22.8814C24.9153 22.7119 24.9153 22.7119 24.9153 22.5424C25.9322 18.9831 24.7458 16.4407 22.0339 14.0678C21.0169 13.2203 19.4915 12.3729 18.983 11.0169C17.7966 7.62712 22.5424 7.62712 24.5763 7.79661C25.7627 7.9661 25.2542 9.66102 24.0678 9.49152C22.8814 9.32203 20 8.98305 21.1864 11.0169C21.5254 11.5254 22.2034 11.8644 22.5424 12.2034C23.5593 13.0508 24.4068 13.8983 25.2542 15.0847C26.9492 17.4576 27.1186 19.8305 26.4407 22.5424C27.4576 22.5424 28.4746 22.5424 29.661 22.8814C29.8305 22.5424 30 21.8644 30 21.3559C30 20.1695 29.661 19.1525 29.322 18.4746C29.322 18.3051 29.1525 18.1356 29.322 17.9661L30.339 15.5932C30.339 15.4237 30.5085 15.4237 30.5085 15.4237C31.3559 15.2542 31.6949 15.0847 32.0339 15.2542C32.3729 15.4237 32.3729 15.9322 32.3729 16.1017C32.5424 16.7797 33.2203 17.9661 36.7797 20.339C36.9492 20.339 36.9492 20.5085 36.9492 20.678V20.8475C37.6271 20.678 38.1356 20.5085 38.6441 20.678C39.4915 20.8475 40.1695 21.6949 40.5085 22.2034C40.678 22.3729 40.8475 22.5424 41.0169 22.3729C41.5254 22.2034 42.0339 22.2034 42.7119 22.2034C43.7288 22.3729 44.5763 22.5424 45.0847 22.8814C45.2542 22.8814 45.2542 23.0508 45.4237 23.2203C45.5932 23.7288 45.5932 24.2373 45.5932 24.9153C45.5932 25.7627 45.7627 25.9322 45.5932 26.1017C45.4237 26.2712 45.4237 26.4407 45.2542 26.4407C44.9153 26.6102 44.5763 26.4407 44.5763 26.1017L44.4068 24.4068C44.4068 24.2373 44.2373 24.0678 44.0678 23.8983C43.7288 23.7288 43.0508 23.7288 42.5424 23.5593C41.5254 23.3898 40.8475 23.5593 40.339 23.8983C40.1695 23.8983 40 23.8983 40 23.7288C39.4915 22.5424 38.4746 22.0339 37.4576 22.0339C38.1356 23.8983 38.4746 24.9153 37.7966 25.2542C37.4576 25.2542 37.1186 25.2542 37.1186 24.9153L36.2712 22.5424C35.4237 23.0508 35.0847 23.8983 35.4237 25.5932C36.4407 26.2712 37.2881 26.9492 37.9661 27.7966C38.1356 27.1186 38.6441 26.6102 39.322 26.4407C40.1695 26.1017 41.3559 26.6102 41.5254 26.7797C42.3729 27.1186 43.3898 27.7966 44.9153 29.322C46.4407 30.8475 46.9492 32.5424 47.2881 33.3898C47.6271 33.2203 47.9661 33.2203 48.1356 33.0508C48.4746 32.3729 48.3051 31.8644 47.6271 31.1864C47.9661 31.0169 48.3051 31.0169 48.6441 31.0169C50.1695 31.0169 51.0169 34.0678 50.339 36.6102Z" fill="#F9B91D"/>
<path d="M33.7288 26.1017C32.3729 25.2542 30.8475 25.2542 30.5085 25.9322C30 26.6102 30.8475 27.7966 32.2034 28.6441C33.5593 29.4915 35.0848 29.4915 35.4237 28.8136C35.7627 27.9661 35.0848 26.7797 33.7288 26.1017Z" fill="#F9B91D"/>
<path d="M38.0827 37.4846C38.8882 37.2377 39.1854 35.8768 38.7466 34.4448C38.3078 33.0129 37.2991 32.0521 36.4936 32.299C35.6881 32.5458 35.3909 33.9068 35.8297 35.3387C36.2685 36.7707 37.2773 37.7314 38.0827 37.4846Z" fill="#F9B91D"/>
</svg>
