<svg width="206" height="60" viewBox="0 0 206 60" fill="none" xmlns="http://www.w3.org/2000/svg">
<path d="M89.5295 35.5219V35.8661C89.5295 37.0136 89.4147 38.0463 89.1852 38.9643C88.9557 39.8823 88.6115 40.6856 88.0378 41.3741C87.464 42.0626 86.7755 42.5216 85.9723 42.9806C85.169 43.3248 84.1363 43.5543 82.9888 43.5543C81.956 43.5543 81.038 43.4396 80.2348 43.0953C79.5463 42.7511 78.8578 42.4068 78.3988 41.8331C77.9398 41.2593 77.4808 40.6856 77.2513 39.9971C77.0218 39.3086 76.7923 38.5053 76.6776 37.8169C76.5628 37.0136 76.4481 36.2104 76.4481 35.4071C76.4481 34.6039 76.3333 33.8006 76.3333 32.9974C76.3333 31.7351 76.4481 30.4729 76.5628 29.0959C76.6776 27.8337 76.9071 26.5714 77.3661 25.5387C77.8251 24.5059 78.5136 23.5879 79.4316 22.8994C80.1201 22.0962 81.3823 21.752 82.9888 21.752C84.1363 21.752 85.0543 21.8667 85.8575 22.2109C86.6608 22.5552 87.3493 23.0142 87.8083 23.5879C88.2673 24.1617 88.7262 24.9649 88.9557 25.7682C89.1852 26.5714 89.3 27.6042 89.3 28.6369H85.9723C85.9723 25.7682 84.9395 24.2764 82.9888 24.2764C82.1855 24.2764 81.6118 24.5059 81.1528 24.9649C80.6938 25.4239 80.3496 25.9977 80.1201 26.8009C79.8906 27.6042 79.7758 28.5222 79.6611 29.5549C79.5463 30.4729 79.5463 31.6204 79.5463 32.7679C79.5463 34.0301 79.5463 35.2924 79.6611 36.2104C79.7758 37.1284 79.8906 38.0463 80.1201 38.7348C80.3496 39.4233 80.6938 39.9971 81.1528 40.3413C81.6118 40.6856 82.1855 40.9151 82.874 40.9151C83.9068 40.9151 84.71 40.4561 85.2838 39.5381C85.8575 38.6201 86.087 37.2431 86.087 35.4071H89.5295V35.5219Z" fill="white"/>
<path d="M103.644 22.0967V24.9654H98.7094V42.981H95.3817V24.9654H90.3327V22.0967H103.644Z" fill="white"/>
<path d="M116.84 22.0967V24.8507H108.922V30.7029H116.381V33.4569H108.922V40.1123H117.184V42.8663H105.709V22.0967H116.84Z" fill="white"/>
<path d="M129.118 42.9806V24.9649H124.872L124.528 35.0629C124.528 36.2103 124.413 37.3578 124.299 38.3906C124.184 39.4233 123.954 40.2266 123.61 41.0298C123.266 41.7183 122.807 42.2921 122.118 42.7511C121.545 43.2101 120.627 43.3248 119.709 43.3248C119.364 43.3248 119.135 43.3248 118.791 43.2101C118.446 43.2101 118.217 43.0953 117.987 43.0953V40.3413C118.102 40.3413 118.332 40.4561 118.446 40.4561C118.676 40.4561 118.791 40.4561 118.905 40.4561C119.364 40.4561 119.709 40.3413 120.053 40.2266C120.397 40.1118 120.627 39.7676 120.741 39.3086C120.971 38.8496 121.086 38.1611 121.2 37.2431C121.315 36.3251 121.315 35.1776 121.43 33.8006L121.774 22.2109H132.56V43.0953H129.118V42.9806Z" fill="white"/>
<path d="M148.74 35.5223V35.8666C148.74 37.0141 148.625 38.0468 148.396 38.9648C148.166 39.8828 147.822 40.6861 147.248 41.3746C146.675 42.0631 145.986 42.5221 145.183 42.9811C144.38 43.3253 143.347 43.5548 142.199 43.5548C141.167 43.5548 140.249 43.4401 139.445 43.0958C138.757 42.7516 138.068 42.4073 137.609 41.8336C137.15 41.2598 136.691 40.6861 136.462 39.9976C136.232 39.3091 136.003 38.5058 135.888 37.8173C135.773 37.0141 135.659 36.2108 135.659 35.4076C135.659 34.6044 135.544 33.8011 135.544 32.9979C135.544 31.7356 135.659 30.4734 135.773 29.0964C135.888 27.8341 136.118 26.5719 136.577 25.5392C137.036 24.5064 137.724 23.5884 138.642 22.8999C139.56 22.2114 140.822 21.8672 142.429 21.8672C143.576 21.8672 144.494 21.9819 145.298 22.3262C146.101 22.6704 146.789 23.1294 147.248 23.7032C147.707 24.2769 148.166 25.0802 148.396 25.8834C148.625 26.6867 148.74 27.7194 148.74 28.7521H145.412C145.412 25.8834 144.38 24.3917 142.429 24.3917C141.626 24.3917 141.052 24.6212 140.593 25.0802C140.134 25.5392 139.79 26.1129 139.56 26.9162C139.331 27.7194 139.216 28.6374 139.101 29.6701C138.986 30.7029 138.986 31.8504 138.986 32.9979C138.986 34.2601 138.986 35.5223 139.101 36.4403C139.216 37.3583 139.331 38.2763 139.56 38.9648C139.79 39.6533 140.134 40.2271 140.593 40.5713C141.052 40.9156 141.626 41.1451 142.314 41.1451C143.347 41.1451 144.15 40.6861 144.724 39.7681C145.298 38.8501 145.527 37.4731 145.527 35.6371H148.74V35.5223Z" fill="white"/>
<path d="M166.526 42.9804V34.948C166.526 34.7185 166.526 34.489 166.526 34.1447C166.526 33.8005 166.526 33.4562 166.526 33.112C166.526 32.7677 166.526 32.4235 166.526 32.0792C166.526 31.735 166.526 31.5055 166.641 31.276H166.526C166.526 31.3907 166.411 31.5055 166.411 31.8497C166.297 32.0792 166.182 32.4235 166.067 32.7677C165.952 33.112 165.838 33.3415 165.723 33.6857C165.608 33.9152 165.494 34.1447 165.494 34.2595L161.592 43.2099H158.035V27.2598H161.018V35.2922C161.018 35.5217 161.018 35.7512 161.018 36.0955C161.018 36.4397 161.018 36.784 161.018 37.1282C161.018 37.4724 161.018 37.8167 160.904 38.1609C160.904 38.5052 160.904 38.7347 160.789 38.9642H160.904C161.018 38.8494 161.018 38.5052 161.133 38.1609C161.248 37.8167 161.363 37.4724 161.592 37.0135C161.707 36.6692 161.936 36.325 162.051 35.9807C162.166 35.6365 162.281 35.407 162.395 35.2922L165.952 27.2598H169.51V42.9804H166.526Z" fill="white"/>
<path d="M183.165 22.0967V30.4734C183.165 30.8176 183.165 31.1619 183.165 31.2766C183.165 31.5061 183.165 31.7356 183.05 32.0799C183.394 31.5061 183.739 30.9324 183.968 30.3586C184.312 29.7849 184.657 29.2111 185.001 28.6374L189.476 22.2114H193.148L187.181 31.0471L193.837 43.0958H190.05L185.001 33.8011L183.165 36.4403V43.2105H179.952V22.0967H183.165Z" fill="white"/>
<path d="M206 35.1775C206 36.4397 205.885 37.5872 205.771 38.62C205.541 39.6527 205.312 40.4559 204.853 41.2592C204.394 41.9477 203.82 42.5214 203.017 42.8657C202.213 43.2099 201.181 43.4394 200.033 43.4394C198.082 43.4394 196.591 42.7509 195.787 41.4887C194.869 40.2264 194.41 38.161 194.41 35.1775C194.41 34.03 194.525 32.9972 194.64 31.9645C194.755 30.9318 195.099 30.1285 195.558 29.3253C196.017 28.522 196.591 27.9483 197.394 27.4893C198.197 27.0303 199.23 26.8008 200.377 26.8008C201.64 26.8008 202.672 27.0303 203.361 27.4893C204.164 27.9483 204.738 28.522 205.082 29.3253C205.426 30.1285 205.771 30.9318 205.885 31.9645C206 32.9972 206 34.03 206 35.1775ZM202.902 35.0627C202.902 33.9152 202.902 32.9972 202.787 32.3087C202.672 31.6203 202.558 30.9318 202.328 30.4728C202.099 30.0138 201.869 29.6695 201.525 29.44C201.181 29.2105 200.722 29.0958 200.263 29.0958C199.804 29.0958 199.345 29.2105 199 29.44C198.656 29.6695 198.427 30.0138 198.197 30.4728C197.968 30.9318 197.853 31.6203 197.738 32.3087C197.623 33.112 197.623 34.03 197.623 35.0627C197.623 35.866 197.623 36.6692 197.738 37.3577C197.853 38.0462 197.968 38.7347 198.082 39.1937C198.312 39.7674 198.541 40.1117 198.886 40.4559C199.23 40.8002 199.689 40.9149 200.263 40.9149C201.295 40.9149 201.984 40.4559 202.328 39.538C202.672 38.8495 202.902 37.243 202.902 35.0627Z" fill="white"/>
<path d="M27.1187 32.0341C26.9492 30.5087 26.1017 29.3222 25.2543 29.4917C24.4068 29.6612 23.8983 30.8477 24.0678 32.3731C24.2373 33.8985 25.0848 35.085 25.9322 34.9155C26.7797 34.9155 27.2882 33.5595 27.1187 32.0341Z" fill="#F9B91D"/>
<path d="M20.339 31.5259C19.1526 31.3564 18.1356 31.0174 17.6271 30.509C17.4577 30.3395 17.2882 30.3395 17.1187 30.509C16.7797 30.6784 16.6102 31.0174 16.9492 31.3564C17.4577 31.8649 17.7966 32.5429 18.3051 33.3903C18.6441 34.0683 18.9831 34.5767 19.3221 35.2547C19.3221 35.2547 19.3221 35.4242 19.4916 35.4242C19.661 35.0852 19.8305 34.7462 20 34.5768C20.1695 34.4073 20.339 34.2378 20.678 34.2378C21.356 34.2378 21.8644 34.2378 22.2034 34.2378C22.7119 34.2378 23.0509 34.4073 23.0509 34.5768C23.2204 34.5768 23.2204 34.7462 23.3899 34.7462C22.8814 33.7293 22.5424 32.7123 22.2034 31.5259C21.5255 31.5259 21.017 31.5259 20.339 31.5259Z" fill="#F9B91D"/>
<path d="M32.3729 33.39C33.0509 32.8815 32.7119 31.5256 31.6949 30.3392C30.678 29.1527 29.322 28.6442 28.6441 29.3222C27.9661 29.8307 28.3051 31.1866 29.322 32.3731C30.5085 33.5595 31.8644 33.8985 32.3729 33.39Z" fill="#F9B91D"/>
<path d="M31.5254 23.3896C32.3729 23.7286 33.3898 24.0676 34.2373 24.5761C34.2373 24.4066 34.0678 24.2371 34.2373 23.7286C34.2373 23.3896 34.2373 22.8812 34.4068 22.2032C34.4068 21.8642 34.5763 21.6947 34.9153 21.5252C35.2542 21.3557 35.4237 21.1862 35.7627 21.1862C35.7627 21.1862 35.7627 21.0168 35.5932 21.0168C35.0848 20.6778 34.5763 20.1693 33.8983 19.8303C33.2203 19.3218 32.7119 18.8134 32.2034 18.3049C31.8644 17.9659 31.5254 18.1354 31.3559 18.4744C31.1864 18.6439 31.1864 18.8134 31.3559 18.9829C31.6949 19.6608 31.8644 20.6778 31.8644 21.8642C31.8644 22.3727 31.6949 22.8812 31.5254 23.3896Z" fill="#F9B91D"/>
<path d="M31.6949 37.7966C30.339 37.1186 28.8135 37.1186 28.4746 37.7966C28.1356 38.4745 28.983 39.661 30.339 40.3389C31.6949 41.0169 33.2203 41.0169 33.5593 40.3389C33.8983 39.661 33.0508 38.4745 31.6949 37.7966Z" fill="#F9B91D"/>
<path d="M30 0C13.3898 0 0 13.3898 0 30C0 46.6102 13.3898 60 30 60C46.6102 60 60 46.6102 60 30C60 13.3898 46.6102 0 30 0ZM50.339 36.6102C50.1695 37.1186 50.1695 37.1186 49.1525 39.4915C48.6441 40.678 48.1356 41.3559 47.9661 42.3729C47.9661 43.0508 48.1356 43.5593 48.3051 43.8983C48.3051 43.8983 48.1356 44.2373 47.7966 44.4068C47.4576 44.4068 47.2881 44.2373 47.2881 44.2373C46.9492 43.3898 46.9492 42.7119 46.9492 42.2034C47.1186 40.1695 48.1356 39.322 48.8136 37.1186C49.1525 36.1017 49.1525 35.4237 49.1525 34.9153C48.4746 35.0847 47.2881 35.4237 46.6102 35.7627C46.6102 34.7458 46.4407 33.0508 45.0847 31.1864C43.8983 29.322 41.5254 27.6271 40.339 28.3051C39.8305 28.4746 39.661 29.1525 39.661 29.661C42.2034 33.8983 42.7119 39.8305 39.661 42.2034C36.7797 44.4068 31.6949 43.0508 27.9661 40.5085C27.4576 40.678 26.1017 40.339 25.5932 41.0169C24.7458 42.0339 26.1017 44.5763 27.6271 46.1017C29.322 47.6271 31.0169 48.1356 32.0339 48.3051C31.6949 48.983 31.1864 50 30.8475 50.678C31.1864 50.8475 32.0339 51.0169 33.0508 50.8475C35.4237 50.5085 36.4407 49.4915 38.4746 49.8305C38.9831 49.8305 39.661 50 40.339 50.5085C40.339 50.5085 40.5085 50.8475 40.339 51.0169C40.1695 51.3559 39.8305 51.5254 39.8305 51.5254C39.4915 51.3559 38.9831 51.0169 38.3051 51.0169C37.2881 50.8475 36.6102 51.3559 35.2542 51.6949C32.7119 52.2034 32.8814 52.3729 32.2034 52.3729C29.661 52.7119 26.6102 51.3559 26.4407 49.8305C26.4407 49.661 26.4407 49.322 26.7797 48.983C27.2881 49.661 27.7966 50 28.4746 49.661C28.6441 49.4915 28.8136 49.1525 28.8136 48.8136C27.9661 48.4746 26.4407 47.6271 25.2542 45.9322C24.0678 44.4068 23.5593 43.0508 23.3898 42.2034C23.3898 42.0339 23.0508 40.678 23.3898 40C23.7288 39.322 24.7458 38.8136 25.7627 38.8136C24.9153 37.9661 24.2373 36.9492 23.5593 35.9322V36.1017C23.3898 36.1017 23.3898 35.9322 23.2203 35.9322C21.6949 35.2542 20.678 35.5932 20.1695 36.2712L22.3729 37.6271C22.5424 37.7966 22.7119 38.1356 22.5424 38.4746C22.2034 39.1525 21.1864 38.6441 19.4915 37.6271C19.322 38.4746 19.661 39.661 20.678 40.339C20.8475 40.5085 20.8475 40.678 20.678 40.678C20.678 40.678 20.339 41.5254 20.339 42.3729C20.339 42.7119 20.339 43.3898 20.339 43.8983C20.339 44.0678 20.5085 44.2373 20.678 44.4068L22.3729 44.9153C22.7119 45.0847 22.8814 45.4237 22.7119 45.7627C22.7119 45.9322 22.5424 45.9322 22.3729 46.1017C22.2034 46.2712 21.8644 46.1017 21.1864 45.9322C20.5085 45.7627 20 45.5932 19.661 45.4237C19.4915 45.4237 19.322 45.2542 19.322 45.0847C19.1525 44.5763 18.983 43.7288 18.983 42.5424C18.983 41.8644 19.1525 41.1864 19.322 40.8475C19.322 40.678 19.322 40.5085 19.1525 40.339C18.6441 40 17.9661 39.1525 17.9661 38.3051C17.9661 37.7966 18.1356 37.2881 18.4746 36.6102C18.4746 36.6102 18.3051 36.6102 18.3051 36.4407C18.1356 36.4407 18.1356 36.2712 18.1356 36.1017C16.4407 32.3729 15.4237 31.3559 14.7458 31.1864C14.5763 31.1864 14.0678 31.0169 14.0678 30.678C13.8983 30.339 14.2373 30 14.4068 29.8305C14.4068 29.8305 14.5763 29.661 14.7458 29.661L17.2881 28.983C17.4576 28.983 17.6271 28.9831 17.7966 29.1525C18.3051 29.4915 19.1525 30.1695 20.5085 30.1695C21.1864 30.1695 21.6949 30.1695 22.0339 30.1695C21.8644 29.1525 21.8644 28.3051 22.0339 27.4576C18.6441 27.1186 16.2712 26.1017 14.5763 23.7288C13.8983 22.7119 13.2203 21.5254 12.7119 20.339C12.5424 19.8305 12.3729 19.1525 12.0339 18.6441C10.5085 16.9492 9.83051 19.661 9.49152 20.678C9.15254 21.6949 7.45763 21.5254 7.62712 20.5085C8.13559 18.6441 9.83051 14.2373 12.7119 16.4407C13.7288 17.2881 14.0678 18.983 14.5763 20.1695C16.1017 23.3898 18.1356 25.2542 21.8644 25.5932C22.0339 25.5932 22.0339 25.5932 22.0339 25.5932C22.3729 24.7458 22.8814 24.2373 23.3898 23.7288C23.8983 23.3898 24.2373 23.0508 24.9153 22.8814C24.9153 22.7119 24.9153 22.7119 24.9153 22.5424C25.9322 18.9831 24.7458 16.4407 22.0339 14.0678C21.0169 13.2203 19.4915 12.3729 18.983 11.0169C17.7966 7.62712 22.5424 7.62712 24.5763 7.79661C25.7627 7.9661 25.2542 9.66102 24.0678 9.49152C22.8814 9.32203 20 8.98305 21.1864 11.0169C21.5254 11.5254 22.2034 11.8644 22.5424 12.2034C23.5593 13.0508 24.4068 13.8983 25.2542 15.0847C26.9492 17.4576 27.1186 19.8305 26.4407 22.5424C27.4576 22.5424 28.4746 22.5424 29.661 22.8814C29.8305 22.5424 30 21.8644 30 21.3559C30 20.1695 29.661 19.1525 29.322 18.4746C29.322 18.3051 29.1525 18.1356 29.322 17.9661L30.339 15.5932C30.339 15.4237 30.5085 15.4237 30.5085 15.4237C31.3559 15.2542 31.6949 15.0847 32.0339 15.2542C32.3729 15.4237 32.3729 15.9322 32.3729 16.1017C32.5424 16.7797 33.2203 17.9661 36.7797 20.339C36.9492 20.339 36.9492 20.5085 36.9492 20.678V20.8475C37.6271 20.678 38.1356 20.5085 38.6441 20.678C39.4915 20.8475 40.1695 21.6949 40.5085 22.2034C40.678 22.3729 40.8475 22.5424 41.0169 22.3729C41.5254 22.2034 42.0339 22.2034 42.7119 22.2034C43.7288 22.3729 44.5763 22.5424 45.0847 22.8814C45.2542 22.8814 45.2542 23.0508 45.4237 23.2203C45.5932 23.7288 45.5932 24.2373 45.5932 24.9153C45.5932 25.7627 45.7627 25.9322 45.5932 26.1017C45.4237 26.2712 45.4237 26.4407 45.2542 26.4407C44.9153 26.6102 44.5763 26.4407 44.5763 26.1017L44.4068 24.4068C44.4068 24.2373 44.2373 24.0678 44.0678 23.8983C43.7288 23.7288 43.0508 23.7288 42.5424 23.5593C41.5254 23.3898 40.8475 23.5593 40.339 23.8983C40.1695 23.8983 40 23.8983 40 23.7288C39.4915 22.5424 38.4746 22.0339 37.4576 22.0339C38.1356 23.8983 38.4746 24.9153 37.7966 25.2542C37.4576 25.2542 37.1186 25.2542 37.1186 24.9153L36.2712 22.5424C35.4237 23.0508 35.0847 23.8983 35.4237 25.5932C36.4407 26.2712 37.2881 26.9492 37.9661 27.7966C38.1356 27.1186 38.6441 26.6102 39.322 26.4407C40.1695 26.1017 41.3559 26.6102 41.5254 26.7797C42.3729 27.1186 43.3898 27.7966 44.9153 29.322C46.4407 30.8475 46.9492 32.5424 47.2881 33.3898C47.6271 33.2203 47.9661 33.2203 48.1356 33.0508C48.4746 32.3729 48.3051 31.8644 47.6271 31.1864C47.9661 31.0169 48.3051 31.0169 48.6441 31.0169C50.1695 31.0169 51.0169 34.0678 50.339 36.6102Z" fill="#F9B91D"/>
<path d="M33.7288 26.1019C32.3729 25.2545 30.8475 25.2545 30.5085 25.9324C30 26.6104 30.8475 27.7968 32.2034 28.6443C33.5593 29.4917 35.0848 29.4917 35.4237 28.8138C35.7627 27.9663 35.0848 26.7799 33.7288 26.1019Z" fill="#F9B91D"/>
<path d="M38.0827 37.4848C38.8882 37.2379 39.1854 35.877 38.7466 34.445C38.3078 33.013 37.2991 32.0523 36.4936 32.2991C35.6881 32.546 35.3909 33.9069 35.8297 35.3389C36.2685 36.7709 37.2773 37.7316 38.0827 37.4848Z" fill="#F9B91D"/>
</svg>
