<svg width="20" height="21" viewBox="0 0 20 21" fill="none" xmlns="http://www.w3.org/2000/svg">
<path d="M15.7288 20.9743C14.3338 20.9136 13.2219 20.5493 12.2111 19.9422C7.56115 17.1494 3.80079 13.4257 1.05128 8.77109C-0.566082 6.0188 -0.262827 3.69148 1.59714 1.95106C3.11341 0.554675 3.96253 0.655863 5.01381 2.43676C5.3575 3.02365 6.5503 4.90573 6.73225 5.27001C7.2579 6.36283 7.23768 7.47589 6.20661 8.64967C5.68097 9.25679 5.88314 9.90439 6.36835 10.4913C7.54093 11.9281 8.87526 13.2233 10.2702 14.4578C11.1193 15.2066 11.8876 15.2876 12.7367 14.5792C13.5858 13.8709 14.4147 13.709 15.2638 14.0531C15.5469 14.1745 18.1549 15.7733 19.1657 16.3399C20.0755 16.8458 20.217 17.5542 19.7116 18.4244C18.7614 20.0231 17.3866 20.8933 15.7288 20.9743Z" fill="#F9B91D"/>
</svg>
