<svg width="100" height="89" viewBox="0 0 100 89" fill="none" xmlns="http://www.w3.org/2000/svg">
<path d="M99.6 88.7C86.3 88.7 73.2 88.7 60.2 88.7C60 88.4 59.6 88.1 59.6 87.8C59.7 71.2 57.8 54.5 61.1 38C65.1 18.2 76.4 4.8 96.8 0.3C97.6 0.1 98.4 0.1 99.8 0C99.8 5.7 99.8 11.1 99.8 16.5C99.8 18.6 98.3 18.8 96.9 19.3C85 23.8 81.5 33.4 80.9 45.6C87.1 45.6 93.2 45.6 99.5 45.6C99.6 60.3 99.6 74.4 99.6 88.7Z" fill="#FDC61A"/>
<path d="M40 45.9001C40 60.5001 40 74.4001 40 88.5001C26.8 88.5001 13.8 88.5001 -7.45704e-06 88.5001C-7.45704e-06 79.6001 -7.45704e-06 70.7001 -7.45704e-06 61.8001C-7.45704e-06 53.0001 -0.100008 44.2001 2.09999 35.5001C6.99999 15.6001 20.4 2.8001 40.1 0.100098C40.1 5.6001 40.1 11.0001 40.1 16.4001C40.1 18.0001 39.2 18.5001 37.9 19.2001C25.8 25.2001 22.3 30.7001 21.5 45.4001C24.5 46.4001 27.7 45.7001 30.7 45.9001C33.7 46.0001 36.6 45.9001 40 45.9001Z" fill="#FDC61A"/>
</svg>
