<svg width="81" height="76" viewBox="0 0 81 76" fill="none" xmlns="http://www.w3.org/2000/svg">
<circle cx="57.5" cy="38.5" r="23.5" fill="#F9B91D"/>
<path d="M33.709 41.4969H39.0562C39.935 41.4969 40.65 40.782 40.65 39.9032C40.65 39.0244 39.935 38.3094 39.0562 38.3094H33.709C32.8302 38.3094 32.1152 39.0244 32.1152 39.9032C32.1152 40.782 32.8302 41.4969 33.709 41.4969Z" fill="#383B45"/>
<path d="M33.709 51.0594H43.2863C44.1651 51.0594 44.8801 50.3444 44.8801 49.4656C44.8801 48.5868 44.1651 47.8719 43.2863 47.8719H33.709C32.8302 47.8719 32.1152 48.5868 32.1152 49.4656C32.1152 50.3444 32.8302 51.0594 33.709 51.0594Z" fill="#383B45"/>
<path d="M33.709 60.6368H43.2863C44.1651 60.6368 44.8801 59.9218 44.8801 59.043C44.8801 58.1642 44.1651 57.4493 43.2863 57.4493H33.709C32.8302 57.4493 32.1152 58.1642 32.1152 59.043C32.1152 59.9218 32.8302 60.6368 33.709 60.6368Z" fill="#383B45"/>
<path d="M43.6587 38.3839C42.8395 38.3839 42.1693 39.0542 42.1693 39.8734C42.1693 40.6926 42.8395 41.3629 43.6587 41.3629C44.4779 41.3629 45.1482 40.6926 45.1482 39.8734C45.1482 39.0542 44.4928 38.3839 43.6587 38.3839Z" fill="#383B45"/>
<path d="M60.1026 72.2696C59.2833 72.2696 58.6131 72.9399 58.6131 73.7591C58.6131 74.5783 59.2833 75.2486 60.1026 75.2486C60.9218 75.2486 61.5921 74.5783 61.5921 73.7591C61.5921 72.9399 60.9218 72.2696 60.1026 72.2696Z" fill="#383B45"/>
<path d="M79.5105 0.640503C78.6913 0.640503 78.0211 1.31077 78.0211 2.12998C78.0211 2.9492 78.6913 3.61946 79.5105 3.61946C80.3297 3.61946 81 2.9492 81 2.12998C81 1.31077 80.3297 0.640503 79.5105 0.640503Z" fill="#383B45"/>
<path d="M74.342 0H71.9291C63.9008 0 55.9916 2.71085 49.6613 7.64104C45.5057 10.8732 41.067 14.3288 38.8924 16.0268L38.5051 16.3247L38.1179 16.0268C35.9432 14.3288 31.5046 10.8732 27.334 7.64104C21.0037 2.71085 13.0946 0 5.06629 0H2.65333C1.81922 0 1.08937 0.610687 1 1.4448C0.910636 2.39806 1.65538 3.20238 2.59375 3.20238H5.06629C12.3796 3.20238 19.5887 5.67492 25.3679 10.1732L34.5282 17.3078L33.5005 17.7099C28.2873 19.7803 24.936 24.7254 24.936 30.3258V31.1152H20.0207L15.7459 26.8404C15.1352 26.2298 14.1372 26.1702 13.4967 26.7511C13.1393 27.0788 12.9456 27.5405 12.9754 28.032C12.9903 28.4342 13.184 28.8214 13.4819 29.1045C14.316 29.9386 17.1162 32.7388 18.2333 33.8559C18.5312 34.1538 18.9333 34.3176 19.3653 34.3176H24.9508V35.0475C24.9508 35.9263 25.6658 36.6412 26.5446 36.6412C27.4234 36.6412 28.1383 35.9263 28.1383 35.0475V31.9345H48.0676C48.0825 31.9345 48.0825 31.9345 48.0974 31.9345L48.857 31.8898V60.2495C48.857 65.9989 44.1503 70.661 38.386 70.6163C32.6813 70.5567 28.1234 65.835 28.1234 60.1154V40.633C28.1234 39.7542 27.4085 39.0393 26.5297 39.0393C25.6509 39.0393 24.936 39.7542 24.936 40.633V40.6777H19.3504C18.9333 40.6777 18.5163 40.8416 18.2184 41.1395L11.5008 47.857H7.43456C6.60045 47.857 5.87061 48.4677 5.79613 49.3018C5.70676 50.2551 6.4515 51.0594 7.38988 51.0594H12.1711C12.5882 51.0594 13.0052 50.8956 13.3031 50.5977L20.0207 43.8801H24.936V48.7954L15.8352 57.8961C15.5373 58.194 15.3735 58.5962 15.3735 59.0281V73.342C15.3735 74.1761 15.9842 74.906 16.8183 74.9805C17.7716 75.0698 18.5759 74.3251 18.5759 73.3867V59.6984L24.9508 53.3234V60.2346C24.9508 67.7565 31.1024 73.8633 38.6541 73.8038C46.1164 73.7293 52.0892 67.5331 52.0892 60.0708V53.3234L58.4642 59.6984V68.2778C58.4642 69.1119 59.0748 69.8417 59.909 69.9162C60.8622 70.0056 61.6665 69.2608 61.6665 68.3225V59.0281C61.6665 58.5962 61.5027 58.194 61.2048 57.8961L52.1041 48.7954V43.8801H57.0194L63.7369 50.5977C64.0348 50.8956 64.4519 51.0594 64.8689 51.0594H69.6055C70.4396 51.0594 71.1694 50.4487 71.2439 49.6146C71.3333 48.6613 70.5885 47.857 69.6502 47.857H65.5243L58.8067 41.1395C58.5088 40.8416 58.0918 40.6777 57.6747 40.6777H52.0892V34.3027H57.6747C58.0918 34.3027 58.5088 34.1389 58.8067 33.841L63.588 29.0598C63.8859 28.7619 64.0497 28.3597 64.0497 27.9278C64.0497 27.4958 63.8859 27.0937 63.588 26.7958C63.2901 26.4979 62.8879 26.3191 62.456 26.3191C62.024 26.3191 61.6219 26.483 61.324 26.7809L57.0045 31.1004H52.0892V30.3109C52.0892 24.7254 48.723 19.7654 43.5247 17.695L42.4969 17.2929L51.6572 10.1583C57.4364 5.66003 64.6455 3.18749 71.9588 3.18749H74.4314C75.3698 3.18749 76.1145 2.38317 76.0251 1.4299C75.906 0.610687 75.1761 0 74.342 0ZM44.9695 22.2379C46.7717 23.6827 48.0527 25.7084 48.574 27.9427L48.7527 28.7172H28.2277L28.4064 27.9427C29.5087 23.2359 33.6643 19.959 38.4902 19.959C40.8436 19.959 43.1523 20.7634 44.9695 22.2379Z" fill="#383B45"/>
</svg>
