<svg width="74" height="85" viewBox="0 0 74 85" fill="none" xmlns="http://www.w3.org/2000/svg">
<circle cx="50.5" cy="52.5" r="23.5" fill="#F9B91D"/>
<path d="M23.1245 12.3941H22.1426C21.4616 12.3941 20.9232 12.9484 20.9232 13.6136C20.9232 14.2946 21.4775 14.833 22.1426 14.833H23.1245C23.8055 14.833 24.344 14.2787 24.344 13.6136C24.344 12.9484 23.7897 12.3941 23.1245 12.3941Z" fill="#383B45" stroke="#383B45" stroke-miterlimit="10"/>
<path d="M10.138 12.3941H8.23758C7.55659 12.3941 7.01813 12.9484 7.01813 13.6136C7.01813 14.2946 7.57243 14.833 8.23758 14.833H10.138C10.819 14.833 11.3575 14.2787 11.3575 13.6136C11.3733 12.9484 10.819 12.3941 10.138 12.3941Z" fill="#383B45" stroke="#383B45" stroke-miterlimit="10"/>
<path d="M17.0906 12.3941H15.1901C14.5091 12.3941 13.9706 12.9484 13.9706 13.6136C13.9706 14.2946 14.5249 14.833 15.1901 14.833H17.0906C17.7715 14.833 18.31 14.2787 18.31 13.6136C18.31 12.9484 17.7715 12.3941 17.0906 12.3941Z" fill="#383B45" stroke="#383B45" stroke-miterlimit="10"/>
<path d="M3.20136 12.3941H2.21946C1.53846 12.3941 1 12.9484 1 13.6136C1 14.2946 1.5543 14.833 2.21946 14.833H3.20136C3.88235 14.833 4.42081 14.2787 4.42081 13.6136C4.42081 12.9484 3.86652 12.3941 3.20136 12.3941Z" fill="#383B45" stroke="#383B45" stroke-miterlimit="10"/>
<path d="M22.9502 18.3963C22.6968 17.7628 21.9841 17.4619 21.3507 17.7153L19.5294 18.4438C18.9434 18.6814 18.6267 19.3466 18.8167 19.9484C19.0226 20.6135 19.7828 20.9778 20.4321 20.7244L22.2534 19.9959C22.9027 19.7425 23.2036 19.0298 22.9502 18.3963Z" fill="#383B45" stroke="#383B45" stroke-miterlimit="10"/>
<path d="M16.2828 21.057C16.0294 20.4235 15.3167 20.1226 14.6832 20.376L12.862 21.1045C12.276 21.342 11.9593 22.0072 12.1493 22.609C12.3552 23.2742 13.1154 23.6384 13.7647 23.385L15.586 22.6565C16.2194 22.4031 16.5362 21.6905 16.2828 21.057Z" fill="#383B45" stroke="#383B45" stroke-miterlimit="10"/>
<path d="M9.5996 23.7334C9.3462 23.0999 8.63353 22.799 8.00005 23.0524L6.19462 23.7809C5.60865 24.0185 5.2919 24.6837 5.48195 25.2855C5.68783 25.9506 6.44801 26.3149 7.09733 26.0615L8.9186 25.333C9.55208 25.0796 9.85299 24.3669 9.5996 23.7334Z" fill="#383B45" stroke="#383B45" stroke-miterlimit="10"/>
<path d="M22.2692 7.26281L20.4479 6.53431C19.8145 6.28091 19.1018 6.58182 18.8484 7.2153C18.595 7.84879 18.8959 8.56146 19.5294 8.81485L21.3507 9.54336C22 9.79675 22.7602 9.44833 22.966 8.76734C23.1719 8.16553 22.8552 7.50037 22.2692 7.26281Z" fill="#383B45" stroke="#383B45" stroke-miterlimit="10"/>
<path d="M8.91856 1.92572L7.09729 1.19721C6.46381 0.943815 5.75114 1.24472 5.49775 1.8782C5.24435 2.51169 5.54526 3.22436 6.17874 3.47775L8.00001 4.20626C8.64933 4.45965 9.40951 4.11124 9.61539 3.43024C9.82128 2.82843 9.50453 2.16327 8.91856 1.92572Z" fill="#383B45" stroke="#383B45" stroke-miterlimit="10"/>
<path d="M15.6018 4.58642L13.7805 3.85791C13.147 3.60452 12.4344 3.90543 12.181 4.53891C11.9276 5.17239 12.2285 5.88506 12.862 6.13846L14.6832 6.86696C15.3326 7.12036 16.0927 6.77194 16.2986 6.09095C16.5045 5.48914 16.1878 4.82398 15.6018 4.58642Z" fill="#383B45" stroke="#383B45" stroke-miterlimit="10"/>
<path d="M55.7806 39.618C56.4616 39.618 57.0001 39.0637 57.0001 38.3986V30.6067C57.0001 24.161 51.758 18.9348 45.3281 18.9348H45.2489V8.40311C45.2489 7.78547 44.7897 7.26284 44.172 7.18366L33.7195 5.88501C33.0069 5.78999 32.3417 6.37596 32.3417 7.10447V18.9506H32.2625C25.8168 18.9506 20.5906 24.1927 20.5906 30.6226V82.885C20.5906 83.566 21.1449 84.1045 21.81 84.1045H55.7806C56.4616 84.1045 57.0001 83.5502 57.0001 82.885V45.7312C57.0001 45.0502 56.4458 44.5117 55.7806 44.5117C55.1155 44.5117 54.5612 45.066 54.5612 45.7312V73.8104H23.0295V34.4393H54.5453V38.3828C54.5612 39.0637 55.0996 39.618 55.7806 39.618ZM54.5612 76.2493V81.6339H23.0295V76.2493H54.5612ZM34.7965 8.4823L42.7942 9.48004V18.9348H34.7965V8.4823ZM23.0295 32.0004V30.6067C23.0295 25.523 27.163 21.3737 32.2625 21.3737H45.3281C50.4118 21.3737 54.5612 25.5072 54.5612 30.6067V32.0004H23.0295Z" fill="#383B45" stroke="#383B45" stroke-miterlimit="10"/>
<path d="M38.8032 14.8488C39.4767 14.8488 40.0227 14.3029 40.0227 13.6294C40.0227 12.9559 39.4767 12.4099 38.8032 12.4099C38.1297 12.4099 37.5837 12.9559 37.5837 13.6294C37.5837 14.3029 38.1297 14.8488 38.8032 14.8488Z" fill="#383B45" stroke="#383B45" stroke-miterlimit="10"/>
<path d="M47.9412 56.8172C48.2738 56.8172 48.5747 56.6905 48.8123 56.4529L51.4254 53.8398C51.9005 53.3647 51.9005 52.5886 51.4254 52.1135C50.9503 51.6384 50.1742 51.6384 49.6991 52.1135L47.4503 54.3624H46.5C46.3733 53.2221 46.0408 52.1294 45.5657 51.1475L48.3371 50.2289C48.6381 50.1339 48.9073 49.9122 49.0498 49.6113L50.3485 46.9981C50.6494 46.3963 50.4118 45.652 49.7942 45.3511C49.1924 45.0502 48.448 45.2877 48.1471 45.9054L47.0702 48.0592L44.1403 49.0411C43.6335 48.4868 43.0792 47.9959 42.4457 47.6C42.5566 47.2357 42.62 46.8556 42.62 46.4438C42.62 44.3217 40.8937 42.6113 38.7874 42.6113C36.6652 42.6113 34.9548 44.3375 34.9548 46.4438C34.9548 46.8398 35.0181 47.2357 35.129 47.6C34.5114 47.9959 33.9412 48.471 33.4344 49.0411L30.5046 48.0592L29.4276 45.9054C29.1267 45.3036 28.3824 45.0502 27.7806 45.3511C27.1788 45.652 26.9254 46.3963 27.2263 46.9981L28.5249 49.6113C28.6675 49.8963 28.9209 50.1181 29.2376 50.2289L32.0091 51.1475C31.534 52.1294 31.2172 53.2221 31.0747 54.3624H30.1245L27.8756 52.1135C27.4005 51.6384 26.6245 51.6384 26.1494 52.1135C25.6743 52.5886 25.6743 53.3647 26.1494 53.8398L28.7625 56.4529C29 56.6905 29.3009 56.8172 29.6335 56.8172H31.0905C31.2014 57.7991 31.4548 58.7334 31.819 59.5886H30.9322C30.5996 59.5886 30.2987 59.7153 30.0611 59.9529L27.448 62.566C27.0046 63.0095 26.9729 63.7538 27.3847 64.2289C27.8439 64.7674 28.6833 64.799 29.1743 64.2923L31.4231 62.0434H33.3077C34.7014 63.6588 36.6335 64.6565 38.7557 64.6565C40.8779 64.6565 42.7942 63.6588 44.2037 62.0434H46.0883L48.3371 64.2923C48.8281 64.7832 49.6833 64.7515 50.1267 64.2289C50.5385 63.7538 50.5068 63.0095 50.0634 62.566L47.4503 59.9529C47.2127 59.7153 46.9118 59.5886 46.5792 59.5886H45.6924C46.0566 58.7334 46.31 57.7991 46.4209 56.8172H47.9412ZM38.8032 45.066C39.5634 45.066 40.1969 45.6837 40.1969 46.4597C40.1969 47.2357 39.5792 47.8533 38.8032 47.8533C38.0272 47.8533 37.4095 47.2357 37.4095 46.4597C37.4095 45.6837 38.0272 45.066 38.8032 45.066ZM38.8032 62.2176C35.8733 62.2176 33.4978 59.2561 33.4978 55.5977C33.4978 53.0004 34.7172 50.6565 36.6019 49.5796C37.2195 50.023 37.9955 50.2764 38.819 50.2764C39.6426 50.2764 40.4028 50.023 41.0362 49.5796C42.905 50.6565 44.1403 52.9846 44.1403 55.5977C44.1086 59.2402 41.7172 62.2176 38.8032 62.2176Z" fill="#383B45" stroke="#383B45" stroke-width="0.75" stroke-miterlimit="10"/>
</svg>
