<svg width="83" height="64" viewBox="0 0 83 64" fill="none" xmlns="http://www.w3.org/2000/svg">
<circle cx="59.5" cy="36.5" r="23.5" fill="#F9B91D"/>
<path d="M68.0232 22.8912C67.1619 22.8912 66.4585 23.5946 66.4585 24.4559C66.4585 25.3172 67.1619 26.0206 68.0232 26.0206C68.8844 26.0206 69.5878 25.3172 69.5878 24.4559C69.5878 23.5803 68.8844 22.8912 68.0232 22.8912Z" fill="#383B45" stroke="#383B45" stroke-width="0.2835" stroke-miterlimit="10"/>
<path d="M47.7253 35.38C46.864 35.38 46.1606 36.0834 46.1606 36.9447C46.1606 37.806 46.864 38.5094 47.7253 38.5094C48.5866 38.5094 49.29 37.806 49.29 36.9447C49.2756 36.0834 48.5866 35.38 47.7253 35.38Z" fill="#383B45" stroke="#383B45" stroke-width="0.2835" stroke-miterlimit="10"/>
<path d="M37.8778 10.3881C37.0165 10.3881 36.3131 11.0915 36.3131 11.9528C36.3131 12.8141 37.0165 13.5175 37.8778 13.5175C38.7391 13.5175 39.4425 12.8141 39.4425 11.9528C39.4425 11.0915 38.7391 10.3881 37.8778 10.3881Z" fill="#383B45" stroke="#383B45" stroke-width="0.2835" stroke-miterlimit="10"/>
<path d="M77.2246 20.092C74.7412 17.5082 71.1669 15.2257 66.602 13.3165C67.5207 12.0102 68.0231 10.4455 68.0231 8.83777C68.0231 4.53129 64.5205 1.02869 60.2141 1.02869C57.745 1.02869 55.4339 2.20579 53.9697 4.15806C51.8021 4.15806 49.7493 5.04807 48.2851 6.61275C43.4619 4.50258 37.2605 3.66999 31.777 4.44516C24.944 5.40694 18.6709 8.96696 14.1061 14.4505C9.65603 19.8049 7.2444 26.4943 7.27311 33.3273C3.49776 35.1217 1.02872 38.9544 1.02872 43.2035C1.02872 49.2325 5.9381 54.1419 11.9672 54.1419H36.3131C38.0357 54.1419 39.4425 55.5487 39.4425 57.2713C39.4425 58.9939 38.0357 60.4007 36.3131 60.4007H21.7859C20.9246 60.4007 20.2212 61.1041 20.2212 61.9654C20.2212 62.8267 20.9246 63.5301 21.7859 63.5301H36.3131C39.7583 63.5301 42.5575 60.7309 42.5575 57.2857C42.5575 53.8405 39.7583 50.9982 36.3131 50.9982H11.9528C7.64634 50.9982 4.14374 47.4956 4.14374 43.1891C4.14374 40.476 5.53616 38.007 7.76118 36.6002C9.32586 41.4952 14.3501 44.7538 18.6135 44.7538H36.3131H66.4585C67.3197 44.7538 68.0231 44.0504 68.0231 43.1891C68.0231 39.7296 65.7694 36.8012 62.6544 35.7676C63.3721 35.0355 64.377 34.5905 65.4536 34.5905C65.7407 34.5905 66.0135 34.6192 66.2862 34.6767C71.2099 35.7389 74.4829 35.2508 76.3633 34.6623C79.0908 33.801 80.8995 31.3176 80.9713 28.3031C81.0287 26.4082 80.4114 23.4224 77.2246 20.092ZM60.2141 4.14371C62.798 4.14371 64.8938 6.23953 64.8938 8.82341C64.8938 10.0866 64.4057 11.2638 63.5301 12.125C62.9559 11.9241 62.3673 11.7231 61.7644 11.5365C61.75 11.1202 61.6926 10.7039 61.6065 10.2876C61.1328 7.99083 59.5824 6.03856 57.5297 4.97629C58.3049 4.44516 59.2379 4.14371 60.2141 4.14371ZM77.8563 28.2456C77.8132 29.9252 76.8801 31.2458 75.4303 31.7052C74.1958 32.0928 71.4827 32.5952 67.0614 31.6621L60.7739 29.2505C59.97 28.9347 59.0657 29.3366 58.7499 30.1405C58.4341 30.9444 58.836 31.8487 59.6399 32.1645L61.3337 32.8105C60.415 33.4708 59.6542 34.3465 59.1374 35.3944H53.9697C53.1084 35.3944 52.405 36.0978 52.405 36.9591C52.405 37.8204 53.1084 38.5238 53.9697 38.5238H60.2141C62.2525 38.5238 63.9894 39.8301 64.6354 41.6531H37.5764C36.8873 39.1841 35.3944 36.9447 33.2842 35.2508C30.887 33.3416 27.9298 32.2937 24.9297 32.2937H21.4127C20.5514 32.2937 19.848 32.9971 19.848 33.8584C19.848 34.7197 20.5514 35.4231 21.4127 35.4231H24.9297C29.0782 35.4231 32.8823 38.0501 34.3034 41.6675H18.6135C15.154 41.6675 10.991 38.5812 10.4455 34.4326C10.4455 34.2891 10.4312 34.1455 10.4025 34.002C10.3881 33.8871 10.3881 33.7723 10.3881 33.6574C10.1728 20.7811 19.7475 9.32584 32.1933 7.56018C33.4134 7.38792 34.6767 7.30179 35.9542 7.30179C39.6578 7.30179 43.4475 8.00518 46.6056 9.32584C46.3041 10.1728 46.1462 11.0771 46.1462 11.9959C46.1462 16.3023 49.6488 19.8049 53.9553 19.8049C54.8166 19.8049 55.52 19.1015 55.52 18.2402C55.52 17.379 54.8166 16.6756 53.9553 16.6756C51.3714 16.6756 49.2756 14.5797 49.2756 11.9959C49.2756 11.0915 49.534 10.2158 50.0221 9.45503C50.0221 9.44068 50.0364 9.44068 50.0364 9.42632C51.0269 7.91905 52.7639 7.12953 54.5582 7.34486C54.6874 7.35921 54.8166 7.38792 54.9315 7.40228C56.6971 7.74679 58.1757 9.22535 58.5345 10.9767C58.6494 11.5078 58.6637 12.0389 58.6063 12.5557C58.5202 13.3022 58.9795 14.0055 59.7116 14.2352C60.9749 14.6228 62.2094 15.0247 63.3578 15.4554C74.1814 19.4174 77.9424 24.6569 77.8563 28.2456Z" fill="#383B45" stroke="#383B45" stroke-width="0.2835" stroke-miterlimit="10"/>
<path d="M32.71 12.1251C32.5091 11.2781 31.6765 10.7614 30.8295 10.9623C26.3364 12.0102 22.3458 14.5224 19.2882 18.2259C18.7427 18.8863 18.8288 19.8768 19.5035 20.4222C19.7906 20.6663 20.1495 20.7811 20.494 20.7811C20.939 20.7811 21.3984 20.5801 21.6998 20.2069C24.3124 17.0345 27.7145 14.8956 31.5329 14.0056C32.3799 13.8046 32.8966 12.972 32.71 12.1251Z" fill="#383B45" stroke="#383B45" stroke-width="0.2835" stroke-miterlimit="10"/>
</svg>
