<svg width="76" height="74" viewBox="0 0 76 74" fill="none" xmlns="http://www.w3.org/2000/svg">
<circle cx="23.5" cy="32.5" r="23.5" fill="#F9B91D"/>
<path d="M65.1562 15.9063C64.38 15.9063 63.75 16.5363 63.75 17.3126C63.75 18.0888 64.38 18.7188 65.1562 18.7188C65.9325 18.7188 66.5625 18.0888 66.5625 17.3126C66.5625 16.5363 65.9325 15.9063 65.1562 15.9063Z" fill="#383B45" stroke="#383B45" stroke-width="0.5"/>
<path d="M38.9999 49.6564C38.2237 49.6564 37.5937 50.2864 37.5937 51.0626C37.5937 51.8389 38.2237 52.4689 38.9999 52.4689C39.7762 52.4689 40.4062 51.8389 40.4062 51.0626C40.4062 50.2864 39.7762 49.6564 38.9999 49.6564Z" fill="#383B45" stroke="#383B45" stroke-width="0.5"/>
<path d="M58.6875 35.5939C57.9108 35.5939 57.2812 36.2235 57.2812 37.0001C57.2812 43.9788 51.6036 49.6564 44.6249 49.6564C43.8483 49.6564 43.2187 50.286 43.2187 51.0626C43.2187 51.8393 43.8483 52.4689 44.6249 52.4689C53.1544 52.4689 60.0937 45.5296 60.0937 37.0001C60.0937 36.2235 59.4641 35.5939 58.6875 35.5939Z" fill="#383B45" stroke="#383B45" stroke-width="0.5"/>
<path d="M74.8515 22.3087L71.3121 15.2313C69.7863 12.1781 66.718 10.2813 63.3042 10.2813C60.5219 10.2813 57.8631 11.6009 56.1789 13.8145L52.2065 18.2846C51.1477 16.779 49.5946 15.6622 47.8055 15.1519L40.6997 13.1212C35.26 11.5669 29.9414 7.37712 26.1074 1.62626C25.7637 1.11073 25.1231 0.880944 24.5299 1.06038C23.9369 1.23996 23.5312 1.78671 23.5312 2.4063V9.9846C23.5312 13.5066 24.0587 16.9797 25.1007 20.331C24.0086 20.6024 22.9074 20.8295 21.8113 21.0067C19.664 21.3548 17.4763 21.5313 15.3088 21.5313H4.40616C3.89499 21.5313 3.42403 21.8088 3.17625 22.256C2.92847 22.7032 2.94281 23.2495 3.2138 23.6829L11.6344 37.1563C15.2325 42.9123 21.429 46.5242 28.2172 46.8218L14.6916 62.1326C12.6076 64.2635 13.3321 67.8298 16.0849 68.9759L23.5315 72.6536C23.5645 72.67 23.5981 72.685 23.6323 72.6986C25.786 73.5593 28.241 72.5144 29.1102 70.3631L34.3066 58.0939H44.625C56.5164 58.0939 66.5625 48.4342 66.5625 37.0001V28.5626C66.5625 26.2364 68.455 24.3438 70.7812 24.3438H73.5937C74.0811 24.3438 74.5338 24.0916 74.79 23.6768C75.0463 23.2623 75.0695 22.7445 74.8515 22.3087ZM26.3437 6.59708C30.219 11.1366 35.0136 14.4216 39.9269 15.8256L47.0334 17.8564C48.4193 18.2518 49.5873 19.2045 50.2573 20.4782L46.5193 24.6844L39.9527 20.7445C37.1084 19.038 33.7233 18.3592 30.3642 18.9029C29.3086 19.074 28.6349 19.2888 27.8059 19.5572C26.8354 16.4576 26.3437 13.2439 26.3437 9.9846V6.59708ZM70.7812 21.5313C66.9042 21.5313 63.75 24.6856 63.75 28.5626V37.0001C63.75 46.9095 54.9918 55.2814 44.625 55.2814H33.3749C29.3684 55.2814 25.767 57.5073 23.9764 61.0903L23.6797 61.6838C23.3323 62.3784 23.614 63.223 24.3087 63.5704C25.0034 63.9177 25.8481 63.6359 26.1953 62.9414C26.359 62.7234 27.4252 59.5553 31.1095 58.431L26.5157 69.2778C26.5119 69.2867 26.5082 69.2954 26.5047 69.3044C26.2257 70.0026 25.4392 70.3647 24.7192 70.1033C16.8034 66.1953 17.2804 66.4249 17.1853 66.3871C16.2457 66.0114 15.9985 64.8028 16.7141 64.0873C16.7626 64.0387 19.6998 60.7103 31.9694 46.8225C37.1278 46.5933 41.9542 44.4721 45.6195 40.8068C46.1686 40.2577 46.1686 39.3672 45.6195 38.818C45.0703 38.2687 44.1799 38.2688 43.6306 38.818C37.3709 45.078 29.9402 43.8899 29.1126 44.0314C22.9362 44.0314 17.2938 40.904 14.0193 35.6656L13.1201 34.2268L14.1353 34.623C20.5737 37.1351 28.6132 36.24 34.155 32.5452C34.8012 32.1144 34.9757 31.2414 34.5449 30.595C34.1141 29.9489 33.2411 29.7742 32.5948 30.2051C27.7272 33.4506 20.7197 34.173 15.1575 32.0028L10.6247 30.2345L6.94346 24.3438H15.3088C17.6266 24.3438 19.9658 24.1551 22.2609 23.783C26.9893 23.0186 28.9758 21.9771 30.814 21.6793C33.4856 21.2468 36.214 21.7812 38.5059 23.1563L49.5264 29.7683C50.1922 30.1681 51.0562 29.9522 51.4558 29.2862C51.8555 28.6204 51.6396 27.7565 50.9738 27.3569L48.9735 26.1568C58.8534 15.0366 58.3254 15.6397 58.3923 15.5507C59.546 14.0122 61.3823 13.0938 63.3042 13.0938C65.6455 13.0938 67.7499 14.3946 68.7964 16.4889L71.3181 21.5313H70.7812Z" fill="#383B45" stroke="#383B45" stroke-width="0.5"/>
</svg>
