<svg width="22" height="22" viewBox="0 0 22 22" fill="none" xmlns="http://www.w3.org/2000/svg">
<path d="M11 3.92859C7.10287 3.92859 3.92859 7.10287 3.92859 11C3.92859 14.8972 7.10287 18.0714 11 18.0714C14.8972 18.0714 18.0714 14.8972 18.0714 11C18.0714 7.10287 14.8972 3.92859 11 3.92859ZM14.1429 14.6772C13.9543 14.8343 13.7343 14.9286 13.5143 14.9286C13.2943 14.9286 13.0429 14.8343 12.8857 14.6457L10.12 11.8172V7.41716C10.12 6.9143 10.5286 6.53716 11 6.53716C11.4714 6.53716 11.88 6.94573 11.88 7.41716V11.1257L14.1429 13.42C14.4886 13.7972 14.4886 14.3314 14.1429 14.6772Z" fill="#F9B91D"/>
<path d="M11 0C4.93429 0 0 4.93429 0 11C0 17.0657 4.93429 22 11 22C17.0657 22 22 17.0657 22 11C22 4.93429 17.0657 0 11 0ZM11.88 20.1771V20.0514C11.88 19.5486 11.4714 19.1714 11 19.1714C10.5286 19.1714 10.12 19.58 10.12 20.0514V20.1771C5.75143 19.7686 2.26286 16.2486 1.82286 11.88H1.94857C2.45143 11.88 2.82857 11.4714 2.82857 11C2.82857 10.5286 2.42 10.12 1.94857 10.12H1.82286C2.23143 5.75143 5.72 2.26286 10.12 1.85429V1.98C10.12 2.48286 10.5286 2.86 11 2.86C11.4714 2.86 11.88 2.45143 11.88 1.98V1.82286C16.2486 2.23143 19.7371 5.72 20.1771 10.0886H20.0514C19.5486 10.0886 19.1714 10.4971 19.1714 10.9686C19.1714 11.44 19.58 11.8486 20.0514 11.8486H20.1771C19.7686 16.2486 16.28 19.7686 11.88 20.1771Z" fill="#F9B91D"/>
</svg>
