<svg width="70" height="58" viewBox="0 0 70 58" fill="none" xmlns="http://www.w3.org/2000/svg">
<circle cx="23.5" cy="27.5" r="23.5" fill="#F9B91D"/>
<path d="M68.7592 25.8447C68.6774 25.8447 68.5956 25.8324 68.5137 25.8201C68.4319 25.8078 68.3501 25.7831 68.2819 25.7585C68.2001 25.7339 68.132 25.6969 68.0638 25.66C67.9956 25.623 67.9274 25.5738 67.8729 25.5245C67.8183 25.4752 67.7638 25.4136 67.7229 25.3521C67.682 25.2905 67.6411 25.2289 67.6138 25.155C67.5865 25.0934 67.5593 25.0195 67.5456 24.9456C67.532 24.8718 67.5184 24.7979 67.5184 24.724C67.5184 24.6501 67.532 24.5762 67.5456 24.5023C67.5593 24.4284 67.5865 24.3668 67.6138 24.2929C67.6411 24.2313 67.682 24.1574 67.7229 24.0959C67.7638 24.0343 67.8183 23.9727 67.8729 23.9234C67.9274 23.8742 67.9956 23.8249 68.0638 23.788C68.132 23.751 68.2001 23.7141 68.2819 23.6894C68.3501 23.6648 68.4319 23.6402 68.5137 23.6278C68.6774 23.6032 68.841 23.6032 69.0046 23.6278C69.0864 23.6402 69.1682 23.6648 69.2364 23.6894C69.3046 23.7141 69.3864 23.751 69.4546 23.788C69.5228 23.8249 69.5909 23.8742 69.6455 23.9234C69.7 23.9727 69.7546 24.0343 69.7955 24.0959C69.8364 24.1574 69.8773 24.219 69.9046 24.2929C69.9318 24.3668 69.9591 24.4284 69.9727 24.5023C69.9864 24.5762 70 24.6501 70 24.724C70 24.7979 69.9864 24.8718 69.9727 24.9456C69.9591 25.0195 69.9318 25.0934 69.9046 25.155C69.8773 25.2166 69.8364 25.2905 69.7955 25.3521C69.7546 25.4136 69.7 25.4752 69.6455 25.5245C69.5909 25.5738 69.5228 25.623 69.4546 25.66C69.3864 25.6969 69.3182 25.7339 69.2364 25.7585C69.1546 25.7831 69.0864 25.8078 69.0046 25.8201C68.9228 25.8447 68.841 25.8447 68.7592 25.8447Z" fill="#383B45"/>
<path d="M50.665 27.5442H40.9567C40.2749 27.5442 39.7158 27.0393 39.7158 26.4235V20.7336C39.7158 17.7655 42.3884 15.3516 45.6745 15.3516H45.9608C49.247 15.3516 51.9195 17.7655 51.9195 20.7336V26.4235C51.9059 27.0393 51.3468 27.5442 50.665 27.5442ZM42.1975 25.2904H49.4242V20.7213C49.4242 18.997 47.8698 17.593 45.9608 17.593H45.6745C43.7655 17.593 42.2111 18.997 42.2111 20.7213L42.1975 25.2904Z" fill="#383B45"/>
<path d="M68.7592 28.5664C68.0774 28.5664 67.5184 29.0714 67.5184 29.6872V46.5598H20.0264V1.4347C20.0264 0.818913 19.4673 0.313965 18.7856 0.313965H9.24082C8.55905 0.313965 8 0.818913 8 1.4347V56.277C8 56.8928 8.55905 57.3977 9.24082 57.3977H68.7592C69.4409 57.3977 70 56.8928 70 56.277V29.6749C70 29.0714 69.4409 28.5664 68.7592 28.5664ZM10.4816 2.55544H17.5448V9.88335H15.9358C15.254 9.88335 14.695 10.3883 14.695 11.0041C14.695 11.6199 15.254 12.1248 15.9358 12.1248H17.5448V19.6744H15.9358C15.254 19.6744 14.695 20.1794 14.695 20.7952C14.695 21.4109 15.254 21.9159 15.9358 21.9159H17.5448V29.4655H15.9358C15.254 29.4655 14.695 29.9704 14.695 30.5862C14.695 31.202 15.254 31.707 15.9358 31.707H17.5448V39.2566H15.9358C15.254 39.2566 14.695 39.7615 14.695 40.3773C14.695 40.9931 15.254 41.498 15.9358 41.498H17.5448V49.0476H15.9358C15.254 49.0476 14.695 49.5526 14.695 50.1684C14.695 50.7842 15.254 51.2891 15.9358 51.2891H17.5448V55.1686H10.4816V2.55544ZM67.5184 55.1686H20.0264V48.8013H25.6305V50.2423C25.6305 50.8581 26.1896 51.363 26.8713 51.363C27.5531 51.363 28.1122 50.8581 28.1122 50.2423V48.8013H36.4843V50.2423C36.4843 50.8581 37.0433 51.363 37.7251 51.363C38.4069 51.363 38.9659 50.8581 38.9659 50.2423V48.8013H47.338V50.2423C47.338 50.8581 47.8971 51.363 48.5788 51.363C49.2606 51.363 49.8197 50.8581 49.8197 50.2423V48.8013H58.1918V50.2423C58.1918 50.8581 58.7508 51.363 59.4326 51.363C60.1144 51.363 60.6734 50.8581 60.6734 50.2423V48.8013H67.5184V55.1686Z" fill="#383B45"/>
<path d="M26.7486 23.1599C27.2122 23.5786 27.9485 23.6156 28.4394 23.2338L29.3393 22.5441V42.6312C29.3393 43.247 29.8984 43.7519 30.5802 43.7519H61.0688C61.7506 43.7519 62.3097 43.247 62.3097 42.6312V22.5441L63.2096 23.2338C63.4414 23.4185 63.7277 23.5047 64.0141 23.5047C64.3413 23.5047 64.6549 23.3939 64.9004 23.1722L68.8546 19.5267C69.0864 19.305 69.2228 19.0095 69.2091 18.7016C69.1955 18.3937 69.0455 18.1104 68.7864 17.901L46.629 0.277106C46.1654 -0.0923686 45.4563 -0.0923686 44.9927 0.277106L22.8625 17.8887C22.6035 18.0981 22.4535 18.3813 22.4399 18.6892C22.4262 18.9971 22.5489 19.2927 22.7944 19.5144L26.7486 23.1599ZM42.1975 41.5104V33.8131H49.4242V41.5104H42.1975ZM59.8144 41.5104H51.9059V32.6923C51.9059 32.0765 51.3468 31.5716 50.6651 31.5716H40.9567C40.2749 31.5716 39.7159 32.0765 39.7159 32.6923V41.5104H31.8073V20.6228L45.8109 9.84649L59.8144 20.6228V41.5104ZM45.8109 2.60479L66.1412 18.7878L63.9186 20.8445L46.6154 7.5188C46.1517 7.16164 45.47 7.16164 45.0064 7.5188L27.7031 20.8445L25.4805 18.7878L45.8109 2.60479Z" fill="#383B45"/>
</svg>
