<svg width="68" height="55" viewBox="0 0 68 55" fill="none" xmlns="http://www.w3.org/2000/svg">
<circle cx="34.5" cy="31.5" r="23.5" fill="#F9B91D"/>
<path d="M14.0551 33.124C10.9214 33.124 8.07943 35.1032 6.98833 38.0466C6.74728 38.6937 7.07714 39.4042 7.72419 39.6452C7.86375 39.696 8.00331 39.7214 8.15555 39.7214C8.67573 39.7214 9.14515 39.3915 9.32277 38.9094C10.0459 36.9429 11.949 35.6234 14.0424 35.6234C14.7275 35.6234 15.2857 35.0652 15.2857 34.3801C15.2857 33.6949 14.7402 33.124 14.0551 33.124Z" fill="#383B45" stroke="#383B45" stroke-width="0.3"/>
<path d="M34.0121 26.7549C31.2463 26.7549 28.988 29.0132 28.988 31.779C28.988 34.5448 31.2463 36.8031 34.0121 36.8031C36.7779 36.8031 39.0362 34.5448 39.0362 31.779C39.0362 29.0132 36.7779 26.7549 34.0121 26.7549ZM35.801 33.5679C35.3189 34.05 34.6845 34.3165 34.0121 34.3165C32.6165 34.3165 31.4747 33.1746 31.4747 31.779C31.4747 30.3834 32.6165 29.2416 34.0121 29.2416C35.4077 29.2416 36.5495 30.3834 36.5495 31.779C36.5368 32.4514 36.2831 33.0858 35.801 33.5679Z" fill="#383B45" stroke="#383B45" stroke-width="0.3"/>
<path d="M65.9964 35.5979V35.5852L60.3506 16.7828C59.564 14.182 58.5998 10.9467 56.443 8.84068L56.4049 8.80261V8.75187C56.4049 4.47629 52.9286 1 48.6657 1C44.4028 1 40.9265 4.47629 40.9265 8.73918C40.9265 9.69072 41.1042 10.6296 41.4467 11.5177L41.4721 11.5938L41.4087 11.6572C41.0915 11.9871 40.787 12.317 40.4952 12.6468C40.2414 12.9133 40.0004 13.1797 39.7593 13.4461L39.6705 13.5349L39.569 13.4588C37.9831 12.2282 36.0166 11.5557 34.012 11.5557C32.0201 11.5557 30.0409 12.2282 28.455 13.4588L28.3535 13.5349L28.2647 13.4461C28.0364 13.1924 27.7953 12.9386 27.5543 12.6722L27.5289 12.6468C27.2244 12.317 26.9199 11.9871 26.6154 11.6572L26.552 11.5938L26.5773 11.5177C26.9199 10.6169 27.0975 9.69072 27.0975 8.73918C27.0975 4.47629 23.6212 1 19.3583 1C15.0955 1 11.6192 4.47629 11.6192 8.73918V8.78993L11.5811 8.84068C9.42428 10.9594 8.44737 14.182 7.67345 16.7828L2.02766 35.5979C1.34255 37.1965 1 38.8966 1 40.6601C1 47.8537 6.86147 53.7152 14.0551 53.7152C20.995 53.7152 26.7169 48.2851 27.0848 41.3579L27.0975 41.1295L27.2878 41.2564C29.2924 42.5505 31.6142 43.2229 33.9993 43.2229C36.3845 43.2229 38.7063 42.5378 40.7109 41.2564L40.9012 41.1295L40.9139 41.3579C41.2818 48.2851 47.0037 53.7152 53.9436 53.7152C61.1372 53.7152 66.9987 47.8537 66.9987 40.6601C67.0241 38.8966 66.6815 37.1965 65.9964 35.5979ZM48.653 3.474C50.8225 3.474 52.7383 4.78078 53.5376 6.79804L53.6391 7.06447L53.3727 6.97566C52.4846 6.69654 51.5076 6.5443 50.4546 6.5443C48.1202 6.5443 45.9633 7.45777 43.6797 9.43697L43.4893 9.60191L43.464 9.34816C43.4386 9.13248 43.4259 8.9168 43.4259 8.7138C43.4005 5.82113 45.7604 3.474 48.653 3.474ZM14.4865 6.79804C15.2858 4.78078 17.2015 3.474 19.371 3.474C22.2637 3.474 24.6235 5.83381 24.6235 8.72649C24.6235 8.92949 24.6108 9.14517 24.5855 9.36085L24.5601 9.61459L24.3698 9.44966C22.0861 7.47046 19.9293 6.55698 17.5948 6.55698C16.5418 6.55698 15.5522 6.69654 14.6768 6.98835L14.4103 7.07716L14.4865 6.79804ZM21.5152 48.1202C19.5233 50.1121 16.8717 51.2158 14.0551 51.2158C8.23169 51.2158 3.49937 46.4835 3.49937 40.6601C3.49937 34.8367 8.23169 30.1044 14.0551 30.1044C19.8785 30.1044 24.6108 34.8367 24.6108 40.6601C24.6108 43.4767 23.5197 46.1283 21.5152 48.1202ZM41.2818 37.5518L41.2564 37.5771C39.3787 39.5817 36.7398 40.7236 34.012 40.7236C31.2716 40.7236 28.6327 39.5817 26.755 37.5771L26.7296 37.5518L26.7169 37.5137C25.2706 31.6776 20.0561 27.5923 14.0424 27.5923C11.3527 27.5923 8.76455 28.417 6.55698 29.9648L6.2398 30.1932L10.0586 17.4933C11.543 12.5453 12.9513 9.04367 17.5695 9.04367C20.8047 9.04367 23.2914 11.7334 25.7019 14.3215C26.1333 14.791 26.5266 15.2096 26.9326 15.641L26.9833 15.6918L26.0952 21.5532C25.9937 22.2383 26.4632 22.8727 27.1356 22.9742C27.8207 23.0757 28.455 22.5936 28.5565 21.9338L29.4827 15.8567L29.5208 15.8186C30.7387 14.6641 32.3373 14.0297 34.012 14.0297C35.6867 14.0297 37.2853 14.6641 38.5033 15.8186L38.5414 15.8567L38.9727 18.6986C39.0615 19.3076 39.5944 19.7643 40.2034 19.7643C40.2668 19.7643 40.3302 19.7643 40.3937 19.7516C41.0788 19.6502 41.5482 19.0158 41.434 18.3307L41.0407 15.7044L41.0915 15.6537C41.4975 15.235 41.9035 14.791 42.3221 14.3469C44.7327 11.746 47.2067 9.06905 50.4546 9.06905C55.0727 9.06905 56.481 12.5707 57.9654 17.5187L61.7716 30.1932L61.4544 29.9648C59.2468 28.417 56.6586 27.5923 53.969 27.5923C47.9552 27.5923 42.7408 31.6649 41.2945 37.5137L41.2818 37.5518ZM53.969 51.2158C48.1455 51.2158 43.4132 46.4835 43.4132 40.6601C43.4132 34.8367 48.1455 30.1044 53.969 30.1044C59.7924 30.1044 64.5247 34.8367 64.5247 40.6601C64.5247 46.4835 59.7924 51.2158 53.969 51.2158Z" fill="#383B45" stroke="#383B45" stroke-width="0.3"/>
<path d="M9.18317 41.9413C9.03093 41.3831 8.52344 41.0151 7.97789 41.0151C7.86371 41.0151 7.76221 41.0278 7.64803 41.0532C7.00098 41.2308 6.59499 41.9032 6.77261 42.563C6.91217 43.1212 7.40697 43.5145 7.97789 43.5145C8.07939 43.5145 8.1682 43.5018 8.2697 43.4764C8.59956 43.4003 8.86599 43.1973 9.04361 42.9182C9.22123 42.6391 9.27198 42.2965 9.19586 41.9794C9.19586 41.9794 9.18317 41.9667 9.18317 41.9413Z" fill="#383B45" stroke="#383B45" stroke-width="0.3"/>
<path d="M53.9689 33.124C50.8352 33.124 47.9932 35.1032 46.9021 38.0466C46.6611 38.6937 46.991 39.4042 47.638 39.6452C47.7776 39.696 47.9171 39.7214 48.0694 39.7214C48.5895 39.7214 49.059 39.3915 49.2366 38.9094C49.9598 36.9429 51.8628 35.6234 53.9562 35.6234C54.6413 35.6234 55.1996 35.0652 55.1996 34.3801C55.1996 33.6949 54.654 33.124 53.9689 33.124Z" fill="#383B45" stroke="#383B45" stroke-width="0.3"/>
<path d="M49.0971 41.9413C48.9449 41.3831 48.4374 41.0278 47.8918 41.0278C47.7776 41.0278 47.6761 41.0405 47.562 41.0659C46.9149 41.2435 46.5089 41.9159 46.6866 42.5757C46.8261 43.1339 47.3209 43.5272 47.8918 43.5272C47.9933 43.5272 48.0821 43.5145 48.1836 43.4891C48.5135 43.413 48.7799 43.21 48.9575 42.9309C49.1352 42.6518 49.1859 42.3092 49.1098 41.9921C49.1098 41.9794 49.0971 41.954 49.0971 41.9413Z" fill="#383B45" stroke="#383B45" stroke-width="0.3"/>
</svg>
