<svg width="65" height="71" viewBox="0 0 65 71" fill="none" xmlns="http://www.w3.org/2000/svg">
<circle cx="23.5" cy="34.5" r="23.5" fill="#F9B91D"/>
<path d="M22.972 61.8858C23.315 61.8858 23.6295 62.012 23.869 62.2508C24.0987 62.494 24.2367 62.811 24.2367 63.1506C24.2367 63.4936 24.1105 63.8081 23.8718 64.0476C23.6286 64.2774 23.3116 64.4154 22.972 64.4154C22.629 64.4154 22.3145 64.2892 22.075 64.0504C21.8452 63.8072 21.7072 63.4902 21.7072 63.1506C21.7072 62.8076 21.8334 62.4931 22.0721 62.2536C22.3154 62.0238 22.6324 61.8858 22.972 61.8858Z" fill="#383B45" stroke="#383B45" stroke-width="0.3"/>
<path d="M30.5409 37.9252C30.5409 39.8351 32.0972 41.3913 34.0071 41.3913C35.917 41.3913 37.4732 39.8351 37.4732 37.9252C37.4732 36.0152 35.917 34.459 34.0071 34.459C32.0972 34.459 30.5409 36.0152 30.5409 37.9252ZM34.0071 36.7651C34.6437 36.7651 35.1672 37.2885 35.1672 37.9252C35.1672 38.5618 34.6437 39.0853 34.0071 39.0853C33.3704 39.0853 32.847 38.5618 32.847 37.9252C32.847 37.2885 33.3704 36.7651 34.0071 36.7651Z" fill="#383B45" stroke="#383B45" stroke-width="0.3" stroke-miterlimit="10"/>
<path d="M17.8647 42.2122C18.1335 42.3679 18.4447 42.4103 18.7418 42.3254L26.5371 40.2316C27.1596 40.0618 27.5133 39.4393 27.3577 38.8168C26.5372 35.7326 28.3622 32.5777 31.4322 31.7572C32.0547 31.5874 32.4084 30.9649 32.2528 30.3424L30.1589 22.5471C29.9892 21.9246 29.3667 21.5709 28.7442 21.7265C20.1283 24.0467 15.021 32.889 17.3271 41.5049C17.3978 41.802 17.5959 42.0566 17.8647 42.2122ZM28.249 24.3014L29.7487 29.9038C26.4523 31.3186 24.4857 34.7282 24.9102 38.2792L19.3077 39.7789C18.1193 33.1295 21.8826 26.5933 28.249 24.3014Z" fill="#383B45" stroke="#383B45" stroke-width="0.3" stroke-miterlimit="10"/>
<path d="M36.5678 31.7566C39.652 32.5772 41.477 35.7463 40.6423 38.8163C40.4726 39.4246 40.8404 40.0613 41.4629 40.2311L49.2582 42.3249C49.8807 42.4947 50.5032 42.1268 50.673 41.5043C52.9649 32.8884 47.8576 24.032 39.2559 21.726C38.6334 21.5562 38.0109 21.924 37.8411 22.5465L35.7473 30.3419C35.5916 30.9502 35.9595 31.5869 36.5678 31.7566ZM39.7652 24.3008C46.1175 26.5927 49.8949 33.1431 48.7065 39.7925L43.104 38.2928C43.5284 34.7418 41.5619 31.3181 38.2655 29.9174L39.7652 24.3008Z" fill="#383B45" stroke="#383B45" stroke-width="0.3" stroke-miterlimit="10"/>
<path d="M39.7086 43.1599C39.2558 42.7213 38.5343 42.7213 38.0816 43.1599C35.8321 45.4093 32.182 45.4093 29.9184 43.1599C29.4657 42.7071 28.7442 42.7071 28.2914 43.1599L22.5758 48.8613C22.1231 49.3141 22.1231 50.0356 22.5758 50.4883C28.8856 56.784 39.1144 56.784 45.4242 50.4883C45.8769 50.0356 45.8769 49.3141 45.4242 48.8613L39.7086 43.1599ZM25.0516 49.6536L29.1545 45.5508C32.0264 47.7012 35.9595 47.7012 38.8314 45.5508L42.9342 49.6536C37.7703 54.0111 30.2297 54.0111 25.0516 49.6536Z" fill="#383B45" stroke="#383B45" stroke-width="0.3" stroke-miterlimit="10"/>
<path d="M47.9935 5.46221V3.45615H52.3056V5.46221H47.9935Z" stroke="#383B45" stroke-width="0.3"/>
<path d="M6.45609 11.4746V8.06797H61.544V11.4746H6.45609Z" stroke="#383B45" stroke-width="0.3"/>
<path d="M61.6939 13.9451C62.9672 13.9451 64 12.9123 64 11.639V7.91818C64 6.6449 62.9672 5.61212 61.6939 5.61212H54.7758V3.30606C54.7758 2.03278 53.743 1 52.4697 1H47.8576C46.5843 1 45.5515 2.03278 45.5515 3.30606V5.61212H6.30606C5.03278 5.61212 4 6.6449 4 7.91818V11.6249C4 12.8981 5.03278 13.9309 6.30606 13.9309H8.61212V33.6385H6.30606C5.03278 33.6385 4 34.6713 4 35.9446V39.5522C4 40.8255 5.03278 41.8583 6.30606 41.8583H8.61212V62.0186H6.30606C5.03278 62.0186 4 63.0514 4 64.3247V67.9182C4 69.1915 5.03278 70.2242 6.30606 70.2242H61.6939C62.9672 70.2242 64 69.1915 64 67.9182V64.3247C64 63.0514 62.9672 62.0186 61.6939 62.0186H59.3879V41.8724H61.6939C62.9672 41.8724 64 40.8397 64 39.5664V35.9587C64 34.6855 62.9672 33.6527 61.6939 33.6527H59.3879V13.9451H61.6939ZM47.8434 3.30606H52.4556V5.61212H47.8434V3.30606ZM61.6939 35.9587V39.5664H55.9642C55.3558 39.5664 54.8182 40.0332 54.7758 40.6416C54.7333 41.3207 55.2709 41.8724 55.9217 41.8724H57.0818V62.0186H28.3763C27.7397 62.0186 27.2162 62.5421 27.2162 63.1787C27.2162 63.8154 27.7397 64.3388 28.3763 64.3388H61.6939V67.9323H6.30606V64.3388H17.2422C17.8788 64.3388 18.4023 63.8154 18.4023 63.1787C18.4023 62.5421 17.8788 62.0186 17.2422 62.0186H10.9182V41.8724H12.0358C12.6442 41.8724 13.1818 41.4056 13.2242 40.7972C13.2667 40.1181 12.7291 39.5664 12.0783 39.5664H6.30606V35.9587H12.0358C12.6442 35.9587 13.1818 35.4919 13.2242 34.8835C13.2667 34.2044 12.7291 33.6527 12.0783 33.6527H10.9182V13.9451H57.0677V33.6527H55.9642C55.3558 33.6527 54.8182 34.1196 54.7758 34.7279C54.7333 35.407 55.2709 35.9587 55.9217 35.9587H61.6939ZM6.30606 11.639V7.91818H61.6939V11.6249H6.30606V11.639Z" fill="#383B45" stroke="#383B45" stroke-width="0.3" stroke-miterlimit="10"/>
</svg>
