<svg width="64" height="77" viewBox="0 0 64 77" fill="none" xmlns="http://www.w3.org/2000/svg">
<circle cx="40.5" cy="36.5" r="23.5" fill="#F9B91D"/>
<path d="M43.7571 15.0301C43.502 14.775 43.1477 14.6191 42.7792 14.6191C42.4108 14.6191 42.0565 14.7609 41.8014 15.0301C41.5463 15.2852 41.3904 15.6395 41.3904 16.008C41.3904 16.3765 41.5321 16.7308 41.8014 16.9859C42.0565 17.241 42.4108 17.3969 42.7792 17.3969C43.1477 17.3969 43.502 17.2551 43.7571 16.9859C44.0122 16.7308 44.1681 16.3765 44.1681 16.008C44.1681 15.6395 44.0122 15.2852 43.7571 15.0301Z" fill="#383B45"/>
<path d="M38.4426 11.3174C30.5204 7.30668 20.9684 8.85143 14.6902 15.1297C7.39162 22.4283 6.65467 34.0777 12.9896 42.2266C13.2163 42.5101 13.5423 42.666 13.8824 42.666C14.1233 42.666 14.3784 42.5809 14.5769 42.425C15.0729 42.0424 15.1579 41.3196 14.7753 40.8378C9.14895 33.5958 9.7867 23.2361 16.2917 16.7311C21.8755 11.1473 30.3645 9.78679 37.4222 13.344C37.9749 13.6274 38.6693 13.4007 38.9528 12.848C39.2362 12.2811 39.0095 11.6008 38.4426 11.3174Z" fill="#383B45" stroke="#383B45" stroke-width="0.5" stroke-miterlimit="10"/>
<path d="M47.5127 20.3876C47.2293 19.8207 46.549 19.6082 45.9821 19.8916C45.4152 20.175 45.2026 20.8553 45.4861 21.4222C49.0433 28.4657 47.6828 36.9689 42.099 42.5527C35.6082 49.0435 25.2484 49.6954 18.0065 44.0691C17.5104 43.6865 16.8018 43.7715 16.4192 44.2675C16.0366 44.7635 16.1216 45.4721 16.6176 45.8548C20.3307 48.7459 24.7665 50.1631 29.1882 50.1631C34.4744 50.1631 39.7322 48.1365 43.7146 44.1541C49.9928 37.8618 51.5234 28.324 47.5127 20.3876Z" fill="#383B45" stroke="#383B45" stroke-width="0.5" stroke-miterlimit="10"/>
<path d="M57.3055 31.5832C58.0992 30.2935 58.0992 28.6921 57.3055 27.4025L55.7466 24.8515C55.5482 24.5114 55.4632 24.1145 55.5199 23.7319L55.9875 20.7841C56.2285 19.2819 55.6049 17.7938 54.3861 16.901L51.9769 15.1436C51.6651 14.9169 51.4383 14.5767 51.3391 14.1941L50.6447 11.303C50.2904 9.82911 49.1566 8.69534 47.6827 8.34104L44.7774 7.66078C44.3948 7.56158 44.0547 7.349 43.8279 7.02304L42.0706 4.61379C41.1777 3.38082 39.6897 2.77142 38.1874 3.01235L35.2397 3.48003C34.857 3.53671 34.446 3.46585 34.1201 3.25327L31.5691 1.69435C30.2794 0.900712 28.678 0.900712 27.3883 1.69435L24.8374 3.25327C24.4972 3.45168 24.1004 3.53671 23.7178 3.48003L20.77 3.01235C19.2678 2.77142 17.7797 3.39499 16.8868 4.61379L15.1295 7.02304C14.9028 7.33482 14.5626 7.56158 14.18 7.66078L11.2889 8.35521C9.81499 8.70951 8.68123 9.84328 8.32693 11.3172L7.66084 14.2083C7.56164 14.5909 7.34906 14.931 7.0231 15.1578L4.61385 16.9151C3.38088 17.808 2.77148 19.296 3.01241 20.7983L3.48009 23.7461C3.53678 24.1287 3.46591 24.5397 3.25333 24.8657L1.69441 27.4166C0.900773 28.7063 0.900773 30.3077 1.69441 31.5974L3.25333 34.1483C3.45174 34.4885 3.53678 34.8853 3.48009 35.2679L3.01241 38.2157C2.77148 39.718 3.39505 41.206 4.61385 42.0989L7.0231 43.8562C7.33489 44.083 7.56164 44.4231 7.66084 44.8057L8.35527 47.6968C8.70957 49.1707 9.84334 50.3045 11.3172 50.6588L12.5219 50.9564L4.34458 69.1958C4.17452 69.5785 4.21703 70.032 4.47213 70.3721C4.72723 70.7122 5.13822 70.8965 5.56338 70.8398L12.1534 70.0462L15.9515 75.4882C16.1782 75.8 16.5325 75.9984 16.9152 75.9984C16.9577 75.9984 16.9861 75.9984 17.0286 75.9984C17.4537 75.9559 17.8222 75.7008 17.9923 75.304L26.3538 56.6536L27.4167 57.3055C28.0686 57.7023 28.7914 57.9007 29.5141 57.9007C30.2369 57.9007 30.9597 57.7023 31.6116 57.3055L32.7029 56.6394L41.0785 75.3182C41.2486 75.7008 41.6171 75.9701 42.0422 76.0126C42.0848 76.0126 42.1131 76.0126 42.1556 76.0126C42.5383 76.0126 42.9067 75.8284 43.1193 75.5024L46.9174 70.0603L53.5074 70.854C53.9326 70.9106 54.3436 70.7264 54.5987 70.3863C54.8538 70.0462 54.8963 69.5926 54.7262 69.21L46.5348 50.9422L47.6969 50.6588C49.1708 50.3045 50.3046 49.1707 50.6589 47.6968L51.3533 44.8057C51.4525 44.4231 51.6651 44.083 51.991 43.8562L54.4003 42.0989C55.6332 41.206 56.2426 39.718 56.0017 38.2157L55.534 35.2679C55.4773 34.8853 55.5482 34.4743 55.7608 34.1483L57.3055 31.5832ZM16.6884 72.4412L13.684 68.1329C13.4289 67.7786 13.0037 67.5802 12.5785 67.6369L7.36323 68.2605L14.8177 51.6225C14.9595 51.7217 15.0728 51.8492 15.172 51.9768L16.9294 54.386C17.0994 54.6128 17.2837 54.8254 17.4821 55.0096L13.5564 63.7679C13.2871 64.3632 13.5564 65.0576 14.1516 65.3269C14.3075 65.3977 14.4776 65.4261 14.6335 65.4261C15.087 65.4261 15.5122 65.171 15.7106 64.7316L19.6221 56.0016C20.0047 56.0583 20.4015 56.0583 20.7983 55.9875L23.7461 55.5198C23.9162 55.4915 24.1004 55.4915 24.2705 55.5198L16.6884 72.4412ZM51.6934 68.2463L46.4781 67.6227C46.0388 67.566 45.6136 67.7645 45.3727 68.1188L42.3682 72.4271L34.7862 55.5056C34.942 55.4773 35.1121 55.4773 35.268 55.5056L38.2158 55.9733C38.6268 56.0442 39.0378 56.03 39.4346 55.9733L43.3461 64.7033C43.5445 65.1426 43.9696 65.3977 44.4231 65.3977C44.579 65.3977 44.7491 65.3694 44.905 65.2985C45.5002 65.0292 45.7695 64.3348 45.5002 63.7396L41.5604 54.9529C41.7446 54.7829 41.9289 54.5844 42.0848 54.3719L43.8421 51.9626C43.9555 51.8067 44.083 51.6792 44.2389 51.58L51.6934 68.2463ZM55.2931 30.3644L53.7342 32.9154C53.2382 33.7232 53.0539 34.6869 53.1956 35.6364L53.6633 38.5842C53.7625 39.2078 53.5074 39.8172 52.9972 40.1856L50.588 41.943C49.8227 42.5099 49.27 43.3177 49.0432 44.253L48.3488 47.1441C48.2071 47.7535 47.7394 48.2212 47.13 48.3629L44.2247 49.0432C43.3036 49.2699 42.4816 49.8085 41.9147 50.5879L40.1574 52.9972C39.7889 53.5074 39.1795 53.7625 38.5559 53.6633L35.6081 53.1956C34.6728 53.0539 33.7091 53.2381 32.8871 53.7341L30.3361 55.293C29.7976 55.619 29.1457 55.619 28.6071 55.293L26.0562 53.7341C25.4184 53.3515 24.6957 53.1531 23.9587 53.1531C23.7461 53.1531 23.5477 53.1672 23.3351 53.1956L20.3873 53.6633C19.7638 53.7625 19.1544 53.5074 18.7859 52.9972L17.0286 50.5879C16.4617 49.8226 15.6539 49.2699 14.7185 49.0432L11.8274 48.3487C11.218 48.207 10.7504 47.7393 10.6086 47.1299L9.94254 44.2247C9.71579 43.3035 9.17725 42.4815 8.39779 41.9146L5.98854 40.1573C5.47835 39.7888 5.22325 39.1794 5.32245 38.5559L5.79013 35.6081C5.93185 34.6727 5.74762 33.709 5.25159 32.887L3.69267 30.3361C3.36671 29.7975 3.36671 29.1456 3.69267 28.6071L5.25159 26.0561C5.74762 25.2483 5.93185 24.2846 5.79013 23.3351L5.32245 20.3873C5.22325 19.7637 5.47835 19.1543 5.98854 18.7858L8.39779 17.0285C9.16308 16.4616 9.71579 15.6538 9.94254 14.7185L10.637 11.8274C10.7787 11.218 11.2464 10.7503 11.8558 10.6086L14.7469 9.91414C15.6681 9.68738 16.49 9.14885 17.0569 8.36938L18.8142 5.96013C19.1827 5.44994 19.7921 5.19484 20.4157 5.29405L23.3635 5.76173C24.2988 5.90345 25.2625 5.71921 26.0845 5.22319L28.6355 3.66426C29.174 3.3383 29.8259 3.3383 30.3645 3.66426L32.9154 5.22319C33.7232 5.71921 34.6869 5.90345 35.6365 5.76173L38.5843 5.29405C39.2078 5.19484 39.8172 5.44994 40.1857 5.96013L41.943 8.36938C42.5099 9.13467 43.3177 9.68738 44.2531 9.91414L47.1442 10.6086C47.7536 10.7503 48.2213 11.218 48.363 11.8274L49.0574 14.7185C49.2842 15.6396 49.8227 16.4616 50.6022 17.0285L53.0114 18.7858C53.5216 19.1543 53.7767 19.7637 53.6775 20.3873L53.2098 23.3351C53.0681 24.2704 53.2523 25.2341 53.7484 26.0561L55.3073 28.6071C55.6049 29.1598 55.6049 29.8259 55.2931 30.3644Z" fill="#383B45" stroke="#383B45" stroke-width="0.5" stroke-miterlimit="10"/>
<path d="M43.2327 26.4814C42.9776 25.7019 42.3116 25.1492 41.4896 25.05L34.5169 24.2281L31.5691 17.8506C31.229 17.0995 30.4921 16.6318 29.6701 16.6318C28.8481 16.6318 28.1112 17.0995 27.771 17.8506L24.8232 24.2281L17.8506 25.05C17.0286 25.1492 16.3625 25.7019 16.1074 26.4814C15.8523 27.2609 16.0649 28.1112 16.6743 28.6639L21.8329 33.4399L20.4582 40.3275C20.3024 41.1353 20.6141 41.9431 21.2802 42.425C21.6487 42.6942 22.0739 42.8218 22.5132 42.8218C22.8675 42.8218 23.2218 42.7367 23.5336 42.5525L29.6701 39.1229L35.8066 42.5525C36.5294 42.9635 37.3939 42.9068 38.0599 42.425C38.726 41.9431 39.0378 41.1353 38.8819 40.3275L37.5072 33.4399L42.6659 28.6639C43.2753 28.097 43.4878 27.2609 43.2327 26.4814ZM35.4665 32.1786C35.1688 32.4478 35.0413 32.8588 35.1122 33.2556L36.5152 40.2992L30.237 36.7845C30.0669 36.6853 29.8685 36.6428 29.6701 36.6428C29.4717 36.6428 29.2733 36.6853 29.1032 36.7845L22.825 40.2992L24.228 33.2556C24.313 32.8588 24.1713 32.4478 23.8737 32.1786L18.6017 27.3034L25.7444 26.4531C26.1412 26.4105 26.4955 26.1554 26.6656 25.787L29.6701 19.2537L32.6746 25.787C32.8446 26.1554 33.1848 26.4105 33.5957 26.4531L40.7385 27.3034L35.4665 32.1786Z" fill="#383B45" stroke="#383B45" stroke-width="0.5" stroke-miterlimit="10"/>
</svg>
