<svg width="72" height="70" viewBox="0 0 72 70" fill="none" xmlns="http://www.w3.org/2000/svg">
<circle cx="48.5" cy="29.5" r="23.5" fill="#F9B91D"/>
<path d="M60.9455 28.2753C60.782 27.6759 60.2371 27.2808 59.6512 27.2808C59.5286 27.2808 59.4196 27.2944 59.297 27.3216C58.6022 27.5124 58.1662 28.2344 58.357 28.9429C58.5068 29.5423 59.0382 29.9647 59.6512 29.9647C59.7602 29.9647 59.8556 29.9511 59.9646 29.9238C60.3188 29.8421 60.6049 29.6241 60.7956 29.3244C60.9864 29.0246 61.0409 28.6568 60.9591 28.3162C60.9591 28.3162 60.9591 28.2889 60.9455 28.2753Z" fill="#383B45"/>
<path d="M3.62943 41.1908C3.46594 40.5914 2.92098 40.1963 2.33515 40.1963C2.21253 40.1963 2.10354 40.2099 1.98092 40.2372C1.2861 40.4279 0.850135 41.15 1.04087 41.8584C1.19073 42.4579 1.72207 42.8802 2.33515 42.8802C2.44414 42.8802 2.53951 42.8666 2.6485 42.8393C3.00272 42.7576 3.28883 42.5396 3.47956 42.2399C3.6703 41.9402 3.72479 41.5723 3.64305 41.2317C3.64305 41.2317 3.62943 41.2045 3.62943 41.1908Z" fill="#383B45"/>
<path d="M60.9046 37.6076C60.9046 36.94 60.346 36.4087 59.6648 36.4496C59.0518 36.4904 58.5749 37.0354 58.5749 37.6485V51.1907L32.2125 66.4223V59.0245L51.1498 48.0844L54.6785 50.1008C54.8556 50.1962 55.0599 50.2507 55.2507 50.2507C55.673 50.2507 56.0545 50.0327 56.2588 49.6648C56.5722 49.1062 56.3815 48.3978 55.8229 48.0708L52.158 45.9727V24.4468L58.5613 20.7411V23.5885C58.5613 24.2016 59.0245 24.7466 59.6512 24.7874C60.3324 24.8283 60.891 24.297 60.891 23.6294V18.7111C60.891 18.6566 60.891 18.6158 60.8774 18.5749V18.5613C60.8774 18.5204 60.8637 18.4795 60.8501 18.4387L60.8365 18.4114C60.8229 18.3705 60.8092 18.3433 60.7956 18.3024L60.782 18.2615C60.7684 18.2207 60.7411 18.1798 60.7139 18.1389C60.6866 18.0981 60.673 18.0708 60.6321 18.0299L60.6185 18.0027C60.5913 17.9618 60.564 17.9482 60.5504 17.9209L60.5231 17.8937C60.4959 17.8665 60.4686 17.8392 60.4278 17.812L60.4142 17.7983C60.3869 17.7711 60.346 17.7438 60.3052 17.7302L60.2915 17.7166L31.6403 1.16345L31.6267 1.14983C31.5858 1.12258 31.5449 1.10896 31.5041 1.08171H31.4904C31.4496 1.06808 31.4087 1.05446 31.3678 1.04084L31.3406 1.02721C31.2997 1.01359 31.2725 1.01359 31.2316 0.999964H31.1907C31.0954 0.98634 31 0.98634 30.9182 0.999964H30.8774C30.8365 0.999964 30.8093 1.01359 30.7684 1.02721L30.7275 1.04084C30.6866 1.05446 30.6458 1.06808 30.6049 1.08171H30.5913C30.564 1.09533 30.5231 1.12258 30.4687 1.1362L30.455 1.14983L1.77656 17.7166C1.76294 17.7166 1.76294 17.7302 1.74932 17.7302C1.72207 17.7438 1.6812 17.7711 1.65395 17.7983H1.64032C1.61308 17.8256 1.5722 17.8528 1.53133 17.8937L1.50408 17.9209C1.47684 17.9482 1.44959 17.9754 1.43596 18.0027L1.42234 18.0299C1.39509 18.0708 1.36784 18.0981 1.35422 18.1389L1.3406 18.1662C1.32697 18.1934 1.29972 18.2343 1.2861 18.2752L1.27248 18.3024C1.25885 18.3433 1.24523 18.3705 1.2316 18.4114L1.21798 18.4387C1.20436 18.4795 1.20436 18.5204 1.19073 18.5613V18.5749C1.19073 18.6294 1.17711 18.6703 1.17711 18.7111V18.7248V34.2425C1.17711 34.8828 1.69482 35.4005 2.33515 35.4005C2.97547 35.4005 3.49318 34.8828 3.49318 34.2425V20.7139L9.89645 24.3923V46.1226L3.49318 49.8283V47.049C3.49318 46.4087 2.97547 45.891 2.33515 45.891C1.69482 45.891 1.17711 46.4087 1.17711 47.049V51.8447C1.17711 51.8992 1.17711 51.94 1.19073 51.9809C1.20436 52.0354 1.20436 52.0763 1.21798 52.1171L1.2316 52.1444C1.24523 52.1853 1.25885 52.2125 1.27248 52.2534L1.2861 52.2943C1.29972 52.3351 1.32697 52.376 1.3406 52.4169L1.35422 52.4305C1.38147 52.4714 1.40872 52.5122 1.43596 52.5531C1.44959 52.5667 1.46321 52.5804 1.46321 52.594L1.50408 52.6485C1.51771 52.6621 1.51771 52.6621 1.53133 52.6757C1.54496 52.6893 1.5722 52.7166 1.59945 52.7302L1.61308 52.7438C1.6267 52.7575 1.6267 52.7575 1.64032 52.7711L1.65395 52.7847C1.6812 52.812 1.70844 52.8256 1.74932 52.8392C1.76294 52.8528 1.77656 52.8528 1.77656 52.8665L1.79019 52.8801L21.9945 64.5422C22.5531 64.8692 23.2616 64.6784 23.5885 64.1199C23.9155 63.5613 23.7248 62.8528 23.1662 62.5259L4.67847 51.8719L11.0817 48.1662L11.2316 48.2479L29.8828 59.0109V68.4387C29.8828 68.4387 29.8828 68.4387 29.8828 68.4523C29.8828 68.4795 29.8828 68.4932 29.8828 68.5204V68.5613C29.8828 68.5885 29.8828 68.6021 29.8964 68.6294L29.9101 68.6839C29.9101 68.6975 29.9101 68.7111 29.9237 68.7248L29.9373 68.752C29.9373 68.7656 29.9373 68.7793 29.9509 68.7929C29.9509 68.8065 29.9646 68.8065 29.9646 68.8201V68.8338C29.9782 68.861 29.9782 68.8746 29.9918 68.9019L30.0054 68.9428C30.0191 68.9564 30.0191 68.9836 30.0327 69.0109V69.0245L30.0463 69.0381C30.0736 69.079 30.0872 69.1062 30.1144 69.1335L30.1417 69.1607C30.1689 69.2016 30.1962 69.2289 30.237 69.2561L30.2643 69.2834C30.2915 69.3106 30.3188 69.3242 30.346 69.3515C30.3597 69.3651 30.3733 69.3651 30.3869 69.3787C30.4142 69.3923 30.4414 69.4196 30.4687 69.4332L30.4959 69.4468C30.5504 69.4741 30.5913 69.4877 30.6321 69.515H30.6458C30.6866 69.5286 30.7275 69.5422 30.7684 69.5558L30.7956 69.5695C30.8365 69.5831 30.8637 69.5831 30.9046 69.5967H30.9455C30.9864 69.5967 31.0272 69.6103 31.0681 69.6103H31.0817H31.0954C31.1362 69.6103 31.1771 69.6103 31.218 69.5967L31.2588 69.5831C31.2861 69.5831 31.3133 69.5695 31.3542 69.5695C31.3678 69.5695 31.3815 69.5558 31.3951 69.5558C31.436 69.5422 31.4768 69.5286 31.5041 69.515L31.5313 69.5013C31.5722 69.4877 31.6131 69.4605 31.6539 69.4468L31.6676 69.4332L60.3597 52.8665C60.7139 52.6621 60.9455 52.267 60.9455 51.8583L60.9046 37.6076ZM49.8419 44.6512L43.4251 40.9727V34.8147C43.4251 34.1744 42.9073 33.6566 42.267 33.6566C41.6267 33.6566 41.109 34.1744 41.109 34.8147V39.6376L33.4659 35.2506L49.8419 25.7956V44.6512ZM32.2125 4.17435L57.4169 18.7248L51.0136 22.4305L50.8637 22.3487L32.2125 11.5858V4.17435ZM32.2125 14.2697L48.6839 23.7793L42.267 27.485L32.2125 21.6812V14.2697ZM32.2125 24.3651L39.9373 28.8338L32.2125 33.2888V24.3651ZM32.2125 37.2125L40.0599 41.7084L32.2125 46.2316V37.2125ZM32.2125 48.9291L42.3896 43.0572L48.8201 46.7493L32.2125 56.3406V48.9291ZM29.8828 56.3406L13.4114 46.8174L19.8283 43.1117L29.8828 48.9155V56.3406ZM12.2534 44.8147V25.7547L18.6703 29.4332V41.0953L12.2534 44.8147ZM29.8828 46.2452L22.158 41.7765L29.8828 37.3079V46.2452ZM20.9864 39.7602V30.7684L28.7929 35.2506L20.9864 39.7602ZM29.8828 33.1934L22.2125 28.7929L29.8828 24.3651V33.1934ZM29.8828 11.5858L18.8474 17.9618C18.5749 18.1117 18.3842 18.3705 18.3024 18.6703C18.2207 18.97 18.2616 19.2833 18.4251 19.5558C18.5749 19.8283 18.8338 20.019 19.1335 20.1008C19.4332 20.1825 19.7466 20.1417 20.0191 19.9782L29.8828 14.2697V21.6812L19.8828 27.4577L4.67847 18.7248L29.8828 4.17435V11.5858Z" fill="#383B45"/>
</svg>
