<svg width="69" height="65" viewBox="0 0 69 65" fill="none" xmlns="http://www.w3.org/2000/svg">
<circle cx="35.5" cy="23.5" r="23.5" fill="#F9B91D"/>
<path d="M63.0388 13.0418C62.7859 12.789 62.4399 12.6426 62.0806 12.6426C61.7213 12.6426 61.3753 12.789 61.1225 13.0418C60.8696 13.2947 60.7232 13.6407 60.7232 14C60.7232 14.3593 60.8696 14.7053 61.1225 14.9581C61.3753 15.211 61.7213 15.3574 62.0806 15.3574C62.4399 15.3574 62.7859 15.211 63.0388 14.9581C63.2916 14.7053 63.438 14.3593 63.438 14C63.438 13.6407 63.2916 13.2947 63.0388 13.0418Z" fill="#383B45"/>
<path d="M32.085 44.7806C31.8321 44.5277 31.4861 44.3813 31.1268 44.3813C30.7675 44.3813 30.4215 44.5277 30.1687 44.7806C29.9158 45.0334 29.7694 45.3794 29.7694 45.7387C29.7694 46.098 29.9158 46.444 30.1687 46.6969C30.4215 46.9497 30.7675 47.0961 31.1268 47.0961C31.4861 47.0961 31.8321 46.9497 32.085 46.6969C32.3378 46.444 32.4842 46.098 32.4842 45.7387C32.4842 45.3794 32.3378 45.0334 32.085 44.7806Z" fill="#383B45"/>
<path d="M66.2992 17.5131C65.9266 16.861 65.1015 16.6348 64.4627 17.0074C63.8106 17.38 63.5844 18.1918 63.957 18.8439C67.9626 25.8837 66.7516 34.7999 61.016 40.5355L59.9913 41.5602C59.7385 40.9081 59.3658 40.3093 58.8468 39.7903L45.0068 25.9502C45.9117 25.5111 46.7501 24.9122 47.482 24.1803L50.1436 21.5187C50.6759 20.9864 50.6759 20.1347 50.1436 19.6157C49.6113 19.0834 48.7596 19.0834 48.2406 19.6157L45.579 22.2773C44.3281 23.5282 42.6779 24.2069 40.908 24.2069H35.5982C35.2389 24.2069 34.8929 24.3533 34.6401 24.6061L30.5812 28.665C29.3702 29.876 27.4139 29.876 26.2029 28.665C24.9919 27.454 24.9919 25.4978 26.2029 24.2868L35.4784 15.0113C41.1475 9.34216 49.9972 8.09124 57.0104 11.9771C57.6624 12.3364 58.4875 12.0969 58.8468 11.4581C59.2062 10.806 58.9666 9.98093 58.3278 9.62163C54.4686 7.47908 49.9173 6.62738 45.5125 7.21292C41.3871 7.75854 37.621 9.48855 34.5336 12.2299C30.7143 8.83647 25.8836 7 20.7601 7C15.2107 7 10.0074 9.15585 6.08164 13.0816C2.15585 17.0074 0 22.2108 0 27.7601C0 33.3094 2.15585 38.5127 6.08164 42.4385L6.58733 42.9442C6.68049 43.0374 6.77364 43.1039 6.8801 43.1571C6.97326 44.3282 7.45234 45.4594 8.34396 46.351C9.32873 47.3358 10.6329 47.8415 11.937 47.8415C12.0036 47.8415 12.0701 47.8415 12.1367 47.8415C12.1367 47.908 12.1367 47.9745 12.1367 48.0411C12.1367 49.3985 12.669 50.676 13.6271 51.6342C14.6119 52.6189 15.9161 53.1246 17.2202 53.1246C17.2868 53.1246 17.3533 53.1246 17.4198 53.1246C17.4198 53.1912 17.4198 53.2577 17.4198 53.3243C17.4198 54.6816 17.9521 55.9592 18.9103 56.9174C19.8951 57.9021 21.1992 58.4078 22.5034 58.4078C22.5699 58.4078 22.6365 58.4078 22.703 58.4078C22.6498 59.7785 23.1422 61.1625 24.1802 62.2005C25.1383 63.1587 26.4159 63.691 27.7733 63.691C29.1306 63.691 30.4082 63.1587 31.3664 62.2005L33.2561 60.3108L35.7978 62.8526C36.756 63.8108 38.0335 64.3431 39.3909 64.3431C40.7483 64.3431 42.0259 63.8108 42.984 62.8526C44.0353 61.8013 44.5277 60.3907 44.4612 59.0067C44.541 59.0067 44.6342 59.0067 44.714 59.0067C46.0182 59.0067 47.309 58.5143 48.3071 57.5162C49.3451 56.4782 49.8375 55.0942 49.7843 53.7235C49.8508 53.7235 49.9173 53.7235 49.9839 53.7235C51.3413 53.7235 52.6188 53.1912 53.577 52.233C54.615 51.195 55.1074 49.811 55.0541 48.4403C55.1207 48.4403 55.1872 48.4403 55.2537 48.4403C56.6111 48.4403 57.8887 47.908 58.8468 46.9498C59.3392 46.4575 59.6985 45.8985 59.9514 45.2997C60.0845 45.2331 60.2042 45.1533 60.3107 45.0468L62.919 42.4385C69.5196 35.8645 70.9037 25.6042 66.2992 17.5131ZM11.937 45.1533C11.2983 45.1533 10.6994 44.9005 10.247 44.4613C9.7945 44.0088 9.55496 43.41 9.55496 42.7712C9.55496 42.1324 9.80781 41.5336 10.247 41.0811L12.5758 38.7523C13.0283 38.2998 13.6271 38.0603 14.2659 38.0603C14.9047 38.0603 15.5035 38.3131 15.956 38.7523C16.8875 39.6838 16.8875 41.1876 15.956 42.1191L13.6271 44.448C13.1747 44.9005 12.5758 45.1533 11.937 45.1533ZM15.5301 49.7312C15.0777 49.2787 14.8381 48.6799 14.8381 48.0411C14.8381 47.4023 15.091 46.8035 15.5301 46.351L17.859 44.0221C18.3115 43.5697 18.9103 43.3301 19.5491 43.3301C20.1878 43.3301 20.7867 43.583 21.2392 44.0221C22.1707 44.9537 22.1707 46.4575 21.2392 47.389L18.897 49.7312C17.9655 50.6627 16.4617 50.6627 15.5301 49.7312ZM20.8 55.0143C20.3475 54.5619 20.108 53.963 20.108 53.3243C20.108 52.6855 20.3608 52.0866 20.8 51.6342L23.1289 49.3053C23.5813 48.8529 24.1802 48.6133 24.8189 48.6133C25.4577 48.6133 26.0566 48.8662 26.509 49.3053C27.4406 50.2369 27.4406 51.7406 26.509 52.6722L24.1802 55.001C23.2486 55.9459 21.7315 55.9459 20.8 55.0143ZM31.7789 57.9687L29.45 60.2975C28.9976 60.75 28.3987 60.9895 27.76 60.9895C27.1212 60.9895 26.5223 60.7367 26.0699 60.2975C25.1383 59.366 25.1383 57.8622 26.0699 56.9307L28.3987 54.6018C28.8512 54.1493 29.45 53.9098 30.0888 53.9098C30.7276 53.9098 31.3264 54.1626 31.7789 54.6018C32.2314 55.0543 32.4709 55.6531 32.4709 56.2919C32.4709 56.9173 32.2314 57.5162 31.7789 57.9687ZM56.9438 45.0735C56.4914 45.5259 55.8925 45.7655 55.2537 45.7655C54.615 45.7655 54.0161 45.5126 53.5637 45.0735L47.9478 39.4576L42.6779 34.1877C42.1456 33.6554 41.2939 33.6554 40.7749 34.1877C40.2426 34.72 40.2426 35.5717 40.7749 36.0907L51.6607 46.9765C52.5922 47.908 52.5922 49.4118 51.6607 50.3433C51.2082 50.7958 50.6093 51.0353 49.9706 51.0353C49.3318 51.0353 48.733 50.7825 48.2805 50.3433L37.3948 39.4576C36.8624 38.9253 36.0108 38.9253 35.4918 39.4576C34.9594 39.9899 34.9594 40.8416 35.4918 41.3606L40.7616 46.6305L46.3775 52.2463C47.309 53.1779 47.309 54.6816 46.3775 55.6132C45.4459 56.5447 43.9422 56.5447 43.0106 55.6132L37.3948 49.9973C37.2883 49.8909 37.1685 49.811 37.0488 49.7445L35.4518 48.1475C34.9195 47.6152 34.0678 47.6152 33.5488 48.1475C33.0165 48.6799 33.0165 49.5316 33.5488 50.0506L41.0544 57.5561C41.9859 58.4877 41.9859 59.9914 41.0544 60.923C40.6019 61.3754 40.0031 61.615 39.3643 61.615C38.7255 61.615 38.1267 61.3621 37.6742 60.923L34.8131 58.0618C35.026 57.4896 35.1457 56.8774 35.1457 56.252C35.1457 54.8946 34.6134 53.617 33.6553 52.6589C32.6971 51.7007 31.4196 51.1684 30.0622 51.1684C29.9957 51.1684 29.9291 51.1684 29.8626 51.1684C29.9158 49.7977 29.4234 48.4137 28.3854 47.3757C27.4273 46.4175 26.1497 45.8852 24.7923 45.8852C24.7258 45.8852 24.6592 45.8852 24.5927 45.8852C24.6459 44.5145 24.1536 43.1305 23.1155 42.0925C22.1574 41.1344 20.8798 40.6021 19.5225 40.6021C19.4559 40.6021 19.3894 40.6021 19.3228 40.6021C19.3761 39.2314 18.8837 37.8474 17.8457 36.8093C15.8628 34.8265 12.6424 34.8265 10.6595 36.8093L8.33065 39.1382C8.03788 39.431 7.78503 39.7504 7.58541 40.0964C4.41817 36.7295 2.68816 32.3646 2.68816 27.7202C2.68816 22.8894 4.56456 18.3648 7.98465 14.9447C11.3914 11.5379 15.9294 9.64824 20.7601 9.64824C25.1383 9.64824 29.2903 11.2052 32.5774 14.0398L24.2999 22.3172C23.2087 23.4084 22.6099 24.859 22.6099 26.416C22.6099 27.9597 23.2087 29.4235 24.2999 30.5148C25.4311 31.6459 26.9083 32.2049 28.3987 32.2049C29.8892 32.2049 31.3664 31.6459 32.4975 30.5148L36.1704 26.8418H40.9213C41.3072 26.8418 41.7065 26.8152 42.0791 26.762L56.9571 41.6401C57.8754 42.6248 57.8754 44.1419 56.9438 45.0735Z" fill="#383B45"/>
</svg>
