<svg width="62" height="69" viewBox="0 0 62 69" fill="none" xmlns="http://www.w3.org/2000/svg">
<circle cx="38.5" cy="45.5" r="23.5" fill="#F9B91D"/>
<path d="M43.6779 38.6198C43.6779 38.0564 43.2193 37.6108 42.6689 37.6108H36.5889C36.0255 37.6108 35.58 38.0695 35.58 38.6198C35.58 39.1702 36.0386 39.6288 36.5889 39.6288H42.6689C43.2324 39.6288 43.6779 39.1702 43.6779 38.6198Z" fill="#383B45" stroke="#383B45" stroke-width="0.6" stroke-miterlimit="10"/>
<path d="M39.6289 12.2822V7.21111C39.6289 6.64767 39.1703 6.20215 38.62 6.20215C38.0565 6.20215 37.611 6.66077 37.611 7.21111V12.269C37.611 15.0601 39.8779 17.327 42.6689 17.327H51.7889V36.576C51.7889 37.1394 52.2475 37.5849 52.7979 37.5849C53.3482 37.5849 53.8069 37.1263 53.8069 36.576V16.3311C53.8069 15.7677 53.3482 15.3222 52.7979 15.3222H42.6689C40.9917 15.3222 39.6289 13.9594 39.6289 12.2822Z" fill="#383B45" stroke="#383B45" stroke-width="0.6" stroke-miterlimit="10"/>
<path d="M42.6689 25.4507H34.571C34.0076 25.4507 33.562 25.9093 33.562 26.4596C33.562 27.0231 34.0207 27.4686 34.571 27.4686H42.6689C43.2324 27.4686 43.6779 27.01 43.6779 26.4596C43.6779 25.8962 43.2324 25.4507 42.6689 25.4507Z" fill="#383B45" stroke="#383B45" stroke-width="0.6" stroke-miterlimit="10"/>
<path d="M31.531 26.4596C31.531 25.8962 31.0724 25.4507 30.5221 25.4507H24.442C23.8786 25.4507 23.4331 25.9093 23.4331 26.4596C23.4331 27.0231 23.8917 27.4686 24.442 27.4686H30.5221C31.0724 27.4686 31.531 27.0231 31.531 26.4596Z" fill="#383B45" stroke="#383B45" stroke-width="0.6" stroke-miterlimit="10"/>
<path d="M24.4289 31.5308C23.8655 31.5308 23.42 31.9894 23.42 32.5397C23.42 33.1032 23.8786 33.5487 24.4289 33.5487H26.46C27.0234 33.5487 27.4689 33.0901 27.4689 32.5397C27.4689 31.9763 27.0103 31.5308 26.46 31.5308H24.4289Z" fill="#383B45" stroke="#383B45" stroke-width="0.6" stroke-miterlimit="10"/>
<path d="M24.4289 21.4017H34.5579C35.1214 21.4017 35.5669 20.9431 35.5669 20.3928C35.5669 19.8293 35.1083 19.3838 34.5579 19.3838H24.4289C23.8655 19.3838 23.42 19.8424 23.42 20.3928C23.42 20.9431 23.8786 21.4017 24.4289 21.4017Z" fill="#383B45" stroke="#383B45" stroke-width="0.6" stroke-miterlimit="10"/>
<path d="M30.509 33.5487H40.6379C41.2014 33.5487 41.6469 33.0901 41.6469 32.5397C41.6469 31.9763 41.1883 31.5308 40.6379 31.5308H30.509C29.9455 31.5308 29.5 31.9894 29.5 32.5397C29.5 33.1032 29.9586 33.5487 30.509 33.5487Z" fill="#383B45" stroke="#383B45" stroke-width="0.6" stroke-miterlimit="10"/>
<path d="M36.5889 43.6777C36.0255 43.6777 35.58 44.1364 35.58 44.6867C35.58 45.2501 36.0386 45.6957 36.5889 45.6957H38.62C39.1834 45.6957 39.6289 45.237 39.6289 44.6867C39.6289 44.1232 39.1703 43.6777 38.62 43.6777H36.5889Z" fill="#383B45" stroke="#383B45" stroke-width="0.6" stroke-miterlimit="10"/>
<path d="M32.54 37.5977H24.442C23.8786 37.5977 23.4331 38.0563 23.4331 38.6066C23.4331 39.157 23.8917 39.6156 24.442 39.6156H32.54C33.1034 39.6156 33.5489 39.157 33.5489 38.6066C33.5489 38.0563 33.1034 37.5977 32.54 37.5977Z" fill="#383B45" stroke="#383B45" stroke-width="0.6" stroke-miterlimit="10"/>
<path d="M32.54 43.6777H24.442C23.8786 43.6777 23.4331 44.1364 23.4331 44.6867C23.4331 45.2501 23.8917 45.6957 24.442 45.6957H32.54C33.1034 45.6957 33.5489 45.237 33.5489 44.6867C33.5489 44.1364 33.1034 43.6777 32.54 43.6777Z" fill="#383B45" stroke="#383B45" stroke-width="0.6" stroke-miterlimit="10"/>
<path d="M56.6503 42.8656L54.6324 40.8345C53.0731 39.2752 50.7014 39.2752 49.1552 40.8345L35.8683 54.1083C35.6848 54.2918 35.5669 54.5538 35.5669 54.829V60.909C35.5669 61.4725 36.0255 61.918 36.5759 61.918H42.669C42.931 61.918 43.1931 61.8132 43.3896 61.6166L56.6634 48.3428C58.2621 46.7311 58.2621 44.4773 56.6503 42.8656ZM47.8317 45.0145L49.4434 46.6263L40.6379 55.4318L39.0393 53.8069L47.8317 45.0145ZM37.5979 59.8869V55.2483L42.2365 59.8869H37.5979ZM43.6779 58.4587L42.0662 56.8469L50.8717 48.0414L52.4834 49.6531L43.6779 58.4587ZM55.2221 46.9145L53.9117 48.2249L49.2731 43.5862L50.5834 42.2759C51.3827 41.4766 52.4048 41.4766 53.2041 42.2759L55.2352 44.3069C56.0476 45.1194 56.0476 46.089 55.2221 46.9145Z" fill="#383B45" stroke="#383B45" stroke-width="0.6" stroke-miterlimit="10"/>
<path d="M32.54 59.8867H6.20207C4.52482 59.8867 3.16207 58.524 3.16207 56.8467V6.20189C3.16207 4.52465 4.52482 3.16189 6.20207 3.16189H38.2007L48.0283 12.9895C48.4214 13.3826 49.0634 13.3826 49.4565 12.9895C49.8496 12.5964 49.8496 11.9543 49.4565 11.5612L39.3276 1.43224C39.1441 1.23569 38.8821 1.13086 38.6069 1.13086H6.20207C3.41103 1.14396 1.14413 3.41086 1.14413 6.20189V56.8467C1.14413 59.6378 3.41103 61.9046 6.20207 61.9046H32.54C33.1034 61.9046 33.549 61.446 33.549 60.8957C33.549 60.3453 33.1034 59.8867 32.54 59.8867Z" fill="#383B45" stroke="#383B45" stroke-width="0.6" stroke-miterlimit="10"/>
<path d="M32.54 49.7578H24.442C23.8786 49.7578 23.4331 50.2164 23.4331 50.7668C23.4331 51.3171 23.8917 51.7757 24.442 51.7757H32.54C33.1034 51.7757 33.5489 51.3171 33.5489 50.7668C33.5489 50.2164 33.1034 49.7578 32.54 49.7578Z" fill="#383B45" stroke="#383B45" stroke-width="0.6" stroke-miterlimit="10"/>
<path d="M19.371 20.3801C19.371 19.8166 18.9124 19.3711 18.3621 19.3711H12.2821C11.7186 19.3711 11.2731 19.8297 11.2731 20.3801V26.4601C11.2731 27.0235 11.7317 27.469 12.2821 27.469H18.3621C18.9255 27.469 19.371 27.0104 19.371 26.4601V20.3801ZM17.34 25.4511H13.291V21.4021H17.34V25.4511Z" fill="#383B45" stroke="#383B45" stroke-width="0.6" stroke-miterlimit="10"/>
<path d="M12.2821 51.7888H18.3621C18.9255 51.7888 19.371 51.3302 19.371 50.7799V44.6999C19.371 44.1364 18.9124 43.6909 18.3621 43.6909H12.2821C11.7186 43.6909 11.2731 44.1495 11.2731 44.6999V50.7799C11.2731 51.3302 11.7186 51.7888 12.2821 51.7888ZM13.291 45.7089H17.34V49.7578H13.291V45.7089Z" fill="#383B45" stroke="#383B45" stroke-width="0.6" stroke-miterlimit="10"/>
<path d="M13.5924 39.3276C13.789 39.5241 14.0379 39.629 14.3131 39.629C14.3524 39.629 14.3786 39.629 14.4179 39.629C14.7193 39.6028 14.9945 39.4324 15.1648 39.1834L19.2138 33.1034C19.5283 32.6317 19.3972 32.0028 18.9386 31.7014C18.4669 31.3869 17.851 31.5179 17.5365 31.9765L14.169 37.0214L13.0159 35.8683C12.6228 35.4752 11.9807 35.4752 11.5876 35.8683C11.1945 36.2614 11.1945 36.9034 11.5876 37.2966L13.5924 39.3276Z" fill="#383B45" stroke="#383B45" stroke-width="0.6" stroke-miterlimit="10"/>
</svg>
