<svg width="74" height="67" viewBox="0 0 74 67" fill="none" xmlns="http://www.w3.org/2000/svg">
<circle cx="50.5" cy="33.5" r="23.5" fill="#F9B91D"/>
<path d="M56.0078 0C49.949 0 45.0156 4.9334 45.0156 10.9922C45.0156 17.051 49.949 21.9844 56.0078 21.9844C62.0666 21.9844 67 17.051 67 10.9922C67 4.9334 62.0666 0 56.0078 0ZM56.0078 19.3672C51.3885 19.3672 47.6328 15.6115 47.6328 10.9922C47.6328 6.37285 51.3885 2.61719 56.0078 2.61719C60.6271 2.61719 64.3828 6.37285 64.3828 10.9922C64.3828 15.6115 60.6271 19.3672 56.0078 19.3672Z" fill="#383B45"/>
<path d="M41.3646 19.7467C41.116 19.498 40.7889 19.3672 40.4355 19.3672C40.0822 19.3672 39.7551 19.5111 39.5064 19.7467C39.2578 19.9953 39.127 20.3225 39.127 20.6758C39.127 21.0291 39.2709 21.3563 39.5064 21.6049C39.7551 21.8535 40.0822 21.9844 40.4355 21.9844C40.7889 21.9844 41.116 21.8404 41.3646 21.6049C41.6133 21.3563 41.7441 21.0291 41.7441 20.6758C41.7441 20.3225 41.6002 19.9953 41.3646 19.7467Z" fill="#383B45"/>
<path d="M52.3438 25.8055C51.624 25.8055 51.0352 26.3943 51.0352 27.1141V32.9766H18.0586V21.9844H33.5C34.2197 21.9844 34.8086 21.3955 34.8086 20.6758C34.8086 19.9561 34.2197 19.3672 33.5 19.3672H16.75C16.0303 19.3672 15.4414 19.9561 15.4414 20.6758V34.2852C15.4414 35.0049 16.0303 35.5938 16.75 35.5938H52.3438C53.0635 35.5938 53.6523 35.0049 53.6523 34.2852V27.1141C53.6523 26.3812 53.0635 25.8055 52.3438 25.8055Z" fill="#383B45"/>
<path d="M52.3437 46.5859H37.7137C36.9939 46.5859 36.4051 47.1748 36.4051 47.8945C36.4051 48.6143 36.9939 49.2031 37.7137 49.2031H52.3437C53.0635 49.2031 53.6523 48.6143 53.6523 47.8945C53.6523 47.1748 53.0635 46.5859 52.3437 46.5859Z" fill="#383B45"/>
<path d="M52.3437 39.7812H37.7137C36.9939 39.7812 36.4051 40.3701 36.4051 41.0898C36.4051 41.8096 36.9939 42.3984 37.7137 42.3984H52.3437C53.0635 42.3984 53.6523 41.8096 53.6523 41.0898C53.6523 40.3701 53.0635 39.7812 52.3437 39.7812Z" fill="#383B45"/>
<path d="M52.3437 53.3906H37.7137C36.9939 53.3906 36.4051 53.9795 36.4051 54.6992C36.4051 55.4189 36.9939 56.0078 37.7137 56.0078H52.3437C53.0635 56.0078 53.6523 55.4189 53.6523 54.6992C53.6523 53.9795 53.0635 53.3906 52.3437 53.3906Z" fill="#383B45"/>
<path d="M31.3801 39.7812H24.065C23.3453 39.7812 22.7564 40.3701 22.7564 41.0898C22.7564 41.8096 23.3453 42.3984 24.065 42.3984H30.0715V53.3906H16.75C16.0303 53.3906 15.4414 53.9795 15.4414 54.6992C15.4414 55.4189 16.0303 56.0078 16.75 56.0078H31.3801C32.0998 56.0078 32.6887 55.4189 32.6887 54.6992V41.0898C32.6887 40.3701 32.0998 39.7812 31.3801 39.7812Z" fill="#383B45"/>
<path d="M58.625 26.3682C57.9053 26.3682 57.3164 26.957 57.3164 27.6768V38.9699C57.3164 39.6896 57.9053 40.2785 58.625 40.2785C59.3447 40.2785 59.9336 39.6896 59.9336 38.9699V27.6768C59.9336 26.957 59.3447 26.3682 58.625 26.3682Z" fill="#383B45"/>
<path d="M59.5541 43.3014C59.3055 43.0527 58.9783 42.9219 58.625 42.9219C58.2717 42.9219 57.9445 43.0658 57.6959 43.3014C57.4473 43.55 57.3164 43.8771 57.3164 44.2305C57.3164 44.5838 57.4604 44.9109 57.6959 45.1596C57.9445 45.4082 58.2717 45.5391 58.625 45.5391C58.9783 45.5391 59.3055 45.3951 59.5541 45.1596C59.8027 44.9109 59.9336 44.5838 59.9336 44.2305C59.9336 43.8771 59.7896 43.55 59.5541 43.3014Z" fill="#383B45"/>
<path d="M58.625 48.7714C57.9053 48.7714 57.3164 49.3603 57.3164 50.08V63.0743C57.3164 63.7941 56.7275 64.3829 56.0078 64.3829H13.0859C12.3662 64.3829 11.7773 63.7941 11.7773 63.0743V55.3406L19.6943 49.1902C21.1207 48.0779 21.775 46.2982 21.4086 44.5316C21.1338 43.223 20.3225 42.0976 19.1709 41.4171C18.0193 40.7497 16.6322 40.5927 15.3629 41.0114L10.0631 42.7257C9.36953 42.9482 9.00312 43.681 9.22559 44.3745C9.44805 45.0681 10.1809 45.4345 10.8744 45.212L16.1742 43.4978C16.75 43.3146 17.3389 43.38 17.8623 43.681C18.3857 43.982 18.726 44.4661 18.8568 45.055C19.0139 45.8402 18.726 46.6253 18.0979 47.1095L9.67051 53.6525C9.35645 53.9011 9.16016 54.2806 9.16016 54.6863V63.0613V63.4669C9.16016 63.5716 9.17324 63.5978 9.19941 63.5847C9.46113 65.4952 11.0969 66.987 13.0859 66.987H56.0078C58.167 66.987 59.9336 65.2204 59.9336 63.0613V50.0669C59.9336 49.3603 59.3447 48.7714 58.625 48.7714Z" fill="#383B45"/>
<path d="M39.8205 8.89844H13.0859C10.9268 8.89844 9.16016 10.665 9.16016 12.8242V28.8283L0.209375 42.4115C0.0654297 42.6209 0 42.8695 0 43.1313V65.6914C0 66.4111 0.588867 67 1.30859 67C2.02832 67 2.61719 66.4111 2.61719 65.6914V43.5238L9.16016 33.5916V38.9699C9.16016 39.6896 9.74902 40.2785 10.4688 40.2785C11.1885 40.2785 11.7773 39.6896 11.7773 38.9699V12.8242C11.7773 12.1045 12.3662 11.5156 13.0859 11.5156H39.8205C40.5402 11.5156 41.1291 10.9268 41.1291 10.207C41.1291 9.4873 40.5533 8.89844 39.8205 8.89844Z" fill="#383B45"/>
<path d="M60.9674 7.95601C60.457 7.44565 59.6326 7.44565 59.1223 7.95601L55.7461 11.3191L54.5291 10.1021C54.0188 9.59175 53.1943 9.59175 52.684 10.1021C52.1736 10.6125 52.1736 11.4369 52.684 11.9472L54.8301 14.0933C55.0918 14.355 55.4189 14.4728 55.7592 14.4728C56.0994 14.4728 56.4266 14.3419 56.6883 14.0933L60.9805 9.80112C61.4777 9.29077 61.4777 8.46636 60.9674 7.95601Z" fill="#383B45"/>
</svg>
